<?xml version="1.0" encoding="utf-8"?>
<!-- Generator: Adobe Illustrator 18.0.0, SVG Export Plug-In . SVG Version: 6.00 Build 0)  -->
<!DOCTYPE svg PUBLIC "-//W3C//DTD SVG 1.1//EN" "http://www.w3.org/Graphics/SVG/1.1/DTD/svg11.dtd">
<svg version="1.1" id="Layer_1" xmlns="http://www.w3.org/2000/svg" xmlns:xlink="http://www.w3.org/1999/xlink" x="0px" y="0px"
	 viewBox="0 0 612 694" enable-background="new 0 0 612 694" xml:space="preserve">
<g>
	<g>
		<g>
			<path fill="none" stroke="#FFFFFF" stroke-width="10" stroke-linecap="round" stroke-linejoin="round" stroke-miterlimit="10" d="M420.1,179.1c-41.7,45.6-91.5,82.2-136.6,124.2c-0.5,0.4-0.9,0.9-1.4,1.3c0.2,0.2,0.5,0.5,0.7,0.7
				c41.7-45.9,86.6-88.9,134.4-128.4c2.6-2.2,5.3-4.3,7.9-6.5c0.4-0.3,0-1-0.5-0.8c-31.1,11.5-62.3,23.1-93.4,34.6
				c-15.6,5.8-31.1,11.5-46.7,17.3c-6.2,2.3-12.4,5.2-19.1,6.1c-4.6,0.6-10.4,0.5-14.1-2.7c-0.9-0.7-1.5-1.7-1.9-2.8
				c-0.2-0.6-0.3-1.2-0.4-1.8c-0.1-0.5,2-1.1,2.3-1.3c3.7-1.7,7.4-3.3,11.2-4.9c7.4-3.2,14.9-6.2,22.4-9.2
				c14.5-5.7,29.3-10.9,44.1-15.7c29.7-9.6,60-17.3,90.7-23.3c4-0.8,8-1.5,12-2.2c0.5-0.1,0.4-0.8,0-1c-30.2-8.7-61.9-9.3-92.7-15.1
				c-25.4-4.8-51.3-14.1-70-32.8c-2.8-2.9-5.4-5.9-7.8-9.2c-0.1,0.2-0.2,0.5-0.3,0.7c48.9-15.3,98.9,10.3,141,33.1
				c0.4,0.2,1-0.2,0.7-0.7c-15.9-24.8-26.4-52.8-30.8-81.8c-1.1-7.4-1.8-14.9-2.1-22.5c-0.1-1.2-0.7-3.9,0.7-4.2
				c1.5-0.4,3-0.3,4.5-0.1c2.9,0.4,5.5,2.1,7.7,4c4.5,3.8,7.5,9.3,9.9,14.6c3.2,7.1,5.5,14.8,8.1,22.2c8.2,22.9,16.4,45.8,24.6,68.7
				c0.2,0.6,0.9,0.4,1-0.1c3.6-27.5,12.4-54.1,25.8-78.3c6.7-12.1,14.5-23.6,23.3-34.3c4.3-5.2,8.9-10.3,13.7-15.1
				c0.6-0.6,1.2-1.1,1.7-1.7c0.4-0.4,1.1,0.8,1.3,1c1,1.2,1.9,2.4,2.7,3.8c1.6,2.6,2.6,5.5,3.2,8.4c2,9.4-0.8,19.4-4.2,28.2
				c-4,10.2-10,19.4-16,28.6c-14.5,22.3-29.1,44.6-43.6,66.9c-0.3,0.4,0.2,0.8,0.6,0.7c32.3-7.3,64.7-14.6,97-21.9
				c12-2.7,24.1-5.2,36.5-4.2c11.8,0.9,25.3,6.6,28.9,18.9c2.1,7.1-3.1,12.2-8.6,15.5c-5.4,3.2-11.4,5.6-17.2,8
				c-12.8,5.5-26.1,10-39.6,13.8c-26.4,7.3-53.7,11.1-81.1,11.3c-0.5,0-0.6,0.7-0.3,0.9c40.1,29.5,62.3,80.2,58.6,129.5
				c-0.5,6.3-1.4,12.5-2.7,18.6c-0.7,3.1-1.3,6.2-2.8,9c-1.9,3.6-5.8,4.7-9.5,3.2c-6.1-2.6-9.5-9.7-11.8-15.5
				c-2.9-7.3-5.6-14.6-8.2-22c-10.3-29.5-17.8-60-22.7-90.9c-1.9-12.3-3.4-24.7-4.4-37.1c-0.1-0.6-1-0.7-1,0
				c-0.9,31.8-5.6,63.4-13.8,94.1c-3.9,14.4-8.3,28.9-14.2,42.6c-4.7,10.8-10.9,21.4-19.9,29.2c-4.5,3.8-9.7,6.6-15.4,7.9
				c-1.4,0.3-3.3,0.9-4.7,0.2c-1.2-0.7-2.2-1.8-3-2.9c-1.6-2.4-2.1-5.4-2.2-8.2c-0.3-6.3,1.7-12.4,3.4-18.4
				c2.1-7.7,4.4-15.3,6.7-22.9c9.2-30.4,19.6-60.5,31.2-90.1c5.4-13.9,11.1-27.6,17.1-41.3c0.3-0.6-0.6-1.1-0.9-0.5
				c-12.6,28.9-24,58.3-34.3,88.1c-5.2,15-10,30.2-14.6,45.4c-2.3,7.6-4.5,15.3-6.6,22.9c-1.5,5.5-3.1,11-2.9,16.9
				c0.1,4.1,1.3,8.8,4.8,11.3c2.1,1.5,3.3,1.2,5.8,0.7c2.6-0.5,5.2-1.4,7.6-2.6c10-4.6,17.3-13.7,22.8-23
				c6.6-11.2,10.8-23.6,14.8-35.9c4.8-15,8.8-30.3,11.8-45.7c4.4-22.3,7-44.9,7.6-67.7c-0.3,0-0.7,0-1,0
				c2.6,30.9,7.9,61.6,15.9,91.5c4,15.1,8.8,30,14.1,44.7c2.4,6.6,4.6,13.7,8,19.9c2.4,4.4,6.1,8.9,10.9,10.7
				c4.4,1.6,8.7-1.4,10.3-5.5c2.3-5.6,3.1-11.9,4-17.8c1.7-11.8,1.8-23.9,0.5-35.7c-2.6-23.8-11-46.9-24.1-66.9
				c-9.2-14.1-20.9-26.6-34.5-36.6c-0.1,0.3-0.2,0.6-0.3,0.9c30.2-0.3,60.3-4.9,89.3-13.7c14.3-4.3,28.3-9.7,41.9-16
				c5.3-2.4,10.8-4.9,14.4-9.6c3.8-4.9,2.3-11.2-0.7-16.1c-12.3-19.6-41.4-15-60.2-10.8c-32.4,7.3-64.7,14.6-97,21.9
				c-1.3,0.3-2.6,0.6-3.9,0.9c0.2,0.2,0.4,0.5,0.6,0.7c8.5-13.1,17.1-26.2,25.6-39.3c8.4-12.9,17.1-25.6,25.1-38.7
				c10.4-17,22.3-43.7,5.7-60.7c-0.2-0.2-0.5-0.2-0.7,0c-35.6,34.7-59,81.3-65.4,130.7c0.3,0,0.7-0.1,1-0.1
				c-8.8-24.5-17.5-48.9-26.3-73.4c-3.4-9.6-6.3-19.7-12.5-28c-4.4-5.9-10.9-10.5-18.5-8.3c-0.2,0.1-0.4,0.3-0.4,0.5
				c0.8,38.6,12.4,76.7,33.2,109.2c0.2-0.2,0.5-0.5,0.7-0.7c-42.3-23-92.5-48.7-141.8-33.2c-0.3,0.1-0.5,0.5-0.3,0.7
				c15,20.5,38.5,32.1,62.5,38.8c29.2,8.1,59.8,8.6,89.4,14.3c6.5,1.2,12.9,2.7,19.2,4.6c0-0.3,0-0.6,0-1
				c-61.2,10.9-121.1,29.1-178,54.2c-1.7,0.8-3.4,1.5-5.1,2.3c-0.1,0.1-0.3,0.3-0.2,0.4c0.7,9.2,11.8,9.7,18.8,8.6
				c6.5-1,12.8-4,18.9-6.2c7.8-2.9,15.6-5.8,23.3-8.7c31.1-11.5,62.3-23.1,93.4-34.6c7.5-2.8,14.9-5.5,22.4-8.3
				c-0.2-0.3-0.3-0.6-0.5-0.8c-48.1,39.1-93.4,81.7-135.4,127.3c-2.3,2.5-4.6,5-6.9,7.6c-0.4,0.5,0.2,1.1,0.7,0.7
				c45-42,94.9-78.7,136.7-124.1c0.4-0.5,0.9-0.9,1.3-1.4C421.3,179.4,420.6,178.7,420.1,179.1L420.1,179.1z"/>
		</g>
	</g>
	<g>
		<g>
			<path fill="none" stroke="#FFFFFF" stroke-width="10" stroke-linecap="round" stroke-linejoin="round" stroke-miterlimit="10" d="M218.1,535.1c2.5-1.4,4.9-2.8,7.4-4.3c-0.2-0.2-0.5-0.4-0.7-0.6c-8.6,35.2-29.4,67-58.4,88.8
				c0.2,0.2,0.5,0.5,0.7,0.7c15.1-31.3,31.4-62,48.9-92c0.3-0.5-0.4-1-0.8-0.6c-19.4,18.1-44.2,29.7-70.4,33.8
				c-13.3,2.1-26.8,2.1-40.1,0c-2.3-0.4-8.1-0.4-8.8-3c-1-3.7,3.4-7.1,6.1-8.7c3-1.9,6.6-2.9,10-4.1c3.9-1.4,7.7-2.7,11.7-3.9
				c24.6-7.8,50-13,75.7-15.6c0.5-0.1,0.7-0.8,0.1-1c-40.2-12.6-73.9-43.7-89.4-82.9c-0.2,0.2-0.4,0.4-0.6,0.6
				c35.9,12.1,63.4,39.5,89.5,65.8c0.3,0.3,1,0,0.8-0.5c-9.6-28.3-8-59.9,4.4-87.1c-0.3,0-0.6,0-0.9,0
				c14.9,31.1,20.1,66.5,14.7,100.6c-0.1,0.5,0.6,0.9,0.9,0.4c12.6-24.5,30.8-45.7,53-62c5.6-4.1,11.7-8.8,18.5-10.6
				c8.1-2.1,13.5,4.7,13.6,12.2c0.1,7.6-5.8,14.2-10.4,19.7c-4.7,5.6-9.6,11-14.6,16.3c-13.8,14.2-29,27-45.4,38.2
				c-0.4,0.3-0.3,1,0.3,0.9c26.4-1.4,52.7,6.9,73.9,22.6c5.4,4,10.3,8.5,14.9,13.3c2.3,2.4,4.4,5,6.4,7.6c0.6,0.8,1.1,1.7,1.5,2.6
				c0.8,2.2-1.1,3.1-2.4,3.8c-1.9,1-4,1.7-6,2.3c-14,4.3-29.4,0.7-41.9-6.1c-15.3-8.3-27.2-21.6-38.5-34.5c-0.4-0.4-1.1,0.1-0.8,0.6
				c19.3,34.3,29.4,73.4,29,112.7c0.3-0.1,0.6-0.2,0.9-0.3c-19.4-38.8-32.6-80.6-39.3-123.5c-0.1-0.6-1.1-0.4-1,0.3
				c6.7,43,20,84.8,39.4,123.7c0.2,0.5,0.9,0.2,0.9-0.3c0.4-39.5-9.7-78.8-29.1-113.2c-0.3,0.2-0.5,0.4-0.8,0.6
				c17.8,20.4,38.6,42,67.6,42.7c6.3,0.1,12.8-1,18.6-3.5c1.6-0.7,4.5-1.8,4.5-4c0-2.8-2.1-5-3.8-7c-8-9.9-17.8-18.2-28.7-24.8
				c-19.5-11.9-42.6-17.9-65.4-16.6c0.1,0.3,0.2,0.6,0.3,0.9c23.8-16.3,45.5-36.1,63.5-58.7c3.8-4.7,7.2-10.1,7.4-16.3
				c0.2-4.8-2-9.6-6.1-12.2c-5.3-3.3-11.9-0.3-16.6,2.5c-5.6,3.3-10.9,7.2-16.1,11.2c-20,15.6-36.5,35.8-48.1,58.3
				c0.3,0.1,0.6,0.3,0.9,0.4c5.5-34.4,0.3-70-14.8-101.4c-0.2-0.3-0.7-0.3-0.9,0c-12.5,27.5-14.2,59.3-4.5,87.8
				c0.3-0.2,0.6-0.3,0.8-0.5c-26.2-26.4-53.9-53.9-90-66.1c-0.3-0.1-0.8,0.3-0.6,0.6c15.7,39.5,49.5,70.9,90.1,83.6
				c0-0.3,0.1-0.7,0.1-1c-31.1,3.1-61.8,10.1-91.1,20.8c-4.6,1.7-10.7,4.1-12.8,9.1c-0.8,2-0.7,3.7,0.3,5.6c0.3,0.6,2,0.6,2.6,0.7
				c1.8,0.4,3.6,0.7,5.4,1c12.6,2.1,25.5,2.2,38.2,0.6c27.5-3.5,53.8-15.6,74.1-34.5c-0.3-0.2-0.5-0.4-0.8-0.6
				c-17.5,30-33.8,60.7-48.9,92c-0.2,0.4,0.2,1,0.7,0.7c29.2-22,50.2-53.9,58.8-89.4c0.1-0.4-0.3-0.8-0.7-0.6
				c-2.5,1.4-4.9,2.8-7.4,4.3C217,534.5,217.5,535.4,218.1,535.1L218.1,535.1z"/>
		</g>
	</g>
	<g>
		<g>
			<path fill="#EDEDEC" d="M112.2,194.6c0.3,3.3-5,2.1-6.6,1.3c-3.1-1.5-6.1-3.3-9.1-4.9c-6.3-3.5-12.5-7.1-18.7-10.8
				c-12.1-7.3-23.8-15-35.3-23.2c0,0.3-0.1,0.6-0.1,0.9c6.9-2.4,14.9,2.7,21.1,5.4c7,3,13.9,6,20.9,8.9c13.9,6,27.9,11.9,41.8,17.9
				c0.5,0.2,1.1-0.4,0.6-0.8c-11-10-22.6-20.6-28.2-34.8c-4.9-12.4-4.1-28.1,5.8-37.8c-0.3-0.1-0.6-0.1-0.8-0.2
				c8.5,21.9,14.6,44.6,18.3,67.8c0.1,0.4,0.7,0.5,0.9,0.1c9.2-21.4,20.1-45.5,42.6-55.8c-0.2-0.1-0.5-0.1-0.7-0.2
				c7.6,10.9,4.6,25.4-2.6,35.7c-8,11.4-21.2,18.1-33.2,24.4c-0.2,0.1-0.3,0.3-0.2,0.6c0.8,4.7,5.3,6.5,9.5,7.5
				c2.9,0.7,5.8,0.9,8.7,1.5c3.2,0.6,6.2,1.6,9.2,2.8c12.3,4.9,22.7,14.5,28.7,26.3c0.1-0.3,0.3-0.5,0.4-0.8
				c-20.4-0.2-40.2-8.4-54.8-22.5c-0.4-0.4-0.9,0-0.8,0.5c3,18.3,4.3,36.8,4.1,55.3c0.3,0,0.7-0.1,1-0.1
				c-5.9-19.9-11.8-39.8-17.7-59.6c-0.1-0.4-0.7-0.5-0.9-0.1c-13,26.3-31,59-64.4,60.3c0.1,0.3,0.2,0.6,0.4,0.9
				c18.2-21.1,37.4-41.4,57.5-60.8c0.3-0.3,0-1-0.5-0.8C77.6,211.9,41.6,225.5,8,213.2c0,0.3,0,0.6,0,1
				c27.2-11.5,56.1-18.8,85.5-21.7c0.6-0.1,0.6-1.1,0-1C64,194.4,35,201.7,7.7,213.2c-0.5,0.2-0.5,0.8,0,1
				c33.9,12.3,70-1.2,101.7-13.8c-0.2-0.3-0.3-0.6-0.5-0.8c-20.1,19.4-39.3,39.7-57.5,60.8c-0.3,0.3-0.1,0.9,0.4,0.9
				c14.9-0.6,28.3-8.3,38.6-18.7c11.8-11.9,19.4-27.2,26.7-42.1c-0.3,0-0.6-0.1-0.9-0.1c5.9,19.9,11.8,39.8,17.7,59.6
				c0.2,0.5,1,0.4,1-0.1c0.3-18.6-1.1-37.2-4.1-55.6c-0.3,0.2-0.6,0.3-0.8,0.5c14.8,14.3,34.9,22.6,55.6,22.8c0.4,0,0.6-0.4,0.4-0.8
				c-5.5-10.8-14.4-19.4-25.1-24.9c-5.3-2.7-11.1-4.5-17.1-5.4c-2.6-0.4-5.1-0.8-7.6-1.6c-1.4-0.5-2.8-1.1-4-2.1
				c-0.7-0.5-3.1-3.2-1.8-3.9c11.6-6,23.8-12.5,31.9-23.1c7.1-9.3,10.6-22.2,6.1-33.3c-0.7-1.6-1.6-3.2-2.6-4.6
				c-0.2-0.2-0.4-0.3-0.7-0.2c-22.6,10.3-33.7,34.6-43,56.1c0.3,0,0.6,0.1,0.9,0.1c-3.7-23.2-9.8-45.9-18.3-67.8
				c-0.1-0.3-0.5-0.5-0.8-0.2c-9.8,9.5-10.8,24.3-6.8,36.7c4.9,15.3,17.7,26.7,29.2,37.2c0.2-0.3,0.4-0.5,0.6-0.8
				c-14.5-6.2-29.1-12.4-43.6-18.6c-7.3-3.1-14.5-6.2-21.8-9.3c-5.8-2.5-12.6-6.5-19.1-4.3c-0.4,0.1-0.5,0.7-0.1,0.9
				c13.5,9.6,27.5,18.6,41.8,27c7,4.1,14.1,8.1,21.3,11.9c2.3,1.2,8.6,2,8.1-2.1C113.2,194,112.2,194,112.2,194.6L112.2,194.6z"/>
		</g>
	</g>
</g>
</svg>
