<?xml version="1.0" encoding="utf-8"?>
<!-- Generator: Adobe Illustrator 18.0.0, SVG Export Plug-In . SVG Version: 6.00 Build 0)  -->
<!DOCTYPE svg PUBLIC "-//W3C//DTD SVG 1.1//EN" "http://www.w3.org/Graphics/SVG/1.1/DTD/svg11.dtd">
<svg version="1.1" id="Layer_1" xmlns="http://www.w3.org/2000/svg" xmlns:xlink="http://www.w3.org/1999/xlink" x="0px" y="0px"
	 viewBox="0 0 612 309.6" enable-background="new 0 0 612 309.6" xml:space="preserve">
<g>
	<g>
		<path fill="none" stroke="#FFFFFF" stroke-width="10" stroke-linecap="round" stroke-linejoin="round" stroke-miterlimit="10"  d="M479.5,8.1c9.9,0.6,19.8,1.9,29.5,3.8c8,1.6,16.6,3.2,23.8,7.3c6.7,3.8,10.7,11.2,7.5,18.7
			c-2.7,6.3-9.3,10.4-15.2,13.3c-7.4,3.7-15.6,5.4-23.6,7.5c-9.1,2.4-18.1,4.6-27.3,6.7c-18.2,4.2-36.6,7.9-55,11
			C345,89.2,269.4,93.1,194.4,88.4c-18.7-1.2-37.3-2.9-55.9-5.2c-9.6-1.2-19.2-2.5-28.8-4c-8.1-1.2-16.3-2.3-24.1-4.4
			C74,71.8,58,65,56.3,51.4C54.4,36.7,70,30,81.8,27.6c7.8-1.6,15.9-1.7,23.9-2.2c9.9-0.6,19.8-1.2,29.7-1.8
			c19.8-1.2,39.5-2.4,59.3-3.6c39.5-2.4,79.1-4.9,118.6-7.3c39-2.4,78.1-5.1,117.3-4.7c19.5,0.2,39,1.3,58.3,3.6
			c14.2,1.7,28.3,4.5,41.6,9.9c12.7,5.2,24.6,13.3,31.8,25.2c7.6,12.6,8.1,27.6,3.5,41.3c-4.8,14.1-14.8,26.4-26.9,34.9
			c-13.9,9.8-31,14.3-47.6,16.4c-17.2,2.2-34.6,1.7-51.9,1.1c-18.8-0.7-37.6-1.8-56.4-3.4c-37.9-3.1-75.6-8.1-113.1-14.7
			c-37.1-6.6-73.9-14.9-110.3-24.9c-18.2-5-36.2-10.4-54.1-16.2c-8.9-2.9-17.8-6-26.7-9c-8.4-2.8-17.1-5.5-26-6.6
			C38.1,63.8,23.7,66.4,13.7,78c-7.2,8.3-10.9,20.5-5.4,30.6c3.6,6.5,10.7,10.2,17,13.4c7.2,3.6,14.7,6.8,22.3,9.5
			c15.4,5.5,31.4,9.1,47.6,11.2c69,8.9,137.8-10,203.2-30c35.3-10.8,70.6-22.1,106.7-30c34.8-7.6,71.1-12.4,106.7-9
			c16.5,1.6,32.9,5.2,48.1,12c14.8,6.6,29.1,16.5,38,30.2c8.9,13.7,8.5,29.9-0.9,43.2c-8.8,12.4-23,20.6-36.8,26
			c-67.3,26.3-140.9,10.1-207.7-8.9c-34.6-9.8-68.8-21.3-103.8-29.6c-29.9-7.1-66.9-11.4-92.8,9c-19.2,15.1-32,43.2-18.6,66.2
			c13.2,22.5,43.7,25.7,66.8,20.3c15.4-3.6,29.7-11.7,43.3-19.6c15.1-8.8,30.1-17.9,46.7-23.6c34.3-11.8,71.6-9.7,107.2-6.5
			c15,1.3,30.7,2.2,44.8,8.2c13.2,5.6,23.2,17.4,22.5,32.3c-0.7,14.9-11.7,27.7-22.9,36.4c-12.6,9.7-27.7,14.5-43.2,17.2
			c-33.1,5.7-67.1-0.7-98.2-12.5c-32-12.1-61.2-30.3-88.4-50.7c-52.6-39.3-100.5-86.4-161.3-113.2c-0.3-0.1-0.6,0-0.7,0.3
			c-4.3,14.4,1.4,28.3,9.9,39.8c9.5,12.9,22.1,23,34.2,33.2c25.1,21.3,50.7,42.1,78.2,60.2c26.9,17.7,55.7,32.7,86.7,41.6
			c29,8.4,59.4,10.6,89.2,6.3c58-8.5,110.1-41,150.6-82.3c21-21.3,39.1-45.3,54.3-71.1c8.1-13.7,16.2-28.2,20.7-43.5
			c4.1-14.1,3.3-29.5-5.9-41.4c-7.4-9.6-19.9-13.6-31.3-9.4c-11.4,4.2-19.3,15.3-24.8,25.6c-7.1,13.3-10.4,28-14.2,42.4
			c-4.5,16.9-8.8,33.9-14,50.6c-10,32.2-23.8,63.8-47.3,88.6c-21,22.1-49.6,38.8-80.7,39.5c-60,1.4-96.9-57-109.8-108.8
			c-3.3-13.2-5.7-26.9-4.8-40.6c0.9-13,5.4-26.9,17.8-33.1c13.9-7,28.1,1,37.9,11c11.3,11.5,18.2,26.1,25,40.5
			c19.1,40.2,38.2,80.5,57.4,120.7c0.2,0.5,0.9,0.2,0.9-0.3c1.2-64.6,3-134.3,39-190.4c4.5-7,9.5-13.6,16.1-18.8
			c6-4.6,13.7-8.1,21.3-5.7c8.1,2.5,11.2,11.1,12.4,18.7c1.4,8.6,1.3,17.6,1.5,26.3c0.6,36.7-4.3,73.4-14,108.8
			c-4.5,16.4-10.2,32.5-16.9,48.2c-0.3,0.6,0.6,1.1,0.9,0.5c14-32.9,23.4-67.6,28-103.1c2.3-18,3.3-36.2,3.1-54.4
			c-0.1-8.5-0.3-17.2-1.4-25.6c-0.8-6.2-2.7-12.5-7.3-16.9c-10.5-10-25.4-0.8-33.6,7.3c-5.4,5.3-9.5,11.9-13.4,18.3
			c-4.2,6.8-7.8,14-11.1,21.3c-13.1,29.1-19,60.9-22.1,92.5c-2.4,24.3-3,48.7-3.4,73c0.3-0.1,0.6-0.2,0.9-0.3
			c-16.9-35.6-33.8-71.2-50.8-106.8c-7.3-15.3-13.8-31.3-23.8-45c-7.4-10.2-17.5-20.5-30.4-23.1c-11.5-2.3-22.8,3.8-28.8,13.6
			c-6.4,10.6-7.1,24.2-6.2,36.3c1,13.3,4.2,26.7,8.1,39.4c4.1,13.1,9.5,25.9,16.3,37.8c12.7,22.3,31.2,42.6,55.3,52.6
			c26.6,11,55.7,7.8,80.9-5.2c27.2-14.1,48.2-37.8,62.6-64.5c16.4-30.5,25.1-64.3,33.8-97.6c4-15.2,7.3-30.9,14.3-45.1
			c5.7-11.6,14.4-24,27.3-28c15.1-4.7,28.5,6.1,33.8,19.6c6.6,16.9-0.3,35.2-7.7,50.5c-26.4,54.3-67.3,103-117.6,136.6
			c-24.4,16.3-51.4,28.9-79.9,35.9c-29.6,7.3-60.5,7.8-90.4,1.9c-65.4-13-120.9-54.6-171-96.4c-13.2-11-27.1-21.8-38.8-34.5
			c-11.6-12.7-21.8-29.4-16.5-47.2c-0.2,0.1-0.5,0.2-0.7,0.3c62,27.4,110.7,75.8,164.5,115.6c51.5,38.2,116.2,71.3,182.3,61.2
			c15.1-2.3,29.8-6.8,42.5-15.5c10.9-7.5,20.7-18.1,24.8-30.9c3.9-12,0.3-24.8-8.7-33.5c-9.5-9.2-23.6-12.4-36.3-14.2
			c-16.4-2.4-33.2-3.4-49.7-4.2c-17.5-0.8-35.2-0.6-52.6,2.1c-17.1,2.6-33.4,8.1-48.7,16c-15.2,7.8-29.4,17.4-44.7,24.9
			c-13.6,6.7-27.8,11.1-43.1,11.1c-13.4,0-27.3-3.6-37.6-12.4c-10.6-9-15.1-22.9-13.2-36.5c1.9-13.6,9.7-25.9,19.7-35.1
			c26.2-24,66.1-18.9,97.7-11.3c35,8.4,69.2,19.9,103.8,29.7c65.9,18.7,137.7,33.8,204.2,9.1c23.9-8.9,53.1-29.1,46-58.6
			c-3.5-14.6-15.5-26-27.5-34.2c-12.9-8.8-27.8-14.4-43-17.8c-33-7.5-67.9-5-101,0.2c-36.4,5.7-71.9,16.1-107.1,26.9
			c-67.2,20.6-135.3,42.9-206.5,40.4c-33.8-1.2-68-8.6-97.9-24.8c-7-3.8-13-9.1-14.5-17.2C5.6,95.1,8,88.3,11.3,82.9
			c3.5-5.8,8.9-10.4,14.9-13.4c8.4-4,18.5-4,27.5-2.7c9.2,1.3,18.1,4.2,26.9,7.2c8.9,3,17.8,6.1,26.7,9c17.9,5.8,36,11.2,54.2,16.1
			c36.4,9.9,73.2,18.1,110.3,24.7c36.8,6.5,73.9,11.2,111.1,14.3c18.8,1.6,37.6,2.7,56.4,3.4c17.3,0.6,34.7,1,51.9-1.1
			c15.8-1.9,31.7-6.2,45.3-14.7c11.7-7.2,21.3-18,27.3-30.3c5.8-11.7,7.8-25.3,4.2-38c-3.4-12.2-12-22-22.3-29
			c-11.1-7.5-24.3-11.8-37.3-14.6c-16.3-3.6-33.2-4.8-49.8-5.8c-39-2.3-78.1-0.3-117.1,2c-79,4.7-158,9.7-237.1,14.6
			c-13.2,0.8-27.6,0.9-39.2,8.1c-9.2,5.6-12.9,17-7.3,26.5C64,69.3,77.5,74,88.3,76.6c8.4,2,17,3,25.5,4.3
			c8.9,1.3,17.9,2.5,26.8,3.6c74.3,9,149.7,9.1,224.1,0.8c36.9-4.1,73.5-10.4,109.7-18.8c9.1-2.1,18.2-4.4,27.3-6.7
			c7.5-2,15.2-3.7,22.3-6.9c9.8-4.4,21.9-13.5,17.4-25.7c-3.2-8.7-14-11.8-22-13.8c-13-3.3-26.4-5.3-39.9-6.1
			C478.8,7.1,478.9,8.1,479.5,8.1L479.5,8.1z"/>
	</g>
</g>
</svg>
