<?xml version="1.0" encoding="utf-8"?>
<!-- Generator: Adobe Illustrator 18.0.0, SVG Export Plug-In . SVG Version: 6.00 Build 0)  -->
<!DOCTYPE svg PUBLIC "-//W3C//DTD SVG 1.1//EN" "http://www.w3.org/Graphics/SVG/1.1/DTD/svg11.dtd">
<svg version="1.1" id="Layer_1" xmlns="http://www.w3.org/2000/svg" xmlns:xlink="http://www.w3.org/1999/xlink" x="0px" y="0px"
	 viewBox="0 0 86.7 42.3" enable-background="new 0 0 86.7 42.3" xml:space="preserve">
<g>
	<g>
		<g>
			<path fill="#EDEDEC" d="M72.8,0.4c-4.7-0.1-9.4-0.1-14.1-0.2c0,0.3,0.1,0.7,0.1,1c4.1-0.9,8.2-0.9,12.3-0.1
				c0.8,0.1,1.6,0.4,2.3,0.6c1.9,0.6,1.7,3.1,0.1,4.1c-1.8,1.1-4.3,1.4-6.3,1.9c-7.9,1.9-16,3.1-24.1,3.6
				c-7.9,0.5-15.7,0.2-23.6-0.7c-3.4-0.4-7.6-0.5-10.7-2.2C7.7,7.5,6.9,5.9,8.2,4.5c0.6-0.7,1.7-0.9,2.5-1.1
				c2.1-0.5,4.5-0.4,6.6-0.5c8.1-0.5,16.3-1,24.4-1.5C49.8,0.8,57.9,0.2,66,0.8c3.4,0.3,6.8,0.7,9.9,2.4c4,2.2,4.4,6.7,2.1,10.3
				c-4.3,6.8-15.3,5.1-22.1,4.7c-8.2-0.5-16.3-1.7-24.3-3.4c-7.7-1.6-15.1-4.2-22.7-6.4c-4-1.2-10,0.2-9.1,5.5
				c0.3,2.1,3.4,3.2,5,3.8c3.2,1.2,6.4,1.9,9.8,2.2c14.6,1.3,28.3-5.6,42.2-8.7c7.2-1.6,15.7-2.6,22.6,0.8c4,2,7.1,6.3,3.5,10.2
				c-2.7,3-7.7,3.9-11.5,4.4c-7.5,0.9-15.2-1.1-22.3-3.1c-6.7-1.9-13.7-4.8-20.7-5c-5.1-0.1-9.9,2.9-10.8,8.1
				c-0.8,4.6,3.4,7.2,7.4,7.5c6.5,0.5,11.7-5.3,17.7-6.9c3.7-1,7.7-0.9,11.5-0.6c3.5,0.2,8.6,0.1,10.7,3.4c2.6,4.1-3.5,7.9-6.5,8.8
				c-3.8,1.2-8,0.8-11.8-0.1c-7.3-1.7-13.6-6.2-19.4-10.8c-6.3-5-12.4-10.4-19.9-13.7c-0.3-0.1-0.7,0-0.7,0.3
				c-1.3,5.8,5.4,10,9.2,13.1c5.1,4.2,10.4,8.1,16.5,10.7C43.2,43.2,55.2,41,65,33.9c4.8-3.4,8.7-7.9,12-12.8
				c2.4-3.6,7.3-10.7,3.5-14.9c-3.6-4.1-7.6-0.1-9.3,3.6c-1.2,2.7-1.7,5.9-2.5,8.8c-1.1,3.9-2.3,7.7-4.3,11.2
				c-3.1,5.7-9,10.3-15.7,9.9c-6.7-0.4-11-6.7-13.1-12.4c-1-2.7-1.6-5.7-1.4-8.6c0.2-2.5,1.8-4.8,4.6-4.2c1.9,0.4,3.3,2.5,4.3,3.9
				c2,3,3.3,6.6,4.8,9.9c1.7,3.6,3.4,7.1,5.1,10.7c0.2,0.5,0.9,0.2,0.9-0.3c0.2-9.3,0.5-19.1,5.7-27.2c0.8-1.3,4.3-5.3,5.8-1.5
				c0.4,1.1,0.3,2.4,0.4,3.6c0.1,2.4,0,4.9-0.3,7.3c-0.5,5.4-2,10.8-4.1,15.8c-0.2,0.6,0.7,0.9,1,0.3c2.6-6.3,4.1-12.9,4.4-19.7
				c0.1-3.1,0.8-11.2-4.5-9.5c-2.1,0.6-3.4,2.9-4.4,4.6c-1.5,2.5-2.5,5.4-3.3,8.3c-1.5,5.9-1.6,12-1.7,18c0.3-0.1,0.6-0.2,0.9-0.3
				c-1.7-3.6-3.4-7.1-5.1-10.7c-1.7-3.5-3.1-7.3-5.3-10.5c-2.3-3.4-7.1-5.9-9.6-1.3c-2.2,4.1,0.1,10.5,1.9,14.3
				c2.1,4.6,5.8,8.6,10.7,10c5.3,1.5,10.6-1,14.5-4.5c4.8-4.4,7-10.9,8.7-17c0.9-3.3,1.5-6.7,3-9.8c0.8-1.6,1.9-3,3.6-3.5
				c4-1.3,4.7,4.3,4.1,6.7c-0.8,3.2-3,6.3-4.8,9c-1.9,2.9-4.2,5.5-6.7,8c-8.6,8.4-20.3,12.8-32.1,9.7c-6-1.6-11.3-5-16.2-8.6
				c-2.6-1.9-5.1-4-7.6-6.1c-2.8-2.4-6.7-5.4-5.8-9.5C7,14.9,6.8,15,6.5,15.1c12.6,5.7,21.3,17.3,34,22.7c6,2.5,12.4,3.6,18.7,1.7
				c4.1-1.2,8.4-5.6,6.3-10.1c-0.9-1.9-3.3-2.7-5.2-3.2c-3.2-0.7-6.8-0.8-10-0.9c-3.3-0.1-6.6,0.3-9.8,1.3c-3.3,1.1-6.2,3.2-9.2,4.8
				c-3,1.6-6.6,2.2-9.8,0.8c-4.2-1.9-3.5-6.8-1-9.7c5.2-6.2,15.9-1.8,22.1,0.1c11.9,3.5,28.2,9.3,39.7,1.3c4.7-3.3,3.6-8.4-0.4-11.6
				C77,8.6,70.3,8.4,64.6,8.9c-14.9,1.1-28.5,8.7-43.4,9.9C17.3,19.1-2.6,18.3,1,11.1c2.2-4.4,8.5-1.5,11.8-0.4
				c3.9,1.3,7.9,2.5,11.9,3.5c7.4,1.9,15,3.3,22.6,4.2c3.8,0.5,7.6,0.8,11.4,1c3.5,0.2,7.2,0.5,10.7-0.1c4.9-0.8,10.6-3.7,11.1-9.3
				c0.5-5.4-4-8.2-8.7-9.3c-7.1-1.8-15-1.1-22.2-0.7c-8.1,0.4-16.2,1-24.4,1.5c-3.9,0.2-7.8,0.5-11.7,0.7c-2.2,0.1-4.7,0.3-6.3,2.1
				c-0.9,1-0.8,2.8,0.1,3.7c1.7,2,4.3,2.4,6.8,2.8c16.3,2.6,32.9,2.1,49.1-1.1c2-0.4,15.7-2.1,13.2-6.9c-1.2-2.3-4.4-2.5-6.7-2.9
				C66-0.8,62.3-0.5,58.6,0.2c-0.6,0.1-0.4,1,0.1,1c4.7,0.1,9.4,0.1,14.1,0.2C73.5,1.4,73.5,0.4,72.8,0.4L72.8,0.4z"/>
		</g>
	</g>
</g>
</svg>
