<?xml version="1.0" encoding="utf-8"?>
<!-- Generator: Adobe Illustrator 18.0.0, SVG Export Plug-In . SVG Version: 6.00 Build 0)  -->
<!DOCTYPE svg PUBLIC "-//W3C//DTD SVG 1.1//EN" "http://www.w3.org/Graphics/SVG/1.1/DTD/svg11.dtd">
<svg version="1.1" id="Layer_1" xmlns="http://www.w3.org/2000/svg" xmlns:xlink="http://www.w3.org/1999/xlink" x="0px" y="0px"
	 viewBox="0 0 76.3 83.7" enable-background="new 0 0 76.3 83.7" xml:space="preserve">
<g>
	<g>
		<g>
			<path fill="#EDEDEC" d="M51,19.5c-5.4,5.9-11.1,11.7-17,17.2c0.2,0.2,0.5,0.5,0.7,0.7c5.5-6.1,11.5-11.7,17.8-16.9
				c0.4-0.3,0-1-0.5-0.8c-3.3,1.2-6.6,2.5-9.9,3.7c-1.8,0.7-3.6,1.3-5.4,2c-0.9,0.3-1.8,0.7-2.7,1c-0.3,0.1-0.6,0.2-0.9,0.3
				c-0.6,0.3-1.3,0.2-1.9-0.3c7-3.1,14.4-5.3,21.9-6.6c0.5-0.1,0.5-0.8,0-1C46,16.9,37,18.2,32,11.7c-0.1,0.3-0.1,0.6-0.2,0.8
				c6.2-1.7,12,1.2,17.3,4.1c0.4,0.2,1-0.2,0.7-0.7c-2.4-3.8-3.7-8-4-12.5c0.4,0.1,0.7,0.1,1.1,0.2c0.5,0.6,0.9,1.2,1.1,1.9
				c0.5,1.2,0.9,2.4,1.3,3.6c0.9,2.4,1.7,4.8,2.6,7.2c0.1,0.4,0.9,0.5,1,0c0.8-5.6,3.1-10.7,6.9-14.9c1.6-1.9,1.1,2.5,0.9,3.2
				c-0.4,1.4-1.3,2.7-2.1,3.9c-1.8,2.8-3.6,5.6-5.5,8.4c-0.3,0.4,0.2,0.8,0.6,0.7c2.9-0.7,5.8-1.3,8.7-2c2.9-0.7,6-1.8,9-1.1
				c1.7,0.4,2.1,1.5,1.2,3.3c-0.8,0.6-2,1-2.9,1.3c-1.4,0.6-2.9,1-4.3,1.4c-3.2,0.9-6.5,1.3-9.8,1.3c-0.5,0-0.6,0.6-0.3,0.9
				c5.2,4,7.9,10.6,7,17.1c-0.1,0.4-0.3,2.9-1.6,1.8c-0.7-0.6-1.2-2.5-1.6-3.5c-0.6-1.7-1.1-3.4-1.6-5.1c-1-3.7-1.6-7.5-2-11.3
				c-0.1-0.6-1-0.7-1,0c-0.1,3.9-0.7,7.8-1.7,11.6c-0.8,3.2-1.9,7.3-4.8,9.3c-2.8,1.9-1.1-3.6-0.9-4.6c0.5-1.8,1.1-3.6,1.7-5.3
				c1.4-4.1,2.9-8.1,4.6-12c0.3-0.6-0.6-1.1-0.9-0.5c-2.1,4.9-4,9.8-5.6,14.9c-0.3,0.9-3.6,9-0.5,9c3.1,0,4.9-3.8,5.9-6.2
				c2-5.1,2.9-10.7,3.1-16.2c-0.3,0-0.7,0-1,0c0.5,5.1,1.5,10.1,3,15c0.2,0.7,2.6,8.7,4.8,5.9c2.1-2.8,1.1-8.2,0.2-11.3
				c-1.1-3.8-3.6-7.1-6.7-9.5c-0.1,0.3-0.2,0.6-0.3,0.9c4.3-0.1,8.6-0.8,12.7-2.2c1.8-0.6,6.9-1.8,6.2-4.7c-0.7-2.6-4.1-3-6.3-2.7
				c-4.9,0.7-9.8,2.1-14.7,3.2c0.2,0.2,0.4,0.5,0.6,0.7c2.4-3.6,5.1-7.2,7.1-11.1c1.2-2.2,1.6-4.8-0.1-6.8c-0.2-0.2-0.5-0.2-0.7,0
				c-4.5,4.5-7.4,10.2-8.3,16.5c0.3,0,0.6,0,1,0c-1.4-3.8-2.6-7.7-4.1-11.4C48,3.2,46.8,1.9,45,2.1c-0.2,0-0.4,0.3-0.4,0.5
				c0.2,5,1.6,9.7,4.2,13.9c0.2-0.2,0.5-0.5,0.7-0.7c-5.5-3-11.7-6-18.1-4.2c-0.4,0.1-0.4,0.5-0.2,0.8c5.2,6.6,14.3,5.3,21.6,7.3
				c0-0.3,0-0.6,0-1c-7.9,1.4-15.6,3.8-23,7.1c-0.2,0.1-0.3,0.4-0.2,0.6c0.9,3.1,5.7,0.4,7.3-0.2c5.1-1.9,10.2-3.8,15.3-5.7
				c-0.2-0.3-0.3-0.6-0.5-0.8C45.5,24.9,39.5,30.6,34,36.6c-0.4,0.5,0.2,1.1,0.7,0.7c5.9-5.5,11.5-11.2,17-17.2
				C52.1,19.7,51.4,19,51,19.5L51,19.5z"/>
		</g>
	</g>
	<g>
		<g>
			<path fill="#EDEDEC" d="M26.5,66.2c0.3-0.2,0.6-0.4,0.9-0.5c-0.2-0.2-0.5-0.4-0.7-0.6c-1.2,4.4-3.6,8.1-7.2,10.9
				c0.3,0.2,0.5,0.4,0.8,0.6c1.9-3.9,3.9-7.7,6.1-11.5c0.3-0.5-0.4-1-0.8-0.6c-3.2,2.9-7.2,4.3-11.5,4.3c-0.9,0-4.2-0.1-0.8-1.3
				c1.2-0.4,2.4-0.8,3.5-1.1c2.3-0.6,4.8-1,7.2-1.3c0.6-0.1,0.7-0.8,0.1-1c-4.9-1.6-8.9-5.2-10.9-10.1c-0.2,0.2-0.4,0.4-0.6,0.6
				c4.4,1.6,7.8,4.8,11,8.1c0.3,0.3,1,0,0.8-0.5c-1.1-3.6-1-7.1,0.5-10.6c-0.3,0-0.6,0-0.9,0c1.8,3.9,2.4,8,1.8,12.3
				c-0.1,0.5,0.6,0.9,0.9,0.4c1.7-3.2,4-5.9,7-8c1.7-1.2,2.3,1.6,1.3,2.8c-0.6,0.7-1.2,1.3-1.8,1.9c-1.6,1.6-3.4,3.1-5.3,4.4
				c-0.4,0.3-0.3,0.9,0.3,0.9c4.1-0.1,7.7,1.3,10.6,4.2c1.2,1.2,0.2,1.6-1.1,1.7c-1.2,0.1-2.5-0.4-3.6-1c-1.9-0.9-3.3-2.7-4.6-4.2
				c-0.4-0.4-1,0.1-0.8,0.6c2.4,4.3,3.5,9,3.6,13.9c0.3-0.1,0.6-0.2,0.9-0.3c-2.4-4.9-4-10-4.9-15.3c-0.1-0.6-1.1-0.4-1,0.3
				c0.9,5.4,2.6,10.6,5,15.6c0.2,0.5,0.9,0.2,0.9-0.3c0-5.1-1.3-9.9-3.7-14.4c-0.3,0.2-0.5,0.4-0.8,0.6c2.1,2.3,4.1,4.4,7.2,5.3
				c0.9,0.2,4.9,0.5,4.9-1.1c0-1.9-3-3.6-4.4-4.5c-2.4-1.5-5.4-2.1-8.2-2.1c0.1,0.3,0.2,0.6,0.3,0.9c2.7-1.9,5.1-4,7.3-6.5
				c1-1.2,2.8-3.3,1.2-4.9c-1.5-1.5-3.9,0.6-5.1,1.5c-2.5,2.1-4.5,4.5-6,7.3c0.3,0.1,0.6,0.3,0.9,0.4c0.6-4.5,0-8.9-1.9-13
				c-0.1-0.3-0.7-0.3-0.9,0c-1.6,3.7-1.8,7.5-0.6,11.3c0.3-0.2,0.6-0.3,0.8-0.5c-3.4-3.4-6.8-6.7-11.4-8.4c-0.3-0.1-0.8,0.3-0.6,0.6
				c2.2,5.2,6.3,9,11.6,10.8c0-0.3,0.1-0.7,0.1-1c-3.4,0.4-6.8,1.1-10.1,2.1c-1.4,0.5-3.6,1-3.3,2.9c0,0.2,0.2,0.3,0.3,0.3
				c5.6,1.1,11.2-0.4,15.4-4.2c-0.3-0.2-0.5-0.4-0.8-0.6c-2.2,3.8-4.2,7.6-6.1,11.5c-0.3,0.5,0.3,1,0.8,0.6
				c3.7-2.9,6.3-6.8,7.5-11.4c0.1-0.4-0.4-0.8-0.7-0.6c-0.3,0.2-0.6,0.4-0.9,0.5C25.5,65.6,26,66.5,26.5,66.2L26.5,66.2z"/>
		</g>
	</g>
	<g>
		<g>
			<path fill="#EDEDEC" d="M12.7,22.9c-0.2,0.4-7.5-4.4-8.1-4.8c-0.1,0.3-0.2,0.6-0.3,0.9c1.8-0.1,4.2,1.4,5.8,2.1
				c1.5,0.6,3,1.3,4.4,1.9c0.5,0.2,1.1-0.4,0.6-0.8c-2.2-2.1-5.4-5.4-2.8-8.5c-0.3-0.1-0.6-0.1-0.8-0.2c1,2.8,1.8,5.6,2.3,8.5
				c0.1,0.4,0.7,0.5,0.9,0.1c1.2-2.7,2.4-5.4,5.2-6.8c-0.2-0.1-0.5-0.1-0.7-0.2c1.9,3.4-1.8,5.6-4.3,6.9c-0.3,0.1-0.3,0.4-0.2,0.7
				c0.3,0.7,0.7,0.9,1.5,1.1c2.4,0.7,4.1,1.2,5.5,3.6c0.1-0.3,0.3-0.5,0.4-0.8c-2.5-0.1-4.7-1-6.6-2.7c-0.4-0.4-0.9,0-0.8,0.5
				c0.3,2.3,0.5,4.5,0.5,6.8c0.3,0,0.7-0.1,1-0.1c-0.7-2.5-1.5-5-2.2-7.5c-0.1-0.4-0.7-0.5-0.9-0.1c-1.6,3.3-3.6,6.9-7.7,7.3
				c0.1,0.3,0.2,0.6,0.4,0.9c2.3-2.6,4.7-5.2,7.2-7.6c0.3-0.3,0-1-0.5-0.8c-4,1.6-8.1,3.1-12.4,1.7c0,0.3,0,0.6,0,1
				c3.6-1.5,7.3-2.4,11.2-2.8c0.6-0.1,0.6-1.1,0-1c-4,0.4-7.8,1.3-11.4,2.8c-0.4,0.2-0.5,0.8,0,1c4.4,1.4,8.8-0.1,13-1.7
				c-0.2-0.3-0.3-0.6-0.5-0.8c-2.5,2.4-4.9,5-7.2,7.6C4.9,31.4,5,32,5.5,32c4.5-0.4,6.7-4.1,8.5-7.8c-0.3,0-0.6-0.1-0.9-0.1
				c0.7,2.5,1.5,5,2.2,7.5c0.2,0.5,1,0.4,1-0.1c0-2.4-0.2-4.7-0.5-7.1c-0.3,0.2-0.6,0.3-0.8,0.5c2.1,1.9,4.5,2.9,7.3,3
				c0.4,0,0.6-0.4,0.4-0.8c-0.7-1.2-1.5-2.1-2.7-2.9c-1-0.7-3.9-0.8-4.4-1.9c-0.1,0.2-0.1,0.5-0.2,0.7c3.1-1.6,6.8-4.4,4.7-8.3
				c-0.1-0.2-0.4-0.3-0.7-0.2c-2.9,1.5-4.3,4.3-5.5,7.2c0.3,0,0.6,0.1,0.9,0.1c-0.5-2.9-1.2-5.7-2.3-8.5c-0.1-0.3-0.6-0.5-0.8-0.2
				c-3,3.5,0.1,7.4,2.8,9.9c0.2-0.3,0.4-0.5,0.6-0.8c-2.1-0.9-4.1-1.8-6.2-2.7C7.4,18.8,6,17.9,4.3,18c-0.5,0-0.7,0.6-0.3,0.9
				c1.2,0.8,8.4,6.7,9.5,4.5C13.8,22.9,13,22.4,12.7,22.9L12.7,22.9z"/>
		</g>
	</g>
</g>
</svg>
