<?xml version="1.0" encoding="utf-8"?>
<!-- Generator: Adobe Illustrator 18.0.0, SVG Export Plug-In . SVG Version: 6.00 Build 0)  -->
<!DOCTYPE svg PUBLIC "-//W3C//DTD SVG 1.1//EN" "http://www.w3.org/Graphics/SVG/1.1/DTD/svg11.dtd">
<svg version="1.1" id="Layer_1" xmlns="http://www.w3.org/2000/svg" xmlns:xlink="http://www.w3.org/1999/xlink" x="0px" y="0px"
	 viewBox="0 0 63.2 87.5" enable-background="new 0 0 63.2 87.5" xml:space="preserve">
<path class='rabbit-logo-path' fill="none" stroke="#4DBFAA" stroke-width="0.875" stroke-linecap="round" stroke-linejoin="round" stroke-miterlimit="10" d="
	M7.5,12.9c-2.4,1.6,3.8,9.2,8.2,12.9C14.6,20.1,10.2,10.9,7.5,12.9z"/>
<path class='rabbit-logo-path' fill="none" stroke="#4DBFAA" stroke-width="0.875" stroke-linecap="round" stroke-linejoin="round" stroke-miterlimit="10" d="
	M47.5,44.3c4,9.2-3.1,16.7-4.1,11c-0.6-3.7,0.6-10,3.5-13c-0.4-2.8,0.1-9.6,1.4-16.6C40.8,32.3,32.6,42,32,42.4
	c-0.6-0.4-8.8-10.1-16.4-16.6c1.3,7,1.8,13.9,1.4,16.6c2.6,3.7,4.2,8,3.5,12.9c-0.9,5.7-8.1-1.8-4-11c-3.2,7-6.7,8-7.8,13.9
	c-1.1,5.9,0.4,15.2,13.2,21.4c5.2,2.5,8.3,5.1,10,7.4c0,0,0,0.1,0,0.1c0,0,0,0,0,0c0,0,0,0,0,0c0,0,0-0.1,0-0.1
	c1.8-2.3,4.8-4.9,10-7.4c12.8-6.2,14.4-15.5,13.2-21.4C54.2,52.3,50.7,51.4,47.5,44.3z"/>
<path class='rabbit-logo-path' fill="none" stroke="#4DBFAA" stroke-width="0.875" stroke-linecap="round" stroke-linejoin="round" stroke-miterlimit="10" d="
	M32,68.3c0,0-7.5-3.5-5,0c2.5,3.5,5,3.6,5,8.9c0-5.3,2.4-5.5,5-8.9C39.5,64.9,32,68.3,32,68.3z"/>
<path class='rabbit-logo-path' fill="none" stroke="#4DBFAA" stroke-width="0.875" stroke-linecap="round" stroke-linejoin="round" stroke-miterlimit="10" d="
	M31.9,50.1c0,0-33.6-23.2-30.4-48.9C16.3,7.5,27.6,32.5,31.9,50.1z"/>
<path class='rabbit-logo-path' fill="none" stroke="#4DBFAA" stroke-width="0.875" stroke-linecap="round" stroke-linejoin="round" stroke-miterlimit="10" d="
	M32,59.8c-4.1,0-12.3,4.6-12.1,12.9c0.2,8.3,8.2,8.2,12,14.5c0,0,0-3.4,0-7.9c0,4.6,0,7.9,0,7.9c3.8-6.2,11.8-6.2,12-14.5
	C44.3,64.4,36.1,59.8,32,59.8z"/>
<path class='rabbit-logo-path' fill="none" stroke="#4DBFAA" stroke-width="0.875" stroke-linecap="round" stroke-linejoin="round" stroke-miterlimit="10" d="
	M31.9,50.1c0,0-3.2,8.3,0,8.3S31.9,50.1,31.9,50.1z"/>
<path class='rabbit-logo-path' fill="none" stroke="#4DBFAA" stroke-width="0.875" stroke-linecap="round" stroke-linejoin="round" stroke-miterlimit="10" d="
	M54.5,56.4c-7.7,0-3.9,17-3.9,17c-13.9-21-3.8-31.1-3.8-31.1"/>
<path class='rabbit-logo-path' fill="none" stroke="#4DBFAA" stroke-width="0.875" stroke-linecap="round" stroke-linejoin="round" stroke-miterlimit="10" d="
	M9.5,56.4c7.7,0,3.9,17,3.9,17c13.9-21,3.8-31.1,3.8-31.1"/>
<path class='rabbit-logo-path' fill="none" stroke="#4DBFAA" stroke-width="0.875" stroke-linecap="round" stroke-linejoin="round" stroke-miterlimit="10" d="
	M32,59.8c0,0,0,8.6,0,26.8"/>
<circle fill="#4DBFAA" cx="24.2" cy="70.3" r="0.6"/>
<circle fill="#4DBFAA" cx="26.8" cy="74.1" r="0.6"/>
<circle fill="#4DBFAA" cx="23.1" cy="74.1" r="0.6"/>
<circle fill="#4DBFAA" cx="39.1" cy="70.3" r="0.6"/>
<circle fill="#4DBFAA" cx="36.5" cy="74.1" r="0.6"/>
<circle fill="#4DBFAA" cx="40.2" cy="74.1" r="0.6"/>
<path class='rabbit-logo-path' fill="none" stroke="#4DBFAA" stroke-width="0.875" stroke-linecap="round" stroke-linejoin="round" stroke-miterlimit="10" d="
	M44.8,45.7c0,0,3.4,0.8,3.4,7.6"/>
<path class='rabbit-logo-path' fill="none" stroke="#4DBFAA" stroke-width="0.875" stroke-linecap="round" stroke-linejoin="round" stroke-miterlimit="10" d="
	M19.2,45.7c0,0-3.4,0.8-3.4,7.6"/>
<path class='rabbit-logo-path' fill="none" stroke="#4DBFAA" stroke-width="0.875" stroke-linecap="round" stroke-linejoin="round" stroke-miterlimit="10" d="
	M32.1,50.1c5.6,0,11,8.1,12.8,12c0,0,4,10.5-3.6,17.9"/>
<path class='rabbit-logo-path' fill="none" stroke="#4DBFAA" stroke-width="0.875" stroke-linecap="round" stroke-linejoin="round" stroke-miterlimit="10" d="
	M32,50.1c-5.6,0-11,8.1-12.8,12c0,0-4,10.5,3.6,17.9"/>
<path class='rabbit-logo-path' fill="none" stroke="#4DBFAA" stroke-width="0.875" stroke-linecap="round" stroke-linejoin="round" stroke-miterlimit="10" d="
	M15.6,25.8c0,0,6.6,13.6,16.2,23.8"/>
<path class='rabbit-logo-path' fill="none" stroke="#4DBFAA" stroke-width="0.875" stroke-linecap="round" stroke-linejoin="round" stroke-miterlimit="10" d="
	M56.6,12.9c2.4,1.6-3.8,9.2-8.2,12.9C49.4,20.1,53.8,10.9,56.6,12.9z"/>
<path class='rabbit-logo-path' fill="none" stroke="#4DBFAA" stroke-width="0.875" stroke-linecap="round" stroke-linejoin="round" stroke-miterlimit="10" d="
	M32.1,50.1c0,0,33.6-23.2,30.4-48.9C47.8,7.5,36.4,32.5,32.1,50.1z"/>
<path class='rabbit-logo-path' fill="none" stroke="#4DBFAA" stroke-width="0.875" stroke-linecap="round" stroke-linejoin="round" stroke-miterlimit="10" d="
	M48.4,25.8c0,0-6.6,13.6-16.2,23.8"/>
<path class='rabbit-logo-path' fill="none" stroke="#4DBFAA" stroke-width="0.875" stroke-linecap="round" stroke-linejoin="round" stroke-miterlimit="10" d="
	M28.4,38.5c0,0-15-27.1-26.9-37.2"/>
<path class='rabbit-logo-path' fill="none" stroke="#4DBFAA" stroke-width="0.875" stroke-linecap="round" stroke-linejoin="round" stroke-miterlimit="10" d="
	M35.6,38.5c0,0,15-27.1,26.9-37.2"/>
</svg>
