<?xml version="1.0" encoding="utf-8"?>
<!-- Generator: Adobe Illustrator 18.0.0, SVG Export Plug-In . SVG Version: 6.00 Build 0)  -->
<!DOCTYPE svg PUBLIC "-//W3C//DTD SVG 1.1//EN" "http://www.w3.org/Graphics/SVG/1.1/DTD/svg11.dtd">
<svg version="1.1" id="Layer_1" xmlns="http://www.w3.org/2000/svg" xmlns:xlink="http://www.w3.org/1999/xlink" x="0px" y="0px"
	 viewBox="4.3 0 156.3 89.2" enable-background="new 4.3 0 156.3 89.2" xml:space="preserve">
<g>
	
		<path fill="none" stroke="#FFFFFF" stroke-width="1.5998" stroke-linecap="round" stroke-linejoin="round" stroke-miterlimit="10" d="
		M47.9,36.3c0,0-1.3-8.5-6.7-0.8c-2.3,3.3-3.4,8.4,1.5,8.4c4.8,0,12.3-11.1,8.2-11.1s-5.1,11.6,1.3,11S77.1,6.1,69,6.1
		s-12.8,36.5-8.6,37.7S68.9,33,65.6,33s-3.3,8,3.1,5.3c6.9-2.9,22.7-32.2,14.7-32.2S68.7,44,73.6,43.9c4.6,0,9-13.5,4.4-11
		c-4.1,2.2,0.1,10.8,6.8,5.9c2.2-1.6,4.2-5.1,4.8-6.3c-1.2,3.1-2.1,16.1,3.6,11.2s24.7-37.6,15.6-37.6s1.9,68.4,30.2,68.4"/>
	
		<path fill="none" stroke="#FFFFFF" stroke-width="1.5998" stroke-linecap="round" stroke-linejoin="round" stroke-miterlimit="10" d="
		M5,34c0,0,0.4,11.5,10.4,10s21.7-20.6,17.8-22.5c-3.9-1.8-8.5,13.4,3.3,11.8c-4.7,1.4-6.4,12.6,2.7,9.7"/>
	
		<line fill="none" stroke="#FFFFFF" stroke-width="1.5998" stroke-linecap="round" stroke-linejoin="round" stroke-miterlimit="10" x1="90.9" y1="23.8" x2="138.9" y2="23.8"/>
</g>
</svg>
