<?xml version="1.0" encoding="utf-8"?>
<!-- Generator: Adobe Illustrator 18.0.0, SVG Export Plug-In . SVG Version: 6.00 Build 0)  -->
<!DOCTYPE svg PUBLIC "-//W3C//DTD SVG 1.1//EN" "http://www.w3.org/Graphics/SVG/1.1/DTD/svg11.dtd">
<svg version="1.1" id="Layer_1" xmlns="http://www.w3.org/2000/svg" xmlns:xlink="http://www.w3.org/1999/xlink" x="0px" y="0px"
	 viewBox="0 0 86 62.5" enable-background="new 0 0 86 62.5" xml:space="preserve">
<g>
	<g>
		<g>
			<path fill="#EDEDEC" d="M1.9,8.8c12.4-5.5,25.9-9.4,39.5-8c7.1,0.7,13.7,3.8,20.8,4c3,0.1,6,0.1,9,0.4c4.3,0.4,8.2,2.5,11.9,4.7
				c2.4,1.4-0.6,3-1.9,3.9c-1.5,1-3.1,1.8-4.8,2.4c-1.7,0.6-3.5,0.9-5.3,1.1c-1.3,0.1-2.5-0.1-3.6-0.6c-2.8-1.2-1.5-5.8,1.5-4.5
				c4.1,1.7,0.9,8.9-0.2,11.7c-1.5,3.8-3.6,7.4-5.6,10.9c-3.9,6.9-7.9,13.7-12.3,20.3c-1.1,1.6-2.1,3.2-3.4,4.6
				c-0.8,0.9-1.8,1.5-3,1.6c-0.5-1.1-1-2.2-1.4-3.2c0.5-0.4,1-0.8,1.5-1.1c2.5-1.6,4.7-2.9,6.7-5.3c3.3-4,4.6-9.4,3.8-14.5
				c-0.5-3.3-4.1-9-8.1-5.8c-3.5,2.9,0.8,6.9,4.3,6.1c3.3-0.7,6.1-2.5,9.5-2.7c1.7-0.1,3.4,0.3,4.8,1.2c1.5,0.8,2.3,2.5,3.5,3.7
				c1.7,1.8,4.1,0.5,6-0.2c1.8-0.7,3.7-1.4,5.5-2c1.1-0.4,2.6-0.8,3.3-1.7c1.1-1.4,0.8-3-0.1-4.4c-1.1-1.7-3.1-1.9-5-1.6
				c-2.5,0.5-4.2,2.9-5.7,4.8c-4.1,5-8.3-1.5-10.6-4.8c-3.6-5.3-8-8.5-14.3-10.1c-5.8-1.5-12.3-1.6-17.8,0.9
				c-4.7,2.1-8,7.1-7.9,12.3c0.1,5.3,5,8.9,9.6,10.5c5.3,1.9,10.9,0.4,14.1-4.3c3.3-5,2.9-13.2,1.4-18.7c-1.7-5.9-8.7-8.9-14.2-9.7
				C29,10,23,10.8,21.2,15.4c-0.7,1.9,1.1,3.9,3.1,3.4c1.7-0.4,3-1.4,4.5-2.3c2.2-1.3,4.5-2.3,6.8-3.1c4.2-1.5,8.7-2.3,13.2-2.4
				c4.9-0.1,9.6,0.6,14.4-0.4c0.6-0.1,0.4-1-0.1-1c-6.5-0.1-12.6-2-18.8-3.5C39.1,4.9,33.7,4,28.3,4C18.8,3.9,9.4,7.1,0,8.2
				c-0.6,0.1-0.6,1.1,0,1c9.2-1.1,18.3-4,27.6-4.2c12.2-0.3,23.4,5.5,35.5,5.7c0-0.3-0.1-0.7-0.1-1c-4.1,0.8-8.1,0.5-12.3,0.4
				c-3.5-0.1-7,0.3-10.5,1c-3.1,0.7-6.1,1.7-9,3.1c-1.5,0.7-3,1.6-4.5,2.4c-0.7,0.4-5.6,3.5-4.6-0.9c0.3-1.3,1.6-2.3,2.6-3
				c3.1-1.9,7.4-1.5,10.8-0.7c4.1,0.9,8.2,3.4,10.4,7c1.9,3.3,1.7,8.3,1.5,12c-0.2,4.3-1.8,8.6-5.7,10.9c-6.6,4-17.5-1.6-18.3-9.1
				c-0.8-8.3,8-12.7,14.9-13.2c7.2-0.5,15.5,1.6,20.5,6.9c3.2,3.4,6.2,11.9,12,10.9c2.3-0.4,3.8-3.4,5.3-5c1.7-1.7,4.4-2.7,6.4-1
				c0.9,0.8,1.3,2.2,0.8,3.3c-0.5,1.2-3.7,1.9-4.9,2.4c-1.8,0.7-3.7,1.4-5.5,2c-2.5,0.9-3.5-0.6-4.8-2.3c-1.6-1.9-3.6-2.8-6-3.1
				c-2.4-0.3-4.9,0.4-7.1,1.3c-2.2,1-4.5,2.1-6.9,0.8c-2-1-1.6-3.5,0.4-4.3c1.7-0.7,3.3,0.5,4.2,1.8c2,2.7,1.8,6.8,1.3,9.9
				c-0.6,3.4-2.4,6.5-4.8,9c-2,2.1-4.7,2.9-6.8,4.8c-1.4,1.2-1.2,3.1,0.1,4.3c4.2,3.6,8.8-5.2,10.4-7.6c4.4-6.5,8.3-13.4,12.2-20.2
				c3.1-5.4,7.5-12.4,6.9-18.9c-0.1-1.7-1.3-3.5-3-3.9c-1.5-0.4-3.5,0-3.9,1.7c-1.4,5.7,5.8,5.9,9.5,5.1c2.9-0.6,5.6-2,8-3.7
				c1.4-1,3.6-2.3,2.8-4.2c-0.4-0.8-2.3-1.5-3-1.9c-1.5-0.9-3.1-1.6-4.7-2.3C74.3,4.5,71,4.1,67.6,4c-2.7-0.1-5.7,0.1-8.5-0.3
				c-4.5-0.7-8.8-2.4-13.3-3.3C34.3-1.9,22.2,0.3,11.1,4.1C7.8,5.2,4.6,6.6,1.4,8C0.8,8.2,1.3,9.1,1.9,8.8L1.9,8.8z"/>
		</g>
	</g>
	<g>
		<g>
			<path fill="#EDEDEC" d="M20.5,17.5c-1.6,0.9-2.4,2.2-3.1,3.9c0.3,0,0.5-0.1,0.8-0.1c-2.3-2.2-6.9-1.9-7.8,1.7
				c-1.1,4.4,4.7,3.4,7.1,2.1c-0.2-0.3-0.4-0.5-0.6-0.8c-2.9,3.3-1.8,8.6-0.6,12.4c1.5,5,4.7,9,9.5,11.3c4,1.9,9.9,3.5,14.3,2.7
				c4.7-0.8,8-4.2,10.5-8.1c0.4-0.5-0.5-1-0.9-0.5c-2.2,3.4-5,6.4-9,7.5c-4.1,1.1-9.2-0.5-13.1-1.9c-4.7-1.7-7.9-5.1-9.8-9.6
				c-1.5-3.6-3-9.8-0.2-13c0.4-0.4-0.1-1.1-0.6-0.8c-0.7,0.4-7.2,2.7-5.4-1.4c1.1-2.5,4.2-2.4,5.9-0.8c0.2,0.2,0.7,0.2,0.8-0.1
				c0.6-1.5,1.3-2.7,2.7-3.5C21.5,18.1,21,17.2,20.5,17.5L20.5,17.5z"/>
		</g>
	</g>
</g>
</svg>
