<?xml version="1.0" encoding="utf-8"?>
<!-- Generator: Adobe Illustrator 18.0.0, SVG Export Plug-In . SVG Version: 6.00 Build 0)  -->
<!DOCTYPE svg PUBLIC "-//W3C//DTD SVG 1.1//EN" "http://www.w3.org/Graphics/SVG/1.1/DTD/svg11.dtd">
<svg version="1.1" id="Layer_1" xmlns="http://www.w3.org/2000/svg" xmlns:xlink="http://www.w3.org/1999/xlink" x="0px" y="0px"
	 viewBox="0 0 612 463" enable-background="new 0 0 612 463" xml:space="preserve">
<g>
	<g>
		<g>
			<path class='set-the-pace' fill="none" stroke="#FFFFFF" stroke-width="10" stroke-linecap="round" stroke-linejoin="round" stroke-miterlimit="10" d="M22.8,66.2c60.9-27.1,125.6-47.4,192.3-52.9c26.5-2.2,53.3-1.9,79.7,1.1c26.8,3,52.5,9.8,78.4,16.8
				c10.8,2.9,21.6,5.8,32.5,8.4c5.2,1.2,10.4,2.4,15.7,3.1c7.1,0.9,14.3,0.1,21.5,0.5c15.9,0.7,31.9,0.9,47.8,1.7
				c18.7,0.9,36.5,4.6,53.9,11.7c16.7,6.8,32.4,15.9,47.9,25c1.8,1,3.5,2.2,4.7,3.9c1.9,2.6,0.1,5.4-1.7,7.4c-2.7,3-5.9,5.8-9,8.4
				c-6.2,5.4-13,10.2-20,14.4c-13.9,8.3-29.2,14.2-45,17.5c-15.5,3.2-34.1,5.2-48-4c-11.4-7.6-16.1-27.9-2.3-35.6
				c6.1-3.4,13.7-1.7,19.4,1.5c6.8,3.8,10.9,10.3,12.7,17.7c2.2,8.7,0.9,18-1,26.6c-1.9,8.6-4.5,17-7.4,25.3
				c-5.9,17.1-13.6,33.6-21.9,49.7c-16.7,32.4-35.6,63.8-54.1,95.2c-18.9,32-38.4,63.7-59.6,94.2c-5,7.3-10,14.7-15.7,21.4
				c-5,6-11.3,11.5-19,13.5c-6.5,1.7-14-0.1-19-4.4c-5.5-4.8-5.8-12.5-2.2-18.5c3.6-6,10.2-10,16.1-13.3c6-3.4,12.1-6.5,17.8-10.4
				c11-7.6,20.6-17.3,28.5-28.1c16.1-22,24.9-49.4,24.4-76.7c-0.3-13.6-2.8-27.7-9.1-39.9c-5.7-11.1-15.9-20.3-29-20
				c-9.9,0.2-21.3,6.5-22.4,17.3c-1.3,12.7,10.1,21.8,21.3,24.5c15.7,3.9,31.8-5.4,45.8-11.2c13.4-5.5,27.9-8.3,42.4-7.3
				c14.3,1,28.1,6.6,37.6,17.6c8.1,9.3,14.7,23.6,29.2,22.3c3.9-0.3,7.7-1.9,11.4-3.2c4.7-1.7,9.4-3.5,14.1-5.2
				c9-3.3,18.1-6.6,27.1-10c7.9-2.9,16.3-5.3,23.8-9.2c5.2-2.7,9.1-7,10.3-12.7c2.3-10.4-4.8-21.4-13.4-26.6
				c-11.9-7.2-27.1-2-37.5,5.3c-12.2,8.5-19,21.8-29.8,31.7c-5.6,5.2-12.6,8.5-20.4,7.8c-8.7-0.8-16.3-6.8-22.4-12.5
				c-23.3-21.8-35.2-52.8-59.6-73.6c-23.8-20.3-54.9-30.2-85.3-35.1c-31.7-5.1-65.4-5.1-95.5,7.1c-26.2,10.7-47.2,31.9-55.7,59.1
				c-3.9,12.6-4.5,26.3-1,39.1c3.7,13.7,12.4,25.5,22.9,34.8c21.7,19.1,53.6,30.2,82.4,26.3c14.8-2,28.4-8.1,39.2-18.6
				c10.6-10.3,17.5-23.8,21.7-37.8c5.2-17.3,5.7-35.7,5-53.6c-0.6-17.2-1.3-35.1-6.9-51.5c-5.1-14.9-15.6-26.7-27.9-36.1
				c-12.8-9.8-27.5-17-42.9-21.8c-15.4-4.8-31.7-6.8-47.9-6.1c-13.5,0.6-27.1,3.5-38.8,10.4c-5.2,3.1-9.8,7.1-13.4,12
				c-3.5,4.8-7.1,12.3-5.8,18.5c1.2,5.8,5.8,9.3,11.4,10.8c6.8,1.8,13.6-0.9,19.5-4.1c7.5-4.1,14.6-9,22-13.1
				c7.5-4.1,15.2-7.9,23.1-11.4c16-7.1,32.7-12.6,49.6-16.7c17-4.1,34.4-6.6,51.8-7.6c18.3-1,36.6,0.1,54.9,0.6
				c18.5,0.5,37.2,0.2,55.4-4c0.6-0.1,0.4-1-0.1-1c-37.1-0.1-73.1-9.9-108.8-19.1c-33.2-8.5-66.8-15.8-101-18.8
				c-24.7-2.2-49.5-1.6-74.1,1.7c-24,3.2-47.7,8.7-71.4,13.3c-26.8,5.2-53.8,9.5-80.9,12.5c0,0.3,0.1,0.7,0.1,1
				c25.7-5.6,51.3-11.1,77-16.7c26.4-5.7,53-10.7,79.2-17.4c11.6-3,23.7-5.7,35.8-5.7c5.7,0,13.3,0.6,16.9,5.7
				c3.2,4.5,1.3,10.9-0.5,15.5c-3.2,8.2-8.4,15.7-13.6,22.8c-10.7,14.7-23,28.3-35.4,41.6c-3.6,3.9-7.3,7.8-11,11.6
				c-1.8,1.9-3.9,5-6.3,6.2c-1.8,0.9-3.5,2-5,3.2c-7.3,5.7-11.3,14-14.7,22.4c0.3-0.1,0.6-0.1,0.8-0.2c-6.8-7.2-16.6-10.4-26.3-9
				c-9.6,1.4-18.2,8.6-21.9,17.5c-1.8,4.4-3.2,9.7-1.1,14.3c1.9,4.2,7.4,5.4,11.4,6c11.7,1.8,23.8-1.1,33.7-7.4
				c-0.2-0.3-0.4-0.5-0.6-0.8c-10.4,10.4-11.5,25.9-11.1,39.7c0.6,17.8,4.3,35.5,10.6,52.1c5.7,15,13.8,29.3,24.7,41.2
				c10.5,11.5,23.9,20,38,26.3c14.3,6.3,29.6,10.4,44.9,13.5c17.2,3.5,35.1,6.6,52.6,3.7c29.8-4.9,52-29,67.5-53.2
				c0.2-0.3,0.3-0.5,0.5-0.8c0.3-0.5-0.5-1-0.9-0.5c-16.9,26.6-41,51.3-74,54.3c-18,1.6-36.5-2.4-54-6.4
				c-15.8-3.6-31.3-8.5-45.6-16.1c-12.4-6.5-23.4-15.3-32.4-26.1c-9.8-11.9-16.9-26-22.1-40.4c-5.5-15.3-8.5-31.5-9.1-47.8
				c-0.5-13.6,0.7-28.9,10.8-39c0.4-0.4-0.1-1.1-0.6-0.8c-8.7,5.5-18.8,8.1-29.1,7.7c-4.6-0.2-9.8-0.9-13.3-4.2
				c-4.2-3.9-1.8-11.5,0.2-15.9c3.7-8.1,11.3-14.1,20-16c9.5-2,19.7,1.7,26.2,8.6c0.3,0.3,0.7,0.1,0.8-0.2
				c2.7-6.7,5.8-13.3,10.8-18.6c2.1-2.2,4.5-4.1,7.1-5.6c3.1-1.9,5.3-4.5,7.8-7.1c9.8-10.2,19.4-20.6,28.6-31.3
				c7.4-8.6,14.6-17.4,21.1-26.7c4.5-6.5,8.9-13.5,11.4-21.1c10.9-33.6-50.6-14.7-63.3-11.9C127.4,47,96.2,53.7,65.1,60.5
				c-17.9,3.9-35.8,7.8-53.8,11.7c-0.5,0.1-0.4,1,0.1,1c30.9-3.4,61.6-8.6,92.1-14.7c23.4-4.7,46.8-9.8,70.6-12.4
				c26-2.8,52.1-2.1,77.9,1c35.9,4.3,70.8,13.3,105.8,22.2c29.4,7.5,59.3,14.1,89.8,14.1c0-0.3-0.1-0.7-0.1-1
				c-36.5,8.4-74.1,1.3-111.1,3.4c-33.7,1.9-67,9.9-98.1,23.1c-15.9,6.7-30.6,15.3-45.3,24.2c-7.2,4.4-15.3,7.8-23.6,4.8
				c-3.6-1.3-6.7-4-8-7.7c-1.7-4.6,0.2-9.9,2.1-14.1C169.4,103.3,183,96,196,92.2c15.2-4.4,31.8-4.3,47.3-2.2
				c16.6,2.2,32.7,7.6,47.5,15.5c14.6,7.8,28.6,18.4,37.8,32.4c9.9,15,11.9,33.4,13.1,51c1.3,19,1.9,38.3-1.6,57.1
				c-2.9,15.8-9.3,31.2-19.7,43.5c-10.3,12.3-24.6,19.9-40.3,22.6c-30.7,5.2-65.2-7.4-87.4-28.7c-10.8-10.3-18.5-23.7-21-38.5
				c-2.3-14.3,0.7-29,6.7-42.1c6-13.1,15.2-24.5,26.4-33.5c12.7-10.2,28.2-16.6,44-20.3c32.1-7.6,67.1-4.2,98.8,3.9
				c15.6,4,30.8,9.9,44.7,18.1c14.2,8.4,26,19.5,36.1,32.5c9.5,12.4,17.5,25.8,27.1,38.2c8.8,11.3,20.4,25,35.3,27.5
				c13.8,2.3,24.1-9,31.8-18.7c9.9-12.3,20.3-24.6,36.4-28.5c7.3-1.7,14.9-1,21.3,3.1c5.4,3.5,9.4,9.1,11.2,15.2
				c1.9,6.1,0.8,12.6-3.5,17.4c-2.9,3.1-6.9,5-10.7,6.5c-4.4,1.8-8.8,3.3-13.2,4.9c-9,3.3-18.1,6.6-27.1,10
				c-8.8,3.2-17.6,7-26.6,9.6c-17.2,4.9-24.6-12.7-34.2-23c-18.8-20.2-51.1-19-75.1-10.4c-15.5,5.6-31.5,16.3-48.7,13
				c-13.3-2.6-27.6-16.4-18.9-30.4c7.2-11.6,24.4-11.9,34.7-4.9c12.7,8.6,17.7,25.1,20,39.4c4.6,28.2-2.3,57.6-16.9,81.9
				c-7.3,12.1-16.6,22.9-27.6,31.8c-5.6,4.5-11.6,8.5-17.9,11.8c-5.8,3.1-11.6,6.2-16.7,10.4c-4.1,3.4-8.1,8.1-8.7,13.6
				c-0.6,5.5,1.6,10.4,5.9,13.8c10,7.9,23.2,4.1,32-3.4c5.8-4.9,10.2-11.2,14.5-17.2c5.4-7.5,10.7-15.2,15.9-22.9
				c10.4-15.4,20.4-31.1,30.2-46.9c19.4-31.5,37.9-63.6,56.3-95.7c17.6-30.6,34.5-62,44.8-95.9c4.4-14.6,9.4-32.3,2.9-47
				c-4.6-10.4-16.2-18-27.7-15.6c-12.1,2.5-15,16.2-11.4,26.4c4.8,13.3,18.8,18.3,31.8,19c15.4,0.9,31.4-2.8,45.9-7.9
				c14.5-5.1,28.2-12.6,40.3-22c5.7-4.5,12.4-9.4,16.6-15.4c4.1-5.9-3.6-9.9-7.7-12.3c-15.1-8.7-30.2-17.3-46.4-23.9
				c-16.7-6.8-34-10.3-52-11.3c-16.2-0.9-32.4-0.9-48.6-1.7c-7.2-0.4-14.4,0.4-21.6-0.5c-5.4-0.6-10.8-1.9-16.1-3.2
				c-11-2.6-22-5.6-33-8.5c-13.7-3.7-27.3-7.6-41.2-10.6c-11.9-2.5-23.9-4.5-35.9-5.9c-26.4-3.1-53.1-3.4-79.6-1.3
				C150.7,17.3,87.4,36.9,27.6,62.9c-1.8,0.8-3.6,1.6-5.3,2.4C21.7,65.6,22.2,66.4,22.8,66.2L22.8,66.2z"/>
		</g>
	</g>
</g>
</svg>
