<?xml version="1.0" standalone="no"?>
<!DOCTYPE svg PUBLIC "-//W3C//DTD SVG 1.1//EN" "http://www.w3.org/Graphics/SVG/1.1/DTD/svg11.dtd">
<svg xmlns="http://www.w3.org/2000/svg"><metadata>This SVG WebFont was generated by YouWorkForThem.
Copyright 2009 Reserves. http://www.reservesca.com Administration Contact: info@reservesca.</metadata><defs><font horiz-adv-x="1361" id="ywftsvg"><font-face ascent="1638" bbox="-300 -435 2405 2141" cap-height="1562" descent="-410" font-family="" font-stretch="normal" font-weight="400" panose-1="2 0 5 9 0 0 0 2 0 4" underline-position="0" underline-thickness="0" unicode-range="U+0020-FB06" units-per-em="2048" x-height="1562"/><missing-glyph d="M209 0v1562h944v-1562h-944zM266 57h830v1447h-830v-1447z"/><glyph d="M134 0l1066 1562h810v-119h-691v-603h524v-119h-524v-602h691v-119h-810v444h-622l-304 -444h-140zM658 563h542v793z" glyph-name="AE" horiz-adv-x="2270" unicode="AE"/><glyph d="M134 0l1066 1562h810v-119h-691v-603h524v-119h-524v-602h691v-119h-810v444h-622l-304 -444h-140zM658 563h542v793z" glyph-name="ae" horiz-adv-x="2270" unicode="ae"/><glyph d="M186 475v611q0 196 137 336t329 140h58q121 0 209.5 -54.5t137.5 -131.5v186h810v-119h-691v-603h524v-119h-524v-602h691v-119h-810v185q-49 -77 -138 -131t-209 -54h-58q-193 0 -329.5 139.5t-136.5 335.5zM305 475q0 -147 102 -251.5t245 -104.5h58q143 0 245 104.5 t102 251.5v611q0 147 -102 252t-245 105h-58q-143 0 -245 -104.5t-102 -252.5v-611z" glyph-name="OE" horiz-adv-x="2126" unicode="OE"/><glyph d="M186 475v611q0 196 137 336t329 140h58q121 0 209.5 -54.5t137.5 -131.5v186h810v-119h-691v-603h524v-119h-524v-602h691v-119h-810v185q-49 -77 -138 -131t-209 -54h-58q-193 0 -329.5 139.5t-136.5 335.5zM305 475q0 -147 102 -251.5t245 -104.5h58q143 0 245 104.5 t102 251.5v611q0 147 -102 252t-245 105h-58q-143 0 -245 -104.5t-102 -252.5v-611z" glyph-name="oe" horiz-adv-x="2126" unicode="oe"/><glyph d="M134 0l1066 1562h810v-119h-691v-603h524v-119h-524v-602h691v-119h-810v444h-622l-304 -444h-140zM658 563h542v793zM1391 1680l156 266h122l-169 -266h-109z" glyph-name="AEacute" horiz-adv-x="2270" unicode="AÉ"/><glyph d="M134 0l1066 1562h810v-119h-691v-603h524v-119h-524v-602h691v-119h-810v444h-622l-304 -444h-140zM658 563h542v793zM1391 1680l156 266h122l-169 -266h-109z" glyph-name="aeacute" horiz-adv-x="2270" unicode="aé"/><glyph d="M292 0v1562h1770v-119h-691v-603h524v-119h-524v-721h-119v1443h-841v-603h524v-119h-524v-721h-119z" glyph-name="uniFB00" horiz-adv-x="2322" unicode="ff"/><glyph d="M292 0v1562h1583v-119h-257v-1324h257v-119h-633v119h257v1324h-1088v-603h524v-119h-524v-721h-119z" glyph-name="uniFB01" horiz-adv-x="2239" unicode="fi"/><glyph d="M292 0v1562h1088v-1443h681v-119h-799v1443h-851v-603h524v-119h-524v-721h-119z" glyph-name="uniFB02" horiz-adv-x="2322" unicode="fl"/><glyph d="M215 165l82 89q6 -5 18.5 -14.5t51.5 -33t80 -41t103 -32t124 -14.5q69 0 130 15.5t112.5 45.5t81.5 82.5t30 120.5q0 46 -15.5 87t-35.5 68t-56.5 56t-61.5 44t-68 39l-261 143q-147 81 -211.5 167.5t-64.5 194.5q0 164 123 272t313 108h1578v-119h-434v-1443h-119v1443 h-1028q-137 0 -225.5 -75.5t-88.5 -181.5q0 -84 55.5 -144.5t149.5 -112.5l262 -145q155 -85 231 -175t76 -226q0 -81 -28 -147t-75 -109t-109.5 -72t-128 -42t-133.5 -13q-75 0 -149 17t-127.5 41.5t-96 48.5t-63.5 40z" glyph-name="uniFB06" horiz-adv-x="2455" unicode="st"/><glyph d="M622 0v1443h-435v119h1930v-119h-435v-1443h-118v1443h-824v-1443h-118z" glyph-name="T_T.liga" horiz-adv-x="2304" unicode="TT"/><glyph d="M622 0v1443h-435v119h1930v-119h-435v-1443h-118v1443h-824v-1443h-118z" glyph-name="t_t.liga" horiz-adv-x="2304" unicode="tt"/><glyph d="M622 0v1443h-435v119h1323v-722h707v722h119v-1562h-119v721h-707v-721h-118v1443h-652v-1443h-118z" glyph-name="T_H.liga" horiz-adv-x="2544" unicode="TH"/><glyph d="M622 0v1443h-435v119h1323v-722h707v722h119v-1562h-119v721h-707v-721h-118v1443h-652v-1443h-118z" glyph-name="t_h.liga" horiz-adv-x="2544" unicode="th"/><glyph d="M209 475v611q0 128 62.5 238t170 174t233.5 64h1447v-119h-434v-1443h-119v1443h-894q-142 0 -244.5 -105t-102.5 -253v-609q0 -147 102 -252t245 -105h417v-119h-417q-126 0 -233.5 64t-170 173.5t-62.5 237.5z" glyph-name="C_T.liga" horiz-adv-x="2309" unicode="CT"/><glyph d="M209 475v611q0 128 62.5 238t170 174t233.5 64h1447v-119h-434v-1443h-119v1443h-894q-142 0 -244.5 -105t-102.5 -253v-609q0 -147 102 -252t245 -105h417v-119h-417q-126 0 -233.5 64t-170 173.5t-62.5 237.5z" glyph-name="c_t.liga" horiz-adv-x="2309" unicode="ct"/><glyph d="M215 165l82 89q6 -5 18.5 -14.5t51.5 -33t80 -41t103 -32t124 -14.5q69 0 130 15.5t112.5 45.5t81.5 82.5t30 120.5q0 46 -15.5 87t-35.5 68t-56.5 56t-61.5 44t-68 39l-261 143q-147 81 -211.5 167.5t-64.5 194.5q0 164 123 272t313 108h1578v-119h-434v-1443h-119v1443 h-1028q-137 0 -225.5 -75.5t-88.5 -181.5q0 -84 55.5 -144.5t149.5 -112.5l262 -145q155 -85 231 -175t76 -226q0 -81 -28 -147t-75 -109t-109.5 -72t-128 -42t-133.5 -13q-75 0 -149 17t-127.5 41.5t-96 48.5t-63.5 40z" glyph-name="S_T.liga" horiz-adv-x="2455" unicode="ST"/><glyph d="M292 0v1562h1088v-1443h681v-119h-799v1443h-851v-603h524v-119h-524v-721h-119z" glyph-name="F_L.liga" horiz-adv-x="2322" unicode="FL"/><glyph d="M292 0v1562h1770v-119h-691v-603h524v-119h-524v-721h-119v1443h-841v-603h524v-119h-524v-721h-119z" glyph-name="F_F.liga" horiz-adv-x="2322" unicode="FF"/><glyph d="M292 0v1562h1583v-119h-257v-1324h257v-119h-633v119h257v1324h-1088v-603h524v-119h-524v-721h-119z" glyph-name="F_I.liga" horiz-adv-x="2239" unicode="FI"/><glyph d="M241 0v1562h1093v-722h707v722h119v-1562h-119v721h-707v-721h-119v1443h-856v-603h525v-119h-525v-721h-118z" glyph-name="F_H.liga" horiz-adv-x="2401" unicode="FH"/><glyph d="M241 0v1562h1093v-722h707v722h119v-1562h-119v721h-707v-721h-119v1443h-856v-603h525v-119h-525v-721h-118z" glyph-name="f_h.liga" horiz-adv-x="2401" unicode="fh"/><glyph d="M292 0v1562h1555v-1087q0 -196 -136.5 -335.5t-328.5 -139.5h-297v119h297q142 0 244.5 104.5t102.5 251.5v968h-1318v-603h524v-119h-524v-721h-119z" glyph-name="F_J.liga" horiz-adv-x="2165" unicode="FJ"/><glyph d="M292 0v1562h1555v-1087q0 -196 -136.5 -335.5t-328.5 -139.5h-297v119h297q142 0 244.5 104.5t102.5 251.5v968h-1318v-603h524v-119h-524v-721h-119z" glyph-name="f_j.liga" horiz-adv-x="2165" unicode="fj"/><glyph d="M292 0v1562h1832v-119h-434v-1443h-119v1443h-1160v-603h524v-119h-524v-721h-119z" glyph-name="F_T.liga" horiz-adv-x="2311" unicode="FT"/><glyph d="M292 0v1562h1832v-119h-434v-1443h-119v1443h-1160v-603h524v-119h-524v-721h-119z" glyph-name="f_t.liga" horiz-adv-x="2311" unicode="ft"/><glyph d="M209 0v1562h944v-1562h-944zM266 57h830v1447h-830v-1447z" glyph-name=".notdef"/><glyph glyph-name="glyph1" horiz-adv-x="0"/><glyph glyph-name="glyph2" horiz-adv-x="681"/><glyph glyph-name="space" unicode=" "/><glyph d="M632 389l-14 1173h125l-13 -1173h-98zM604 0v155h154v-155h-154z" glyph-name="exclam" unicode="!"/><glyph d="M811 1013v549h119v-549h-119zM432 1013v549h119v-549h-119z" glyph-name="quotedbl" unicode="&quot;"/><glyph d="M213 0l58 370h-234v118h253l93 585h-233v119h251l59 370h119l-59 -370h445l58 370h119l-59 -370h242v-119h-260l-93 -585h240v-118h-259l-58 -370h-119l59 370h-445l-58 -370h-119zM409 488h444l93 585h-444z" glyph-name="numbersign" unicode="#"/><glyph d="M215 165l82 89q6 -5 18.5 -14.5t51.5 -33t80 -41t103 -32t124 -14.5q69 0 130 15.5t112.5 45.5t81.5 82.5t30 120.5q0 46 -15.5 87t-35.5 68t-56.5 56t-61.5 44t-68 39l-261 143q-147 81 -211.5 167.5t-64.5 194.5q0 148 102 251.5t267 124.5v224h118v-222 q63 -6 124.5 -25t102.5 -43t72.5 -46.5t46.5 -37.5l15 -15l-82 -84q-5 5 -14.5 14t-41 32t-67.5 41t-92.5 32.5t-117.5 14.5q-137 0 -225.5 -75.5t-88.5 -181.5q0 -84 55.5 -144.5t149.5 -112.5l262 -145q155 -85 231 -175t76 -226q0 -73 -23 -134t-61.5 -103t-91 -73 t-110 -47.5t-120.5 -22.5v-223h-118v222q-68 5 -134.5 24t-113.5 41.5t-84.5 45t-57.5 37.5z" glyph-name="dollar" unicode="$"/><glyph d="M190 0l866 1562h115l-865 -1562h-116zM390 978q-121 0 -206.5 85.5t-85.5 206.5t85.5 206.5t206.5 85.5t206.5 -85.5t85.5 -206.5t-85.5 -206.5t-206.5 -85.5zM390 1090q75 0 127.5 52.5t52.5 127.5t-52.5 127.5t-127.5 52.5t-127.5 -52.5t-52.5 -127.5t52.5 -127.5 t127.5 -52.5zM680 292q0 121 85.5 206.5t206.5 85.5t206.5 -85.5t85.5 -206.5t-85.5 -206.5t-206.5 -85.5t-206.5 85.5t-85.5 206.5zM792 292q0 -75 52.5 -127.5t127.5 -52.5t127.5 52.5t52.5 127.5t-52.5 127.5t-127.5 52.5t-127.5 -52.5t-52.5 -127.5z" glyph-name="percent" unicode="%"/><glyph d="M1141 0l-141 170q-205 -170 -453 -170q-73 0 -143 15.5t-133.5 48.5t-111 79.5t-76 114.5t-28.5 146q0 112 54 202.5t154 175.5l135 115l-26 32q-131 156 -131 310q0 139 86 231t225 92q127 0 209 -74.5t82 -197.5q0 -162 -155 -294l-134 -113l454 -548q164 196 164 480 h111q0 -342 -203 -567l205 -248h-144zM483 968l134 112q56 48 85 95.5t29 107.5q0 76 -47 123.5t-129 47.5q-88 0 -145.5 -58.5t-57.5 -152.5q0 -75 27 -128t80 -118zM469 811l-135 -114q-167 -140 -167 -289q0 -93 55.5 -162t140 -101.5t184.5 -32.5q212 0 382 143z" glyph-name="ampersand" unicode="&amp;"/><glyph d="M622 1013v549h118v-549h-118z" glyph-name="quotesingle" unicode="'"/><glyph d="M435 207v1147q0 96 36 182.5t99.5 151t156 102.5t200.5 38v-119q-167 0 -270 -102.5t-103 -252.5v-1147q0 -151 103 -253t270 -102v-119q-108 0 -200.5 37t-156 102t-99.5 151.5t-36 183.5z" glyph-name="parenleft" unicode="("/><glyph d="M927 1354v-1147q0 -97 -36 -183.5t-99.5 -151.5t-156 -102t-200.5 -37v119q167 0 270 102t103 253v1147q0 151 -103 253t-270 102v119q108 0 200.5 -38t156 -102.5t99.5 -151t36 -182.5z" glyph-name="parenright" unicode=")"/><glyph d="M501 1046l-73 53l176 243l-260 85l29 86l263 -86v281h90v-280l263 85l29 -86l-261 -85l177 -243l-73 -53l-180 248z" glyph-name="asterisk" unicode="*"/><glyph d="M622 366v355h-356v119h356v355h118v-355h356v-119h-356v-355h-118z" glyph-name="plus" unicode="+"/><glyph d="M604 154h159l-70 -342h-89v342z" glyph-name="comma" unicode=","/><glyph d="M389 721v119h584v-119h-584z" glyph-name="hyphen" unicode="-"/><glyph d="M604 0v154h154v-154h-154z" glyph-name="period" unicode="."/><glyph d="M181 0l866 1562h134l-866 -1562h-134z" glyph-name="slash" unicode="/"/><glyph d="M186 475v611q0 196 137 336t329 140h58q193 0 329.5 -140t136.5 -336v-611q0 -196 -137 -335.5t-329 -139.5h-58q-193 0 -329.5 139.5t-136.5 335.5zM305 475q0 -147 102 -251.5t245 -104.5h58q143 0 245 104.5t102 251.5v611q0 147 -102 252t-245 105h-58 q-143 0 -245 -104.5t-102 -252.5v-611z" glyph-name="zero" unicode="0"/><glyph d="M238 0v119h384v1277l-192 -193l-83 83l275 276h118v-1443h384v-119h-886z" glyph-name="one" unicode="1"/><glyph d="M250 0v169l629 738q99 116 99 242q0 125 -87.5 209.5t-219.5 84.5q-130 0 -216 -93.5t-86 -225.5h-119q0 188 121.5 313t299.5 125q179 0 302.5 -118t123.5 -295q0 -169 -126 -315l-602 -707v-8h772v-119h-891z" glyph-name="two" unicode="2"/><glyph d="M180 354h122q28 -103 113 -169t194 -66h127q131 0 224.5 93t93.5 224v36q0 131 -93.5 224.5t-224.5 93.5h-136v118h128q103 0 177 74t74 177v33q0 103 -74 177t-177 74h-111q-87 0 -155 -54.5t-88 -136.5h-122q22 132 125.5 221t239.5 89h111q153 0 261.5 -108.5 t108.5 -261.5v-33q0 -60 -19 -113.5t-45.5 -86t-53.5 -56.5t-46 -35l-19 -10q5 -2 14.5 -5t36 -17.5t51 -32.5t54.5 -50t51 -69.5t35.5 -93t14.5 -118.5v-36q0 -180 -128 -308t-308 -128h-127q-159 0 -279 100.5t-150 253.5z" glyph-name="three" unicode="3"/><glyph d="M161 446v134l717 982h133v-997h173v-119h-173v-446h-119v446h-731zM284 565h608v828z" glyph-name="four" unicode="4"/><glyph d="M206 354h123q28 -102 113 -168.5t194 -66.5h90q131 0 224.5 93.5t93.5 224.5v124q0 134 -93.5 226t-224.5 92h-453l65 683h728v-119h-625l-42 -446h327q181 0 309 -128t128 -308v-124q0 -180 -128 -308.5t-309 -128.5h-90q-159 0 -279.5 100.5t-150.5 253.5z" glyph-name="five" unicode="5"/><glyph d="M209 421v402q0 168 56.5 307.5t156 233.5t239.5 146t306 52h49v-119h-49q-141 0 -254 -37t-183.5 -96.5t-117 -139.5t-65.5 -161.5t-19 -168.5q4 6 11.5 16.5t35.5 38t61 48.5t87.5 37.5t113.5 16.5h99q175 0 301 -123t126 -297v-156q0 -175 -126 -298t-301 -123h-100 q-175 0 -301 123t-126 298zM328 421q0 -124 91 -213t218 -89h98q127 0 218 89t91 213v156q0 126 -91 214t-218 88h-98q-127 0 -218 -88.5t-91 -213.5v-156z" glyph-name="six" unicode="6"/><glyph d="M433 0l579 1443h-775v119h905v-119l-579 -1443h-130z" glyph-name="seven" unicode="7"/><glyph d="M179 436v36q0 86 26.5 157.5t64 112t75.5 69t65 37.5l26 10q-7 3 -19.5 10.5t-44 34t-55.5 57.5t-43.5 85t-19.5 114v33q0 153 108.5 261.5t261.5 108.5h114q153 0 261.5 -108.5t108.5 -261.5v-33q0 -60 -19 -113.5t-45.5 -86t-53 -56.5t-46.5 -35l-18 -10q5 -2 14 -5 t35.5 -17.5t51.5 -32.5t54.5 -50t50.5 -69.5t36 -93t15 -118.5v-36q0 -180 -128 -308t-309 -128h-131q-180 0 -308 128t-128 308zM624 908h114q103 0 177 74t74 177v33q0 103 -73.5 177t-177.5 74h-114q-103 0 -177 -74t-74 -177v-33q0 -103 74 -177t177 -74zM298 436 q0 -131 93 -224t224 -93h131q131 0 224.5 93t93.5 224v36q0 131 -93 224.5t-225 93.5h-131q-131 0 -224 -93.5t-93 -224.5v-36z" glyph-name="eight" unicode="8"/><glyph d="M1153 1141v-403q0 -168 -56.5 -307t-156 -233.5t-239.5 -146t-306 -51.5h-49v119h49q141 0 254 37t183.5 96t117 139.5t65.5 162t19 168.5q-4 -6 -11.5 -17t-36 -38t-61 -48t-87 -38t-113.5 -17h-99q-175 0 -301 123.5t-126 297.5v156q0 175 126 298t301 123h100 q175 0 301 -123t126 -298zM1034 1141q0 124 -91 213t-218 89h-98q-127 0 -218.5 -89t-91.5 -213v-156q0 -126 91.5 -214t218.5 -88h98q127 0 218 88t91 214v156z" glyph-name="nine" unicode="9"/><glyph d="M604 0v154h154v-154h-154zM604 889v153h154v-153h-154z" glyph-name="colon" unicode=":"/><glyph d="M604 889v153h154v-153h-154zM604 154h159l-70 -342h-89v342z" glyph-name="semicolon" unicode=";"/><glyph d="M162 721v119l1038 363v-126l-854 -297l854 -297v-126z" glyph-name="less" unicode="&lt;"/><glyph d="M266 537v118h830v-118h-830zM266 905v119h830v-119h-830z" glyph-name="equal" unicode="="/><glyph d="M1200 840v-119l-1038 -364v126l854 297l-854 297v126z" glyph-name="greater" unicode=">"/><glyph d="M622 358v233l332 333q81 81 81 203q0 130 -103.5 223t-251.5 93q-153 0 -255 -94.5t-102 -246.5h-119q0 135 65.5 241.5t173.5 162.5t237 56q125 0 233 -55.5t174.5 -157t66.5 -225.5q0 -80 -29.5 -154.5t-85.5 -128.5l-299 -299v-184h-118zM604 0v154h154v-154h-154z " glyph-name="question" unicode="?"/><glyph d="M1171 352l77 -50q-4 -6 -12.5 -18t-37.5 -44t-61 -62t-83.5 -66t-105.5 -62t-125.5 -44t-145.5 -18q-125 0 -231.5 49.5t-183.5 139.5t-120 223.5t-43 293.5q0 147 36 283.5t100 243.5t148.5 187t186.5 123t208 43q74 0 141.5 -20.5t129.5 -67.5t107 -117.5t71.5 -177 t26.5 -238.5q0 -260 -91.5 -416.5t-213.5 -156.5q-34 0 -59.5 13.5t-37.5 32t-20.5 37.5t-10.5 33l-1 13q-29 -55 -71 -90t-76 -46t-67 -11q-39 0 -74.5 18t-68 55.5t-52 105t-19.5 156.5q0 113 31 212t79.5 162.5t106 99.5t112.5 36q67 0 108.5 -46.5t53.5 -102.5l19 125 h95l-91 -573q-4 -34 -4 -57q0 -84 55 -84q72 0 137.5 132t65.5 346q0 138 -29.5 243t-83 167t-120.5 93t-148 31q-127 0 -238 -67.5t-186 -178t-118.5 -252t-43.5 -289.5q0 -173 57 -311t168.5 -220t261.5 -82q62 0 123.5 15t108.5 39t90.5 53t73.5 57.5t52 53t33 39.5z M625 453q52 0 96 41.5t71 106.5t41.5 139t14.5 145q0 103 -32 165.5t-93 62.5q-60 0 -115 -58.5t-89 -156t-34 -205.5q0 -109 35.5 -174.5t104.5 -65.5z" glyph-name="at" unicode="@"/><glyph d="M128 0l481 1562h144l481 -1562h-122l-141 461h-581l-140 -461h-122zM427 580h508l-254 831z" glyph-name="A" unicode="A"/><glyph d="M209 0v1562h485q169 0 294 -124.5t125 -292.5q0 -122 -60.5 -215.5t-155.5 -141.5q108 -42 176 -138t68 -230q0 -174 -122 -297t-297 -123h-513zM328 840h366q125 0 212.5 87.5t87.5 212.5q0 124 -86.5 213.5t-213.5 89.5h-366v-603zM328 119h394q125 0 212.5 87.5 t87.5 211.5t-86 213.5t-214 89.5h-394v-602z" glyph-name="B" unicode="B"/><glyph d="M209 475v611q0 128 62.5 238t170 174t233.5 64h417v-119h-417q-142 0 -244.5 -105t-102.5 -253v-609q0 -147 102 -252t245 -105h417v-119h-417q-126 0 -233.5 64t-170 173.5t-62.5 237.5z" glyph-name="C" unicode="C"/><glyph d="M209 0v1562h478q126 0 233.5 -64t170 -174t62.5 -238v-611q0 -128 -62.5 -237.5t-170 -173.5t-233.5 -64h-478zM328 119h359q142 0 244.5 105.5t102.5 251.5v609q0 146 -102.5 252t-244.5 106h-359v-1324z" glyph-name="D" unicode="D"/><glyph d="M292 0v1562h810v-119h-691v-603h524v-119h-524v-602h691v-119h-810z" glyph-name="E" unicode="E"/><glyph d="M292 0v1562h810v-119h-691v-603h524v-119h-524v-721h-119z" glyph-name="F" unicode="F"/><glyph d="M209 475v611q0 128 62.5 238t170 174t233.5 64h425v-119h-425q-143 0 -245 -104.5t-102 -252.5v-611q0 -147 101.5 -251.5t245.5 -104.5h267q41 0 66.5 25t25.5 66v511h-244v119h363v-630q0 -89 -60.5 -149.5t-150.5 -60.5h-267q-193 0 -329.5 139.5t-136.5 335.5z" glyph-name="G" unicode="G"/><glyph d="M209 0v1562h119v-722h706v722h119v-1562h-119v721h-706v-721h-119z" glyph-name="H" unicode="H"/><glyph d="M365 0v119h257v1324h-257v119h632v-119h-257v-1324h257v-119h-632z" glyph-name="I" unicode="I"/><glyph d="M282 0v119h297q142 0 244 104.5t102 251.5v1087h118v-1087q0 -196 -136.5 -335.5t-327.5 -139.5h-297z" glyph-name="J" unicode="J"/><glyph d="M196 0v1562h118v-794l666 794h153l-552 -663l633 -899h-148l-565 803l-187 -222v-581h-118z" glyph-name="K" unicode="K"/><glyph d="M301 0v1562h119v-1443h681v-119h-800z" glyph-name="L" unicode="L"/><glyph d="M174 0v1562h159l348 -667l348 667h159v-1562h-119v1394l-335 -640h-106l-335 640v-1394h-119z" glyph-name="M" unicode="M"/><glyph d="M249 0v1562h119l577 -1209q9 -20 19 -43t15.5 -38.5t9.5 -28.5l5 -14v1333h119v-1562h-119l-577 1208q-9 20 -19 43.5t-15.5 39t-9.5 28.5l-5 13v-1332h-119z" glyph-name="N" unicode="N"/><glyph d="M186 475v611q0 196 137 336t329 140h58q193 0 329.5 -140t136.5 -336v-611q0 -196 -137 -335.5t-329 -139.5h-58q-193 0 -329.5 139.5t-136.5 335.5zM305 475q0 -147 102 -251.5t245 -104.5h58q143 0 245 104.5t102 251.5v611q0 147 -102 252t-245 105h-58 q-143 0 -245 -104.5t-102 -252.5v-611z" glyph-name="O" unicode="O"/><glyph d="M219 0v1562h505q175 0 301 -122.5t126 -297.5q0 -174 -126.5 -297.5t-300.5 -123.5h-386v-721h-119zM338 840h386q127 0 217.5 88t90.5 214q0 125 -91 213t-217 88h-386v-603z" glyph-name="P" unicode="P"/><glyph d="M186 475v611q0 128 62.5 238t170 174t233.5 64h58q126 0 233.5 -64t170 -174t62.5 -238v-611q0 -148 -83 -270l206 -205h-169l-116 116q-130 -116 -304 -116h-58q-193 0 -329.5 139.5t-136.5 335.5zM305 475q0 -147 102 -251.5t245 -104.5h58q143 0 245 104.5t102 251.5 v589q0 158 -98 268.5t-249 110.5h-58q-152 0 -249.5 -110.5t-97.5 -268.5v-589z" glyph-name="Q" unicode="Q"/><glyph d="M231 0v1562h503q115 0 212.5 -55.5t156 -153t58.5 -211.5q0 -151 -95.5 -264t-240.5 -144l360 -734h-132l-355 721h-348v-721h-119zM350 840h384q127 0 217.5 88.5t90.5 213.5q0 124 -90 212.5t-218 88.5h-384v-603z" glyph-name="R" unicode="R"/><glyph d="M215 165l82 89q6 -5 18.5 -14.5t51.5 -33t80 -41t103 -32t124 -14.5q69 0 130 15.5t112.5 45.5t81.5 82.5t30 120.5q0 46 -15.5 87t-35.5 68t-56.5 56t-61.5 44t-68 39l-261 143q-147 81 -211.5 167.5t-64.5 194.5q0 164 123 272t313 108q73 0 142 -17.5t116 -42.5 t83 -50t53 -42l18 -17l-82 -84q-5 5 -14.5 14t-41 32t-67.5 41t-92.5 32.5t-117.5 14.5q-137 0 -225.5 -75.5t-88.5 -181.5q0 -84 55.5 -144.5t149.5 -112.5l262 -145q155 -85 231 -175t76 -226q0 -81 -28 -147t-75 -109t-109.5 -72t-128 -42t-133.5 -13q-75 0 -149 17 t-127.5 41.5t-96 48.5t-63.5 40z" glyph-name="S" unicode="S"/><glyph d="M622 0v1443h-435v119h988v-119h-435v-1443h-118z" glyph-name="T" unicode="T"/><glyph d="M209 475v1087h119v-1086q0 -146 102 -251.5t245 -105.5h12q142 0 244.5 105.5t102.5 251.5v1086h119v-1087q0 -128 -62.5 -237.5t-170 -173.5t-233.5 -64h-12q-126 0 -233.5 64t-170 173.5t-62.5 237.5z" glyph-name="U" unicode="U"/><glyph d="M609 0l-457 1562h121l408 -1411l408 1411h121l-457 -1562h-144z" glyph-name="V" unicode="V"/><glyph d="M174 0v1562h119v-1394l335 640h106l335 -640v1394h119v-1562h-159l-348 667l-348 -667h-159z" glyph-name="W" unicode="W"/><glyph d="M163 0l450 813l-413 749h134l347 -626l347 626h134l-413 -749l450 -813h-135l-383 691l-383 -691h-135z" glyph-name="X" unicode="X"/><glyph d="M622 0v659l-500 903h135l424 -763l424 763h135l-500 -903v-659h-118z" glyph-name="Y" unicode="Y"/><glyph d="M238 0v118l752 1325h-727v119h861v-118l-753 -1325h753v-119h-886z" glyph-name="Z" unicode="Z"/><glyph d="M504 -267v2095h354v-119h-235v-1857h235v-119h-354z" glyph-name="bracketleft" unicode="["/><glyph d="M315 1562l866 -1562h-134l-866 1562h134z" glyph-name="backslash" unicode="\"/><glyph d="M858 1828v-2095h-354v119h235v1857h-235v119h354z" glyph-name="bracketright" unicode="]"/><glyph d="M371 1013l261 549h98l261 -549h-121l-189 398l-189 -398h-121z" glyph-name="asciicircum" unicode="^"/><glyph d="M234 0v119h893v-119h-893z" glyph-name="underscore" unicode="_"/><glyph d="M705 1680l-169 266h121l157 -266h-109z" glyph-name="grave" unicode="`"/><glyph d="M128 0l481 1562h144l481 -1562h-122l-141 461h-581l-140 -461h-122zM427 580h508l-254 831z" glyph-name="a" unicode="a"/><glyph d="M209 0v1562h485q169 0 294 -124.5t125 -292.5q0 -122 -60.5 -215.5t-155.5 -141.5q108 -42 176 -138t68 -230q0 -174 -122 -297t-297 -123h-513zM328 840h366q125 0 212.5 87.5t87.5 212.5q0 124 -86.5 213.5t-213.5 89.5h-366v-603zM328 119h394q125 0 212.5 87.5 t87.5 211.5t-86 213.5t-214 89.5h-394v-602z" glyph-name="b" unicode="b"/><glyph d="M209 475v611q0 128 62.5 238t170 174t233.5 64h417v-119h-417q-142 0 -244.5 -105t-102.5 -253v-609q0 -147 102 -252t245 -105h417v-119h-417q-126 0 -233.5 64t-170 173.5t-62.5 237.5z" glyph-name="c" unicode="c"/><glyph d="M209 0v1562h478q126 0 233.5 -64t170 -174t62.5 -238v-611q0 -128 -62.5 -237.5t-170 -173.5t-233.5 -64h-478zM328 119h359q142 0 244.5 105.5t102.5 251.5v609q0 146 -102.5 252t-244.5 106h-359v-1324z" glyph-name="d" unicode="d"/><glyph d="M292 0v1562h810v-119h-691v-603h524v-119h-524v-602h691v-119h-810z" glyph-name="e" unicode="e"/><glyph d="M292 0v1562h810v-119h-691v-603h524v-119h-524v-721h-119z" glyph-name="f" unicode="f"/><glyph d="M209 475v611q0 128 62.5 238t170 174t233.5 64h425v-119h-425q-143 0 -245 -104.5t-102 -252.5v-611q0 -147 101.5 -251.5t245.5 -104.5h267q41 0 66.5 25t25.5 66v511h-244v119h363v-630q0 -89 -60.5 -149.5t-150.5 -60.5h-267q-193 0 -329.5 139.5t-136.5 335.5z" glyph-name="g" unicode="g"/><glyph d="M209 0v1562h119v-722h706v722h119v-1562h-119v721h-706v-721h-119z" glyph-name="h" unicode="h"/><glyph d="M365 0v119h257v1324h-257v119h632v-119h-257v-1324h257v-119h-632z" glyph-name="i" unicode="i"/><glyph d="M282 0v119h297q142 0 244 104.5t102 251.5v1087h118v-1087q0 -196 -136.5 -335.5t-327.5 -139.5h-297z" glyph-name="j" unicode="j"/><glyph d="M196 0v1562h118v-794l666 794h153l-552 -663l633 -899h-148l-565 803l-187 -222v-581h-118z" glyph-name="k" unicode="k"/><glyph d="M301 0v1562h119v-1443h681v-119h-800z" glyph-name="l" unicode="l"/><glyph d="M174 0v1562h159l348 -667l348 667h159v-1562h-119v1394l-335 -640h-106l-335 640v-1394h-119z" glyph-name="m" unicode="m"/><glyph d="M249 0v1562h119l577 -1209q9 -20 19 -43t15.5 -38.5t9.5 -28.5l5 -14v1333h119v-1562h-119l-577 1208q-9 20 -19 43.5t-15.5 39t-9.5 28.5l-5 13v-1332h-119z" glyph-name="n" unicode="n"/><glyph d="M186 475v611q0 196 137 336t329 140h58q193 0 329.5 -140t136.5 -336v-611q0 -196 -137 -335.5t-329 -139.5h-58q-193 0 -329.5 139.5t-136.5 335.5zM305 475q0 -147 102 -251.5t245 -104.5h58q143 0 245 104.5t102 251.5v611q0 147 -102 252t-245 105h-58 q-143 0 -245 -104.5t-102 -252.5v-611z" glyph-name="o" unicode="o"/><glyph d="M219 0v1562h505q175 0 301 -122.5t126 -297.5q0 -174 -126.5 -297.5t-300.5 -123.5h-386v-721h-119zM338 840h386q127 0 217.5 88t90.5 214q0 125 -91 213t-217 88h-386v-603z" glyph-name="p" unicode="p"/><glyph d="M186 475v611q0 128 62.5 238t170 174t233.5 64h58q126 0 233.5 -64t170 -174t62.5 -238v-611q0 -148 -83 -270l206 -205h-169l-116 116q-130 -116 -304 -116h-58q-193 0 -329.5 139.5t-136.5 335.5zM305 475q0 -147 102 -251.5t245 -104.5h58q143 0 245 104.5t102 251.5 v589q0 158 -98 268.5t-249 110.5h-58q-152 0 -249.5 -110.5t-97.5 -268.5v-589z" glyph-name="q" unicode="q"/><glyph d="M231 0v1562h503q115 0 212.5 -55.5t156 -153t58.5 -211.5q0 -151 -95.5 -264t-240.5 -144l360 -734h-132l-355 721h-348v-721h-119zM350 840h384q127 0 217.5 88.5t90.5 213.5q0 124 -90 212.5t-218 88.5h-384v-603z" glyph-name="r" unicode="r"/><glyph d="M215 165l82 89q6 -5 18.5 -14.5t51.5 -33t80 -41t103 -32t124 -14.5q69 0 130 15.5t112.5 45.5t81.5 82.5t30 120.5q0 46 -15.5 87t-35.5 68t-56.5 56t-61.5 44t-68 39l-261 143q-147 81 -211.5 167.5t-64.5 194.5q0 164 123 272t313 108q73 0 142 -17.5t116 -42.5 t83 -50t53 -42l18 -17l-82 -84q-5 5 -14.5 14t-41 32t-67.5 41t-92.5 32.5t-117.5 14.5q-137 0 -225.5 -75.5t-88.5 -181.5q0 -84 55.5 -144.5t149.5 -112.5l262 -145q155 -85 231 -175t76 -226q0 -81 -28 -147t-75 -109t-109.5 -72t-128 -42t-133.5 -13q-75 0 -149 17 t-127.5 41.5t-96 48.5t-63.5 40z" glyph-name="s" unicode="s"/><glyph d="M622 0v1443h-435v119h988v-119h-435v-1443h-118z" glyph-name="t" unicode="t"/><glyph d="M209 475v1087h119v-1086q0 -146 102 -251.5t245 -105.5h12q142 0 244.5 105.5t102.5 251.5v1086h119v-1087q0 -128 -62.5 -237.5t-170 -173.5t-233.5 -64h-12q-126 0 -233.5 64t-170 173.5t-62.5 237.5z" glyph-name="u" unicode="u"/><glyph d="M609 0l-457 1562h121l408 -1411l408 1411h121l-457 -1562h-144z" glyph-name="v" unicode="v"/><glyph d="M174 0v1562h119v-1394l335 640h106l335 -640v1394h119v-1562h-159l-348 667l-348 -667h-159z" glyph-name="w" unicode="w"/><glyph d="M163 0l450 813l-413 749h134l347 -626l347 626h134l-413 -749l450 -813h-135l-383 691l-383 -691h-135z" glyph-name="x" unicode="x"/><glyph d="M622 0v659l-500 903h135l424 -763l424 763h135l-500 -903v-659h-118z" glyph-name="y" unicode="y"/><glyph d="M238 0v118l752 1325h-727v119h861v-118l-753 -1325h753v-119h-886z" glyph-name="z" unicode="z"/><glyph d="M550 -25v488q0 55 -11.5 100t-25.5 72t-37 49t-37.5 30t-35.5 18v96q20 10 35 18.5t38 30.5t37 48.5t25.5 71.5t11.5 101v487q0 100 71.5 171.5t172.5 71.5h164v-119h-164q-52 0 -88.5 -36.5t-36.5 -87.5v-487q0 -136 -39.5 -205.5t-116.5 -112.5q77 -43 116.5 -112 t39.5 -205v-488q0 -51 36 -87t89 -36h164v-119h-164q-100 0 -172 71t-72 171z" glyph-name="braceleft" unicode="{"/><glyph d="M622 -267v2095h118v-2095h-118z" glyph-name="bar" unicode="|"/><glyph d="M812 463v-488q0 -100 -71.5 -171t-172.5 -71h-165v119h165q52 0 88.5 36t36.5 87v488q0 136 39.5 205t116.5 112q-77 43 -116.5 112.5t-39.5 205.5v487q0 51 -36 87.5t-89 36.5h-165v119h165q100 0 172 -71t72 -172v-487q0 -55 11.5 -100.5t25.5 -72t37 -48.5t37.5 -30 t34.5 -19v-96q-20 -10 -34.5 -18t-37.5 -30t-37 -49t-25.5 -72t-11.5 -100z" glyph-name="braceright" unicode="}"/><glyph d="M234 726q3 7 8.5 18.5t27 40.5t48 51.5t72 41t97.5 18.5q65 0 136.5 -28t136.5 -56.5t114 -28.5q30 0 55 10t40.5 23.5t27 27.5t15.5 24l5 10l110 -43q-3 -7 -8 -18.5t-26.5 -41t-48 -52t-72 -40.5t-98.5 -18q-65 0 -136 28t-136 56t-115 28q-30 0 -54.5 -9.5t-40 -23.5 t-27 -28t-15.5 -24l-5 -9z" glyph-name="asciitilde" unicode="~"/><glyph glyph-name="uni00A0" unicode=" "/><glyph d="M618 0l14 1172h98l13 -1172h-125zM604 1407v155h154v-155h-154z" glyph-name="exclamdown" unicode="¡"/><glyph d="M252 635v291q0 95 36.5 182t98.5 150.5t148.5 101.5t181.5 39v269h119v-268h274v-119h-393q-143 0 -244.5 -104t-101.5 -251v-291q0 -147 101 -251t245 -104h393v-119h-274v-269h-119v270q-95 1 -181.5 39t-148.5 101.5t-98.5 150.5t-36.5 182z" glyph-name="cent" unicode="¢"/><glyph d="M144 0v118q10 4 28 11.5t63 39.5t79 71.5t62 108.5t28 150v222h-209v119h209v244q0 138 28.5 236t83 155.5t127.5 83t169 25.5q25 0 55 -3t48 -6l18 -3l-23 -118q-45 11 -98 11q-71 0 -120.5 -15.5t-89.5 -55.5t-59.5 -117t-19.5 -193v-244h360v-119h-360v-222 q0 -85 -25.5 -156t-62 -110.5t-73 -67t-62.5 -36.5l-26 -10h533q72 0 122.5 8.5t92 31t68.5 45t71 66.5l85 -83q-104 -108 -194.5 -147.5t-244.5 -39.5h-663z" glyph-name="sterling" unicode="£"/><glyph d="M301 316l-84 84l189 189q-60 87 -61 191q0 103 61 191l-189 189l84 84l188 -189q87 60 190.5 60t190.5 -60l190 189l84 -84l-190 -189q60 -87 60.5 -190.5t-60.5 -190.5l190 -190l-84 -84l-190 190q-87 -60 -190 -61q-105 0 -191 60zM680 548q96 0 164 68t68 164.5 t-68 164.5t-164 68t-164.5 -68t-68.5 -164.5t68.5 -164.5t164.5 -68z" glyph-name="currency" unicode="¤"/><glyph d="M266 412v118h356v129l-68 121h-288v119h222l-366 663h135l424 -763l424 763h135l-368 -663h224v-119h-289l-67 -121v-129h356v-118h-356v-412h-118v412h-356z" glyph-name="yen" unicode="¥"/><glyph d="M622 967v861h118v-861h-118zM622 -267v860h118v-860h-118z" glyph-name="brokenbar" unicode="¦"/><glyph d="M215 -29l82 89q6 -5 18.5 -14t51.5 -32.5t80 -41t103 -32.5t124 -15q69 0 130 15.5t112.5 45.5t81.5 83t30 120q0 46 -15.5 87t-35.5 68.5t-56.5 56t-61.5 44t-68 38.5l-261 144q-147 81 -211.5 167.5t-64.5 193.5q0 114 59 201q-59 81 -59 187q0 164 123 272t313 108 q73 0 142 -17.5t116 -42.5t83 -49.5t53 -41.5l18 -18l-82 -84l-14.5 14.5t-41 32.5t-67.5 41t-92.5 32t-117.5 14q-137 0 -225.5 -75t-88.5 -182q0 -84 55.5 -144t149.5 -113l262 -144q155 -85 231 -175t76 -226q0 -110 -53 -195q53 -86 53 -194q0 -81 -28 -147t-75 -109 t-109.5 -72t-128 -42t-133.5 -13q-75 0 -149 17t-127.5 41.5t-96 49t-63.5 41.5zM578 735l262 -144q104 -58 169 -113q19 45 19 100q0 46 -15.5 87t-35.5 68t-56.5 55.5t-61.5 44t-68 38.5l-261 144q-79 43 -131 85q-27 -50 -26 -108q0 -84 56 -144.5t149 -112.5z" glyph-name="section" unicode="§"/><glyph d="M788 1680v146h146v-146h-146zM428 1680v146h145v-146h-145z" glyph-name="dieresis" unicode="¨"/><glyph d="M186 780q0 214 105.5 395t286.5 286.5t395 105.5t394.5 -105.5t286 -286.5t105.5 -395t-105.5 -394.5t-286 -286t-394.5 -105.5t-395 105.5t-286.5 286t-105.5 394.5zM283 780.5q0 -140.5 54.5 -268.5t147 -220t220.5 -147t268 -55t268 55t220 147t147 220t55 268.5 t-55 268.5t-147 220t-220 146.5t-268 54.5t-268 -54.5t-220.5 -146.5t-147 -220t-54.5 -268.5zM651 582v397q0 106 77.5 181.5t183.5 75.5h266v-96h-266q-68 0 -116 -47t-48 -114v-397q0 -67 48.5 -114t115.5 -47h266v-96h-266q-106 0 -183.5 75.5t-77.5 181.5z" glyph-name="copyright" horiz-adv-x="1945" unicode="©"/><glyph d="M360 655l262 907h118l261 -907h-97l-71 254h-304l-70 -254h-99zM558 1005h246l-123 440z" glyph-name="ordfeminine" unicode="ª"/><glyph d="M193 780l316 318l79 -79l-239 -239l239 -238l-79 -79zM690 780l317 318l78 -79l-238 -239l238 -238l-78 -79z" glyph-name="guillemotleft" unicode="«"/><glyph d="M266 721v119h830v-364h-119v245h-711z" glyph-name="logicalnot" unicode="¬"/><glyph d="M186 780q0 214 105.5 395t286.5 286.5t395 105.5t394.5 -105.5t286 -286.5t105.5 -395t-105.5 -394.5t-286 -286t-394.5 -105.5t-395 105.5t-286.5 286t-105.5 394.5zM283 780.5q0 -140.5 54.5 -268.5t147 -220t220.5 -147t268 -55t268 55t220 147t147 220t55 268.5 t-55 268.5t-147 220t-220 146.5t-268 54.5t-268 -54.5t-220.5 -146.5t-147 -220t-54.5 -268.5zM717 325v911h297q108 0 185 -76t77 -182q0 -84 -52 -152.5t-132 -91.5l213 -409h-108l-206 395h-179v-395h-95zM812 815h202q68 0 117 48t49 115q0 71 -51.5 117t-126.5 46h-190 v-326z" glyph-name="registered" horiz-adv-x="1945" unicode="®"/><glyph d="M394 1699v96h574v-96h-574z" glyph-name="macron" unicode="¯"/><glyph d="M681 947q-128 0 -217.5 89.5t-89.5 217.5t89.5 218t217.5 90t217.5 -90t89.5 -218t-89.5 -217.5t-217.5 -89.5zM681 1051q85 0 144.5 59t59.5 144t-59.5 144.5t-144.5 59.5t-144.5 -59.5t-59.5 -144.5t59.5 -144t144.5 -59z" glyph-name="degree" unicode="°"/><glyph d="M622 366v355h-356v119h356v355h118v-355h356v-119h-356v-355h-118zM266 0v119h830v-119h-830z" glyph-name="plusminus" unicode="±"/><glyph d="M199 718v108l316 389q48 60 48 123q0 56 -38.5 93t-98.5 37q-65 0 -99.5 -41.5t-34.5 -101.5h-93q0 108 64.5 172.5t161.5 64.5t164 -64t67 -159q0 -88 -72 -178l-285 -350h381v-93h-481z" glyph-name="uni00B2" horiz-adv-x="878" unicode="²"/><glyph d="M407 718q-87 0 -154 54t-84 137h95q17 -44 55.5 -71t87.5 -27h60q62 0 106 43t44 105v20q0 62 -44.5 105.5t-106.5 43.5h-65v93h60q48 0 82 33.5t34 81.5v17q0 48 -34 81.5t-82 33.5h-44q-37 0 -65 -20.5t-42 -53.5h-95q14 73 70.5 120.5t131.5 47.5h44q87 0 148 -61.5 t61 -147.5v-17q0 -30 -10 -56.5t-23.5 -43t-27 -30t-23.5 -18.5l-9 -6q5 -2 14 -6.5t32 -20.5t40.5 -37t32 -58t14.5 -81v-20q0 -100 -71.5 -170.5t-171.5 -70.5h-60z" glyph-name="uni00B3" horiz-adv-x="878" unicode="³"/><glyph d="M548 1680l157 266h121l-169 -266h-109z" glyph-name="acute" unicode="´"/><glyph d="M379 166v-552h-119v1394h119v-587q0 -125 88.5 -213.5t213.5 -88.5t213.5 88.5t88.5 213.5v587h119v-587q0 -174 -123.5 -297.5t-297.5 -123.5q-61 0 -115 17t-87 41.5t-57 49t-33 42.5z" glyph-name="uni00B5" unicode="µ"/><glyph d="M379 166v-552h-119v1394h119v-587q0 -125 88.5 -213.5t213.5 -88.5t213.5 88.5t88.5 213.5v587h119v-587q0 -174 -123.5 -297.5t-297.5 -123.5q-61 0 -115 17t-87 41.5t-57 49t-33 42.5z" glyph-name="uni00B5" unicode="μ"/><glyph d="M673 -266v987h-111q-174 0 -300 123.5t-126 297.5q0 175 125 297.5t301 122.5h595v-1828h-119v987h-246v-987h-119zM792 840h246v603h-246v-603zM562 840h111v603h-111q-127 0 -217 -88.5t-90 -212.5q0 -125 90 -213.5t217 -88.5z" glyph-name="paragraph" unicode="¶"/><glyph d="M604 703v154h154v-154h-154z" glyph-name="periodcentered" unicode="·"/><glyph d="M529 -290h198q20 0 34 13.5t14 33.5v31q0 20 -13.5 33.5t-34.5 13.5h-144l67 165h86l-28 -69h19q59 -1 101.5 -42t42.5 -101v-31q0 -59 -42 -101t-102 -42h-237z" glyph-name="cedilla" unicode="¸"/><glyph d="M204 718v93h192v621l-75 -77l-65 64l140 143h93v-751h194v-93h-479z" glyph-name="uni00B9" horiz-adv-x="878" unicode="¹"/><glyph d="M666 655q-114 0 -195.5 82.5t-81.5 199.5v343q0 117 81.5 199.5t195.5 82.5h30q114 0 195.5 -82.5t81.5 -199.5v-343q0 -117 -81.5 -199.5t-195.5 -82.5h-30zM666 751h30q74 0 127.5 54t53.5 132v343q0 78 -53.5 131.5t-127.5 53.5h-30q-74 0 -128 -53.5t-54 -131.5v-343 q0 -78 54 -132t128 -54z" glyph-name="ordmasculine" unicode="º"/><glyph d="M355 1098l317 -318l-317 -317l-79 79l239 238l-239 239zM853 1098l316 -318l-316 -317l-79 79l239 238l-239 239z" glyph-name="guillemotright" unicode="»"/><glyph d="M204 718v93h192v621l-75 -77l-65 64l140 143h93v-751h194v-93h-479zM1772 0v241h-367v101l358 502h101v-510h93v-93h-93v-241h-92zM1503 334h269v375zM694 0h-115l865 1562h116z" glyph-name="onequarter" horiz-adv-x="2138" unicode="¼"/><glyph d="M204 718v93h192v621l-75 -77l-65 64l140 143h93v-751h194v-93h-479zM1461 0v109l317 389q48 60 48 123q0 56 -38.5 93t-98.5 37q-65 0 -100 -41.5t-35 -102.5h-93q0 108 64.5 172.5t162 64.5t164.5 -64t67 -158q0 -88 -73 -179l-284 -350h381v-93h-482zM694 0h-115 l865 1562h116z" glyph-name="onehalf" horiz-adv-x="2141" unicode="½"/><glyph d="M1772 0v241h-367v101l358 502h101v-510h93v-93h-93v-241h-92zM1503 334h269v375zM694 0h-115l865 1562h116zM407 718q-87 0 -154 54t-84 137h95q17 -44 55.5 -71t87.5 -27h60q62 0 106 43t44 105v20q0 62 -44.5 105.5t-106.5 43.5h-65v93h60q48 0 82 33.5t34 81.5v17 q0 48 -34 81.5t-82 33.5h-44q-37 0 -65 -20.5t-42 -53.5h-95q14 73 70.5 120.5t131.5 47.5h44q87 0 148 -61.5t61 -147.5v-17q0 -30 -10 -56.5t-23.5 -43t-27 -30t-23.5 -18.5l-9 -6q5 -2 14 -6.5t32 -20.5t40.5 -37t32 -58t14.5 -81v-20q0 -100 -71.5 -170.5t-171.5 -70.5 h-60z" glyph-name="threequarters" horiz-adv-x="2138" unicode="¾"/><glyph d="M740 1203v-232l-332 -333q-81 -81 -81 -204q0 -130 103.5 -222.5t251.5 -92.5q153 0 255 94t102 247h119q0 -135 -65.5 -241.5t-173.5 -162.5t-237 -56q-125 0 -233 55.5t-174.5 156.5t-66.5 225q0 80 29.5 155t85.5 129l299 299v183h118zM758 1562v-154h-154v154h154z " glyph-name="questiondown" unicode="¿"/><glyph d="M657 1680l-169 266h122l157 -266h-110zM128 0l481 1562h144l481 -1562h-122l-141 461h-581l-140 -461h-122zM427 580h508l-254 831z" glyph-name="Agrave" unicode="À"/><glyph d="M595 1680l157 266h121l-168 -266h-110zM128 0l481 1562h144l481 -1562h-122l-141 461h-581l-140 -461h-122zM427 580h508l-254 831z" glyph-name="Aacute" unicode="Á"/><glyph d="M419 1680l212 254h100l212 -254h-125l-137 163l-137 -163h-125zM128 0l481 1562h144l481 -1562h-122l-141 461h-581l-140 -461h-122zM427 580h508l-254 831z" glyph-name="Acircumflex" unicode="Â"/><glyph d="M428 1691l-73 63l59 64q56 62 126 62q47 0 141 -43q116 -52 138 -52q29 0 57 30l58 63l73 -63l-59 -64q-56 -62 -126 -62q-47 0 -141 43q-116 52 -138 52q-29 0 -57 -30zM128 0l481 1562h144l481 -1562h-122l-141 461h-581l-140 -461h-122zM427 580h508l-254 831z" glyph-name="Atilde" unicode="Ã"/><glyph d="M788 1680v146h146v-146h-146zM428 1680v146h145v-146h-145zM128 0l481 1562h144l481 -1562h-122l-141 461h-581l-140 -461h-122zM427 580h508l-254 831z" glyph-name="Adieresis" unicode="Ä"/><glyph d="M680.5 1618q-64.5 0 -109.5 45t-45 109.5t45 109.5t109.5 45t110 -45t45.5 -109.5t-45.5 -109.5t-110 -45zM681 1706q29 0 48 19t19 47.5t-19 47.5t-48 19t-48 -19t-19 -47.5t19 -47.5t48 -19zM128 0l481 1562h144l481 -1562h-122l-141 461h-581l-140 -461h-122zM427 580 h508l-254 831z" glyph-name="Aring" unicode="Å"/><glyph d="M209 475v611q0 128 62.5 238t170 174t233.5 64h417v-119h-417q-142 0 -244.5 -105t-102.5 -253v-609q0 -147 102 -252t245 -105h417v-119h-331l-29 -69h20q59 -1 101.5 -42t42.5 -101v-31q0 -59 -42 -101t-102 -42h-237l39 96h198q20 0 34 13.5t14 33.5v31q0 20 -14 33.5 t-34 13.5h-145l68 165q-126 0 -233.5 64t-170 173.5t-62.5 237.5z" glyph-name="Ccedilla" unicode="Ç"/><glyph d="M688 1680l-169 266h122l157 -266h-110zM292 0v1562h810v-119h-691v-603h524v-119h-524v-602h691v-119h-810z" glyph-name="Egrave" unicode="È"/><glyph d="M595 1680l157 266h121l-168 -266h-110zM292 0v1562h810v-119h-691v-603h524v-119h-524v-602h691v-119h-810z" glyph-name="Eacute" unicode="É"/><glyph d="M434 1680l212 254h100l212 -254h-124l-138 163l-137 -163h-125zM292 0v1562h810v-119h-691v-603h524v-119h-524v-602h691v-119h-810z" glyph-name="Ecircumflex" unicode="Ê"/><glyph d="M804 1680v146h145v-146h-145zM443 1680v146h146v-146h-146zM292 0v1562h810v-119h-691v-603h524v-119h-524v-602h691v-119h-810z" glyph-name="Edieresis" unicode="Ë"/><glyph d="M681 1680l-169 266h122l157 -266h-110zM365 0v119h257v1324h-257v119h632v-119h-257v-1324h257v-119h-632z" glyph-name="Igrave" unicode="Ì"/><glyph d="M571 1680l157 266h122l-169 -266h-110zM365 0v119h257v1324h-257v119h632v-119h-257v-1324h257v-119h-632z" glyph-name="Iacute" unicode="Í"/><glyph d="M419 1680l212 254h100l212 -254h-125l-137 163l-137 -163h-125zM365 0v119h257v1324h-257v119h632v-119h-257v-1324h257v-119h-632z" glyph-name="Icircumflex" unicode="Î"/><glyph d="M788 1680v146h146v-146h-146zM428 1680v146h145v-146h-145zM365 0v119h257v1324h-257v119h632v-119h-257v-1324h257v-119h-632z" glyph-name="Idieresis" unicode="Ï"/><glyph d="M209 0v721h-209v119h209v722h478q126 0 233.5 -64t170 -174t62.5 -238v-611q0 -128 -62.5 -237.5t-170 -173.5t-233.5 -64h-478zM328 119h359q142 0 244.5 105.5t102.5 251.5v609q0 146 -102.5 252t-244.5 106h-359v-603h353v-119h-353v-602z" glyph-name="Eth" unicode="Ð"/><glyph d="M428 1691l-73 63l59 64q56 62 126 62q47 0 141 -43q116 -52 138 -52q29 0 57 30l58 63l73 -63l-59 -64q-56 -62 -126 -62q-47 0 -141 43q-116 52 -138 52q-29 0 -57 -30zM249 0v1562h119l577 -1209q9 -20 19 -43t15.5 -38.5t9.5 -28.5l5 -14v1333h119v-1562h-119 l-577 1208q-9 20 -19 43.5t-15.5 39t-9.5 28.5l-5 13v-1332h-119z" glyph-name="Ntilde" unicode="Ñ"/><glyph d="M657 1680l-169 266h122l157 -266h-110zM186 475v611q0 196 137 336t329 140h58q193 0 329.5 -140t136.5 -336v-611q0 -196 -137 -335.5t-329 -139.5h-58q-193 0 -329.5 139.5t-136.5 335.5zM305 475q0 -147 102 -251.5t245 -104.5h58q143 0 245 104.5t102 251.5v611 q0 147 -102 252t-245 105h-58q-143 0 -245 -104.5t-102 -252.5v-611z" glyph-name="Ograve" unicode="Ò"/><glyph d="M595 1680l157 266h121l-168 -266h-110zM186 475v611q0 196 137 336t329 140h58q193 0 329.5 -140t136.5 -336v-611q0 -196 -137 -335.5t-329 -139.5h-58q-193 0 -329.5 139.5t-136.5 335.5zM305 475q0 -147 102 -251.5t245 -104.5h58q143 0 245 104.5t102 251.5v611 q0 147 -102 252t-245 105h-58q-143 0 -245 -104.5t-102 -252.5v-611z" glyph-name="Oacute" unicode="Ó"/><glyph d="M419 1680l212 254h100l212 -254h-125l-137 163l-137 -163h-125zM186 475v611q0 196 137 336t329 140h58q193 0 329.5 -140t136.5 -336v-611q0 -196 -137 -335.5t-329 -139.5h-58q-193 0 -329.5 139.5t-136.5 335.5zM305 475q0 -147 102 -251.5t245 -104.5h58 q143 0 245 104.5t102 251.5v611q0 147 -102 252t-245 105h-58q-143 0 -245 -104.5t-102 -252.5v-611z" glyph-name="Ocircumflex" unicode="Ô"/><glyph d="M428 1691l-73 63l59 64q56 62 126 62q47 0 141 -43q116 -52 138 -52q29 0 57 30l58 63l73 -63l-59 -64q-56 -62 -126 -62q-47 0 -141 43q-116 52 -138 52q-29 0 -57 -30zM186 475v611q0 196 137 336t329 140h58q193 0 329.5 -140t136.5 -336v-611q0 -196 -137 -335.5 t-329 -139.5h-58q-193 0 -329.5 139.5t-136.5 335.5zM305 475q0 -147 102 -251.5t245 -104.5h58q143 0 245 104.5t102 251.5v611q0 147 -102 252t-245 105h-58q-143 0 -245 -104.5t-102 -252.5v-611z" glyph-name="Otilde" unicode="Õ"/><glyph d="M788 1680v146h146v-146h-146zM428 1680v146h145v-146h-145zM186 475v611q0 196 137 336t329 140h58q193 0 329.5 -140t136.5 -336v-611q0 -196 -137 -335.5t-329 -139.5h-58q-193 0 -329.5 139.5t-136.5 335.5zM305 475q0 -147 102 -251.5t245 -104.5h58q143 0 245 104.5 t102 251.5v611q0 147 -102 252t-245 105h-58q-143 0 -245 -104.5t-102 -252.5v-611z" glyph-name="Odieresis" unicode="Ö"/><glyph d="M430 446l-84 83l251 251l-251 251l84 84l251 -252l251 253l84 -84l-252 -252l252 -252l-84 -83l-251 252z" glyph-name="multiply" unicode="×"/><glyph d="M190 0l99 178q-102 130 -103 297v611q0 196 137 336t329 140h58q161 0 286 -102l57 102h118l-98 -180q102 -130 103 -296v-611q0 -196 -137 -335.5t-329 -139.5h-58q-161 0 -285 100l-56 -100h-121zM353 295l585 1059q-99 89 -228 89h-58q-143 0 -245 -104.5t-102 -252.5 v-611q0 -97 48 -180zM425 206q97 -87 227 -87h58q143 0 245 104.5t102 251.5v611q0 94 -48 180z" glyph-name="Oslash" unicode="Ø"/><glyph d="M657 1680l-169 266h122l157 -266h-110zM209 475v1087h119v-1086q0 -146 102 -251.5t245 -105.5h12q142 0 244.5 105.5t102.5 251.5v1086h119v-1087q0 -128 -62.5 -237.5t-170 -173.5t-233.5 -64h-12q-126 0 -233.5 64t-170 173.5t-62.5 237.5z" glyph-name="Ugrave" unicode="Ù"/><glyph d="M595 1680l157 266h121l-168 -266h-110zM209 475v1087h119v-1086q0 -146 102 -251.5t245 -105.5h12q142 0 244.5 105.5t102.5 251.5v1086h119v-1087q0 -128 -62.5 -237.5t-170 -173.5t-233.5 -64h-12q-126 0 -233.5 64t-170 173.5t-62.5 237.5z" glyph-name="Uacute" unicode="Ú"/><glyph d="M419 1680l212 254h100l212 -254h-125l-137 163l-137 -163h-125zM209 475v1087h119v-1086q0 -146 102 -251.5t245 -105.5h12q142 0 244.5 105.5t102.5 251.5v1086h119v-1087q0 -128 -62.5 -237.5t-170 -173.5t-233.5 -64h-12q-126 0 -233.5 64t-170 173.5t-62.5 237.5z " glyph-name="Ucircumflex" unicode="Û"/><glyph d="M788 1680v146h146v-146h-146zM428 1680v146h145v-146h-145zM209 475v1087h119v-1086q0 -146 102 -251.5t245 -105.5h12q142 0 244.5 105.5t102.5 251.5v1086h119v-1087q0 -128 -62.5 -237.5t-170 -173.5t-233.5 -64h-12q-126 0 -233.5 64t-170 173.5t-62.5 237.5z" glyph-name="Udieresis" unicode="Ü"/><glyph d="M607 1680l157 266h122l-169 -266h-110zM622 0v659l-500 903h135l424 -763l424 763h135l-500 -903v-659h-118z" glyph-name="Yacute" unicode="Ý"/><glyph d="M209 0v1562h119v-338h398q175 0 301 -122.5t126 -296.5q0 -173 -126.5 -296t-300.5 -123h-398v-386h-119zM328 505h397q127 0 218 88.5t91 211.5t-90.5 211.5t-218.5 88.5h-397v-600z" glyph-name="Thorn" unicode="Þ"/><glyph d="M209 0v1345q0 89 63.5 153t153.5 64h268q169 0 294 -124.5t125 -292.5q0 -122 -60.5 -215.5t-155.5 -141.5q108 -42 176 -138t68 -230q0 -174 -122 -297t-297 -123h-187v119h187q125 0 212.5 87.5t87.5 211.5t-86 213.5t-214 89.5h-187v119h159q125 0 212.5 87.5 t87.5 212.5q0 124 -86.5 213.5t-213.5 89.5h-268q-41 0 -69.5 -29t-28.5 -69v-1345h-119z" glyph-name="germandbls" unicode="ß"/><glyph d="M657 1680l-169 266h122l157 -266h-110zM128 0l481 1562h144l481 -1562h-122l-141 461h-581l-140 -461h-122zM427 580h508l-254 831z" glyph-name="agrave" unicode="à"/><glyph d="M595 1680l157 266h121l-168 -266h-110zM128 0l481 1562h144l481 -1562h-122l-141 461h-581l-140 -461h-122zM427 580h508l-254 831z" glyph-name="aacute" unicode="á"/><glyph d="M419 1680l212 254h100l212 -254h-125l-137 163l-137 -163h-125zM128 0l481 1562h144l481 -1562h-122l-141 461h-581l-140 -461h-122zM427 580h508l-254 831z" glyph-name="acircumflex" unicode="â"/><glyph d="M428 1691l-73 63l59 64q56 62 126 62q47 0 141 -43q116 -52 138 -52q29 0 57 30l58 63l73 -63l-59 -64q-56 -62 -126 -62q-47 0 -141 43q-116 52 -138 52q-29 0 -57 -30zM128 0l481 1562h144l481 -1562h-122l-141 461h-581l-140 -461h-122zM427 580h508l-254 831z" glyph-name="atilde" unicode="ã"/><glyph d="M788 1680v146h146v-146h-146zM428 1680v146h145v-146h-145zM128 0l481 1562h144l481 -1562h-122l-141 461h-581l-140 -461h-122zM427 580h508l-254 831z" glyph-name="adieresis" unicode="ä"/><glyph d="M680.5 1618q-64.5 0 -109.5 45t-45 109.5t45 109.5t109.5 45t110 -45t45.5 -109.5t-45.5 -109.5t-110 -45zM681 1706q29 0 48 19t19 47.5t-19 47.5t-48 19t-48 -19t-19 -47.5t19 -47.5t48 -19zM128 0l481 1562h144l481 -1562h-122l-141 461h-581l-140 -461h-122zM427 580 h508l-254 831z" glyph-name="aring" unicode="å"/><glyph d="M209 475v611q0 128 62.5 238t170 174t233.5 64h417v-119h-417q-142 0 -244.5 -105t-102.5 -253v-609q0 -147 102 -252t245 -105h417v-119h-331l-29 -69h20q59 -1 101.5 -42t42.5 -101v-31q0 -59 -42 -101t-102 -42h-237l39 96h198q20 0 34 13.5t14 33.5v31q0 20 -14 33.5 t-34 13.5h-145l68 165q-126 0 -233.5 64t-170 173.5t-62.5 237.5z" glyph-name="ccedilla" unicode="ç"/><glyph d="M688 1680l-169 266h122l157 -266h-110zM292 0v1562h810v-119h-691v-603h524v-119h-524v-602h691v-119h-810z" glyph-name="egrave" unicode="è"/><glyph d="M595 1680l157 266h121l-168 -266h-110zM292 0v1562h810v-119h-691v-603h524v-119h-524v-602h691v-119h-810z" glyph-name="eacute" unicode="é"/><glyph d="M434 1680l212 254h100l212 -254h-124l-138 163l-137 -163h-125zM292 0v1562h810v-119h-691v-603h524v-119h-524v-602h691v-119h-810z" glyph-name="ecircumflex" unicode="ê"/><glyph d="M804 1680v146h145v-146h-145zM443 1680v146h146v-146h-146zM292 0v1562h810v-119h-691v-603h524v-119h-524v-602h691v-119h-810z" glyph-name="edieresis" unicode="ë"/><glyph d="M681 1680l-169 266h122l157 -266h-110zM365 0v119h257v1324h-257v119h632v-119h-257v-1324h257v-119h-632z" glyph-name="igrave" unicode="ì"/><glyph d="M571 1680l157 266h122l-169 -266h-110zM365 0v119h257v1324h-257v119h632v-119h-257v-1324h257v-119h-632z" glyph-name="iacute" unicode="í"/><glyph d="M419 1680l212 254h100l212 -254h-125l-137 163l-137 -163h-125zM365 0v119h257v1324h-257v119h632v-119h-257v-1324h257v-119h-632z" glyph-name="icircumflex" unicode="î"/><glyph d="M788 1680v146h146v-146h-146zM428 1680v146h145v-146h-145zM365 0v119h257v1324h-257v119h632v-119h-257v-1324h257v-119h-632z" glyph-name="idieresis" unicode="ï"/><glyph d="M209 0v721h-209v119h209v722h478q126 0 233.5 -64t170 -174t62.5 -238v-611q0 -128 -62.5 -237.5t-170 -173.5t-233.5 -64h-478zM328 119h359q142 0 244.5 105.5t102.5 251.5v609q0 146 -102.5 252t-244.5 106h-359v-603h353v-119h-353v-602z" glyph-name="eth" unicode="ð"/><glyph d="M428 1691l-73 63l59 64q56 62 126 62q47 0 141 -43q116 -52 138 -52q29 0 57 30l58 63l73 -63l-59 -64q-56 -62 -126 -62q-47 0 -141 43q-116 52 -138 52q-29 0 -57 -30zM249 0v1562h119l577 -1209q9 -20 19 -43t15.5 -38.5t9.5 -28.5l5 -14v1333h119v-1562h-119 l-577 1208q-9 20 -19 43.5t-15.5 39t-9.5 28.5l-5 13v-1332h-119z" glyph-name="ntilde" unicode="ñ"/><glyph d="M657 1680l-169 266h122l157 -266h-110zM186 475v611q0 196 137 336t329 140h58q193 0 329.5 -140t136.5 -336v-611q0 -196 -137 -335.5t-329 -139.5h-58q-193 0 -329.5 139.5t-136.5 335.5zM305 475q0 -147 102 -251.5t245 -104.5h58q143 0 245 104.5t102 251.5v611 q0 147 -102 252t-245 105h-58q-143 0 -245 -104.5t-102 -252.5v-611z" glyph-name="ograve" unicode="ò"/><glyph d="M595 1680l157 266h121l-168 -266h-110zM186 475v611q0 196 137 336t329 140h58q193 0 329.5 -140t136.5 -336v-611q0 -196 -137 -335.5t-329 -139.5h-58q-193 0 -329.5 139.5t-136.5 335.5zM305 475q0 -147 102 -251.5t245 -104.5h58q143 0 245 104.5t102 251.5v611 q0 147 -102 252t-245 105h-58q-143 0 -245 -104.5t-102 -252.5v-611z" glyph-name="oacute" unicode="ó"/><glyph d="M419 1680l212 254h100l212 -254h-125l-137 163l-137 -163h-125zM186 475v611q0 196 137 336t329 140h58q193 0 329.5 -140t136.5 -336v-611q0 -196 -137 -335.5t-329 -139.5h-58q-193 0 -329.5 139.5t-136.5 335.5zM305 475q0 -147 102 -251.5t245 -104.5h58 q143 0 245 104.5t102 251.5v611q0 147 -102 252t-245 105h-58q-143 0 -245 -104.5t-102 -252.5v-611z" glyph-name="ocircumflex" unicode="ô"/><glyph d="M428 1691l-73 63l59 64q56 62 126 62q47 0 141 -43q116 -52 138 -52q29 0 57 30l58 63l73 -63l-59 -64q-56 -62 -126 -62q-47 0 -141 43q-116 52 -138 52q-29 0 -57 -30zM186 475v611q0 196 137 336t329 140h58q193 0 329.5 -140t136.5 -336v-611q0 -196 -137 -335.5 t-329 -139.5h-58q-193 0 -329.5 139.5t-136.5 335.5zM305 475q0 -147 102 -251.5t245 -104.5h58q143 0 245 104.5t102 251.5v611q0 147 -102 252t-245 105h-58q-143 0 -245 -104.5t-102 -252.5v-611z" glyph-name="otilde" unicode="õ"/><glyph d="M788 1680v146h146v-146h-146zM428 1680v146h145v-146h-145zM186 475v611q0 196 137 336t329 140h58q193 0 329.5 -140t136.5 -336v-611q0 -196 -137 -335.5t-329 -139.5h-58q-193 0 -329.5 139.5t-136.5 335.5zM305 475q0 -147 102 -251.5t245 -104.5h58q143 0 245 104.5 t102 251.5v611q0 147 -102 252t-245 105h-58q-143 0 -245 -104.5t-102 -252.5v-611z" glyph-name="odieresis" unicode="ö"/><glyph d="M266 721v119h830v-119h-830zM604 358v154h154v-154h-154zM604 1049v153h154v-153h-154z" glyph-name="divide" unicode="÷"/><glyph d="M190 0l99 178q-102 130 -103 297v611q0 196 137 336t329 140h58q161 0 286 -102l57 102h118l-98 -180q102 -130 103 -296v-611q0 -196 -137 -335.5t-329 -139.5h-58q-161 0 -285 100l-56 -100h-121zM353 295l585 1059q-99 89 -228 89h-58q-143 0 -245 -104.5t-102 -252.5 v-611q0 -97 48 -180zM425 206q97 -87 227 -87h58q143 0 245 104.5t102 251.5v611q0 94 -48 180z" glyph-name="oslash" unicode="ø"/><glyph d="M657 1680l-169 266h122l157 -266h-110zM209 475v1087h119v-1086q0 -146 102 -251.5t245 -105.5h12q142 0 244.5 105.5t102.5 251.5v1086h119v-1087q0 -128 -62.5 -237.5t-170 -173.5t-233.5 -64h-12q-126 0 -233.5 64t-170 173.5t-62.5 237.5z" glyph-name="ugrave" unicode="ù"/><glyph d="M595 1680l157 266h121l-168 -266h-110zM209 475v1087h119v-1086q0 -146 102 -251.5t245 -105.5h12q142 0 244.5 105.5t102.5 251.5v1086h119v-1087q0 -128 -62.5 -237.5t-170 -173.5t-233.5 -64h-12q-126 0 -233.5 64t-170 173.5t-62.5 237.5z" glyph-name="uacute" unicode="ú"/><glyph d="M419 1680l212 254h100l212 -254h-125l-137 163l-137 -163h-125zM209 475v1087h119v-1086q0 -146 102 -251.5t245 -105.5h12q142 0 244.5 105.5t102.5 251.5v1086h119v-1087q0 -128 -62.5 -237.5t-170 -173.5t-233.5 -64h-12q-126 0 -233.5 64t-170 173.5t-62.5 237.5z " glyph-name="ucircumflex" unicode="û"/><glyph d="M788 1680v146h146v-146h-146zM428 1680v146h145v-146h-145zM209 475v1087h119v-1086q0 -146 102 -251.5t245 -105.5h12q142 0 244.5 105.5t102.5 251.5v1086h119v-1087q0 -128 -62.5 -237.5t-170 -173.5t-233.5 -64h-12q-126 0 -233.5 64t-170 173.5t-62.5 237.5z" glyph-name="udieresis" unicode="ü"/><glyph d="M607 1680l157 266h122l-169 -266h-110zM622 0v659l-500 903h135l424 -763l424 763h135l-500 -903v-659h-118z" glyph-name="yacute" unicode="ý"/><glyph d="M209 0v1562h119v-338h398q175 0 301 -122.5t126 -296.5q0 -173 -126.5 -296t-300.5 -123h-398v-386h-119zM328 505h397q127 0 218 88.5t91 211.5t-90.5 211.5t-218.5 88.5h-397v-600z" glyph-name="thorn" unicode="þ"/><glyph d="M788 1680v146h146v-146h-146zM428 1680v146h145v-146h-145zM622 0v659l-500 903h135l424 -763l424 763h135l-500 -903v-659h-118z" glyph-name="ydieresis" unicode="ÿ"/><glyph d="M394 1699v96h574v-96h-574zM128 0l481 1562h144l481 -1562h-122l-141 461h-581l-140 -461h-122zM427 580h508l-254 831z" glyph-name="Amacron" unicode="Ā"/><glyph d="M394 1699v96h574v-96h-574zM128 0l481 1562h144l481 -1562h-122l-141 461h-581l-140 -461h-122zM427 580h508l-254 831z" glyph-name="amacron" unicode="ā"/><glyph d="M128 0l481 1562h144l481 -1562h-122l-141 461h-581l-140 -461h-122zM427 580h508l-254 831zM861 1862h106q-30 -88 -109 -142t-177 -54t-177 54t-109 142h106q26 -46 76 -73t104 -27t104 27t76 73z" glyph-name="Abreve" unicode="Ă"/><glyph d="M128 0l481 1562h144l481 -1562h-122l-141 461h-581l-140 -461h-122zM427 580h508l-254 831zM861 1862h106q-30 -88 -109 -142t-177 -54t-177 54t-109 142h106q26 -46 76 -73t104 -27t104 27t76 73z" glyph-name="abreve" unicode="ă"/><glyph d="M128 0l481 1562h144l481 -1562l-209 -227v-16q0 -20 14 -33.5t34 -13.5h161v-96h-161q-60 0 -102 42t-42 101v48l182 198l-140 458h-581l-140 -461h-122zM427 580h508l-254 831z" glyph-name="Aogonek" unicode="Ą"/><glyph d="M128 0l481 1562h144l481 -1562l-209 -227v-16q0 -20 14 -33.5t34 -13.5h161v-96h-161q-60 0 -102 42t-42 101v48l182 198l-140 458h-581l-140 -461h-122zM427 580h508l-254 831z" glyph-name="aogonek" unicode="ą"/><glyph d="M209 475v611q0 128 62.5 238t170 174t233.5 64h417v-119h-417q-142 0 -244.5 -105t-102.5 -253v-609q0 -147 102 -252t245 -105h417v-119h-417q-126 0 -233.5 64t-170 173.5t-62.5 237.5zM604 1680l157 266h122l-169 -266h-110z" glyph-name="Cacute" unicode="Ć"/><glyph d="M209 475v611q0 128 62.5 238t170 174t233.5 64h417v-119h-417q-142 0 -244.5 -105t-102.5 -253v-609q0 -147 102 -252t245 -105h417v-119h-417q-126 0 -233.5 64t-170 173.5t-62.5 237.5zM604 1680l157 266h122l-169 -266h-110z" glyph-name="cacute" unicode="ć"/><glyph d="M209 475v611q0 128 62.5 238t170 174t233.5 64h417v-119h-417q-142 0 -244.5 -105t-102.5 -253v-609q0 -147 102 -252t245 -105h417v-119h-417q-126 0 -233.5 64t-170 173.5t-62.5 237.5zM451 1680l212 254h100l212 -254h-125l-137 163l-138 -163h-124z" glyph-name="Ccircumflex" unicode="Ĉ"/><glyph d="M209 475v611q0 128 62.5 238t170 174t233.5 64h417v-119h-417q-142 0 -244.5 -105t-102.5 -253v-609q0 -147 102 -252t245 -105h417v-119h-417q-126 0 -233.5 64t-170 173.5t-62.5 237.5zM451 1680l212 254h100l212 -254h-125l-137 163l-138 -163h-124z" glyph-name="ccircumflex" unicode="ĉ"/><glyph d="M209 475v611q0 128 62.5 238t170 174t233.5 64h417v-119h-417q-142 0 -244.5 -105t-102.5 -253v-609q0 -147 102 -252t245 -105h417v-119h-417q-126 0 -233.5 64t-170 173.5t-62.5 237.5zM640 1680v146h145v-146h-145z" glyph-name="Cdotaccent" unicode="Ċ"/><glyph d="M209 475v611q0 128 62.5 238t170 174t233.5 64h417v-119h-417q-142 0 -244.5 -105t-102.5 -253v-609q0 -147 102 -252t245 -105h417v-119h-417q-126 0 -233.5 64t-170 173.5t-62.5 237.5zM640 1680v146h145v-146h-145z" glyph-name="cdotaccent" unicode="ċ"/><glyph d="M209 475v611q0 128 62.5 238t170 174t233.5 64h417v-119h-417q-142 0 -244.5 -105t-102.5 -253v-609q0 -147 102 -252t245 -105h417v-119h-417q-126 0 -233.5 64t-170 173.5t-62.5 237.5zM663 1680l-212 254h124l138 -162l137 162h125l-212 -254h-100z" glyph-name="Ccaron" unicode="Č"/><glyph d="M209 475v611q0 128 62.5 238t170 174t233.5 64h417v-119h-417q-142 0 -244.5 -105t-102.5 -253v-609q0 -147 102 -252t245 -105h417v-119h-417q-126 0 -233.5 64t-170 173.5t-62.5 237.5zM663 1680l-212 254h124l138 -162l137 162h125l-212 -254h-100z" glyph-name="ccaron" unicode="č"/><glyph d="M209 0v1562h478q126 0 233.5 -64t170 -174t62.5 -238v-611q0 -128 -62.5 -237.5t-170 -173.5t-233.5 -64h-478zM328 119h359q142 0 244.5 105.5t102.5 251.5v609q0 146 -102.5 252t-244.5 106h-359v-1324zM599 1680l-212 254h125l137 -162l137 162h125l-212 -254h-100z " glyph-name="Dcaron" unicode="Ď"/><glyph d="M209 0v1562h478q126 0 233.5 -64t170 -174t62.5 -238v-611q0 -128 -62.5 -237.5t-170 -173.5t-233.5 -64h-478zM328 119h359q142 0 244.5 105.5t102.5 251.5v609q0 146 -102.5 252t-244.5 106h-359v-1324zM599 1680l-212 254h125l137 -162l137 162h125l-212 -254h-100z " glyph-name="dcaron" unicode="ď"/><glyph d="M209 0v721h-209v119h209v722h478q126 0 233.5 -64t170 -174t62.5 -238v-611q0 -128 -62.5 -237.5t-170 -173.5t-233.5 -64h-478zM328 119h359q142 0 244.5 105.5t102.5 251.5v609q0 146 -102.5 252t-244.5 106h-359v-603h353v-119h-353v-602z" glyph-name="Dcroat" unicode="Đ"/><glyph d="M209 0v721h-209v119h209v722h478q126 0 233.5 -64t170 -174t62.5 -238v-611q0 -128 -62.5 -237.5t-170 -173.5t-233.5 -64h-478zM328 119h359q142 0 244.5 105.5t102.5 251.5v609q0 146 -102.5 252t-244.5 106h-359v-603h353v-119h-353v-602z" glyph-name="dcroat" unicode="đ"/><glyph d="M292 0v1562h810v-119h-691v-603h524v-119h-524v-602h691v-119h-810zM410 1699v96h573v-96h-573z" glyph-name="Emacron" unicode="Ē"/><glyph d="M292 0v1562h810v-119h-691v-603h524v-119h-524v-602h691v-119h-810zM410 1699v96h573v-96h-573z" glyph-name="emacron" unicode="ē"/><glyph d="M292 0v1562h810v-119h-691v-603h524v-119h-524v-602h691v-119h-810zM877 1862h105q-30 -88 -108.5 -142t-177 -54t-177.5 54t-108 142h105q26 -46 76 -73t104.5 -27t104.5 27t76 73z" glyph-name="Ebreve" unicode="Ĕ"/><glyph d="M292 0v1562h810v-119h-691v-603h524v-119h-524v-602h691v-119h-810zM877 1862h105q-30 -88 -108.5 -142t-177 -54t-177.5 54t-108 142h105q26 -46 76 -73t104.5 -27t104.5 27t76 73z" glyph-name="ebreve" unicode="ĕ"/><glyph d="M292 0v1562h810v-119h-691v-603h524v-119h-524v-602h691v-119h-810zM624 1680v146h145v-146h-145z" glyph-name="Edotaccent" unicode="Ė"/><glyph d="M292 0v1562h810v-119h-691v-603h524v-119h-524v-602h691v-119h-810zM624 1680v146h145v-146h-145z" glyph-name="edotaccent" unicode="ė"/><glyph d="M292 0v1562h810v-119h-691v-603h524v-119h-524v-602h691v-119l-209 -227v-16q0 -20 14 -33.5t34 -13.5h161v-96h-161q-60 0 -102 42t-42 101v48l179 195h-684z" glyph-name="Eogonek" unicode="Ę"/><glyph d="M292 0v1562h810v-119h-691v-603h524v-119h-524v-602h691v-119l-209 -227v-16q0 -20 14 -33.5t34 -13.5h161v-96h-161q-60 0 -102 42t-42 101v48l179 195h-684z" glyph-name="eogonek" unicode="ę"/><glyph d="M292 0v1562h810v-119h-691v-603h524v-119h-524v-602h691v-119h-810zM646 1680l-212 254h125l137 -162l138 162h124l-212 -254h-100z" glyph-name="Ecaron" unicode="Ě"/><glyph d="M292 0v1562h810v-119h-691v-603h524v-119h-524v-602h691v-119h-810zM646 1680l-212 254h125l137 -162l138 162h124l-212 -254h-100z" glyph-name="ecaron" unicode="ě"/><glyph d="M209 475v611q0 128 62.5 238t170 174t233.5 64h425v-119h-425q-143 0 -245 -104.5t-102 -252.5v-611q0 -147 101.5 -251.5t245.5 -104.5h267q41 0 66.5 25t25.5 66v511h-244v119h363v-630q0 -89 -60.5 -149.5t-150.5 -60.5h-267q-193 0 -329.5 139.5t-136.5 335.5z M451 1680l212 254h100l212 -254h-125l-137 163l-138 -163h-124z" glyph-name="Gcircumflex" unicode="Ĝ"/><glyph d="M209 475v611q0 128 62.5 238t170 174t233.5 64h425v-119h-425q-143 0 -245 -104.5t-102 -252.5v-611q0 -147 101.5 -251.5t245.5 -104.5h267q41 0 66.5 25t25.5 66v511h-244v119h363v-630q0 -89 -60.5 -149.5t-150.5 -60.5h-267q-193 0 -329.5 139.5t-136.5 335.5z M451 1680l212 254h100l212 -254h-125l-137 163l-138 -163h-124z" glyph-name="gcircumflex" unicode="ĝ"/><glyph d="M209 475v611q0 128 62.5 238t170 174t233.5 64h425v-119h-425q-143 0 -245 -104.5t-102 -252.5v-611q0 -147 101.5 -251.5t245.5 -104.5h267q41 0 66.5 25t25.5 66v511h-244v119h363v-630q0 -89 -60.5 -149.5t-150.5 -60.5h-267q-193 0 -329.5 139.5t-136.5 335.5z M893 1862h105q-30 -88 -108.5 -142t-177 -54t-177 54t-108.5 142h105q26 -46 76 -73t104.5 -27t104.5 27t76 73z" glyph-name="Gbreve" unicode="Ğ"/><glyph d="M209 475v611q0 128 62.5 238t170 174t233.5 64h425v-119h-425q-143 0 -245 -104.5t-102 -252.5v-611q0 -147 101.5 -251.5t245.5 -104.5h267q41 0 66.5 25t25.5 66v511h-244v119h363v-630q0 -89 -60.5 -149.5t-150.5 -60.5h-267q-193 0 -329.5 139.5t-136.5 335.5z M893 1862h105q-30 -88 -108.5 -142t-177 -54t-177 54t-108.5 142h105q26 -46 76 -73t104.5 -27t104.5 27t76 73z" glyph-name="gbreve" unicode="ğ"/><glyph d="M209 475v611q0 128 62.5 238t170 174t233.5 64h425v-119h-425q-143 0 -245 -104.5t-102 -252.5v-611q0 -147 101.5 -251.5t245.5 -104.5h267q41 0 66.5 25t25.5 66v511h-244v119h363v-630q0 -89 -60.5 -149.5t-150.5 -60.5h-267q-193 0 -329.5 139.5t-136.5 335.5z M640 1680v146h145v-146h-145z" glyph-name="Gdotaccent" unicode="Ġ"/><glyph d="M209 475v611q0 128 62.5 238t170 174t233.5 64h425v-119h-425q-143 0 -245 -104.5t-102 -252.5v-611q0 -147 101.5 -251.5t245.5 -104.5h267q41 0 66.5 25t25.5 66v511h-244v119h363v-630q0 -89 -60.5 -149.5t-150.5 -60.5h-267q-193 0 -329.5 139.5t-136.5 335.5z M640 1680v146h145v-146h-145z" glyph-name="gdotaccent" unicode="ġ"/><glyph d="M209 475v611q0 128 62.5 238t170 174t233.5 64h425v-119h-425q-143 0 -245 -104.5t-102 -252.5v-611q0 -147 101.5 -251.5t245.5 -104.5h267q41 0 66.5 25t25.5 66v511h-244v119h363v-630q0 -89 -60.5 -149.5t-150.5 -60.5h-267q-193 0 -329.5 139.5t-136.5 335.5z M636 -119h151l-69 -267h-82v267z" glyph-name="Gcommaaccent" unicode="Ģ"/><glyph d="M209 475v611q0 128 62.5 238t170 174t233.5 64h425v-119h-425q-143 0 -245 -104.5t-102 -252.5v-611q0 -147 101.5 -251.5t245.5 -104.5h267q41 0 66.5 25t25.5 66v511h-244v119h363v-630q0 -89 -60.5 -149.5t-150.5 -60.5h-267q-193 0 -329.5 139.5t-136.5 335.5z M636 -119h151l-69 -267h-82v267z" glyph-name="gcommaaccent" unicode="ģ"/><glyph d="M209 0v1562h119v-722h706v722h119v-1562h-119v721h-706v-721h-119zM419 1680l212 254h100l212 -254h-125l-137 163l-137 -163h-125z" glyph-name="Hcircumflex" unicode="Ĥ"/><glyph d="M209 0v1562h119v-722h706v722h119v-1562h-119v721h-706v-721h-119zM419 1680l212 254h100l212 -254h-125l-137 163l-137 -163h-125z" glyph-name="hcircumflex" unicode="ĥ"/><glyph d="M209 0v1152h-164v96h164v314h119v-314h706v314h119v-314h164v-96h-164v-1152h-119v721h-706v-721h-119zM328 840h706v312h-706v-312z" glyph-name="Hbar" unicode="Ħ"/><glyph d="M209 0v1152h-164v96h164v314h119v-314h706v314h119v-314h164v-96h-164v-1152h-119v721h-706v-721h-119zM328 840h706v312h-706v-312z" glyph-name="hbar" unicode="ħ"/><glyph d="M365 0v119h257v1324h-257v119h632v-119h-257v-1324h257v-119h-632zM428 1691l-73 63l59 64q56 62 126 62q47 0 141 -43q116 -52 138 -52q29 0 57 30l58 63l73 -63l-59 -64q-56 -62 -126 -62q-47 0 -141 43q-116 52 -138 52q-29 0 -57 -30z" glyph-name="Itilde" unicode="Ĩ"/><glyph d="M365 0v119h257v1324h-257v119h632v-119h-257v-1324h257v-119h-632zM428 1691l-73 63l59 64q56 62 126 62q47 0 141 -43q116 -52 138 -52q29 0 57 30l58 63l73 -63l-59 -64q-56 -62 -126 -62q-47 0 -141 43q-116 52 -138 52q-29 0 -57 -30z" glyph-name="itilde" unicode="ĩ"/><glyph d="M394 1699v96h574v-96h-574zM365 0v119h257v1324h-257v119h632v-119h-257v-1324h257v-119h-632z" glyph-name="Imacron" unicode="Ī"/><glyph d="M394 1699v96h574v-96h-574zM365 0v119h257v1324h-257v119h632v-119h-257v-1324h257v-119h-632z" glyph-name="imacron" unicode="ī"/><glyph d="M365 0v119h257v1324h-257v119h632v-119h-257v-1324h257v-119h-632zM861 1862h106q-30 -88 -109 -142t-177 -54t-177 54t-109 142h106q26 -46 76 -73t104 -27t104 27t76 73z" glyph-name="Ibreve" unicode="Ĭ"/><glyph d="M861 1862h106q-30 -88 -109 -142t-177 -54t-177 54t-109 142h106q26 -46 76 -73t104 -27t104 27t76 73zM365 0v119h257v1324h-257v119h632v-119h-257v-1324h257v-119h-632z" glyph-name="ibreve" unicode="ĭ"/><glyph d="M365 0v119h257v1324h-257v119h632v-119h-257v-1324h257v-119l-209 -227v-16q0 -20 14 -33.5t35 -13.5h160v-96h-160q-60 0 -102.5 42t-42.5 101v48l179 195h-506z" glyph-name="Iogonek" unicode="Į"/><glyph d="M365 0v119h257v1324h-257v119h632v-119h-257v-1324h257v-119l-209 -227v-16q0 -20 14 -33.5t35 -13.5h160v-96h-160q-60 0 -102.5 42t-42.5 101v48l179 195h-506z" glyph-name="iogonek" unicode="į"/><glyph d="M365 0v119h257v1324h-257v119h632v-119h-257v-1324h257v-119h-632zM608 1680v146h146v-146h-146z" glyph-name="Idotaccent" unicode="İ"/><glyph d="M365 0v119h257v1324h-257v119h632v-119h-257v-1324h257v-119h-632z" glyph-name="dotlessi" unicode="ı"/><glyph d="M365 0v119h257v1324h-257v119h632v-119h-257v-1324h257v-119h-632zM1644 0v119h296q142 0 244.5 104.5t102.5 251.5v1087h118v-1087q0 -196 -136.5 -335.5t-328.5 -139.5h-296z" glyph-name="IJ" horiz-adv-x="2723" unicode="Ĳ"/><glyph d="M365 0v119h257v1324h-257v119h632v-119h-257v-1324h257v-119h-632zM1644 0v119h296q142 0 244.5 104.5t102.5 251.5v1087h118v-1087q0 -196 -136.5 -335.5t-328.5 -139.5h-296z" glyph-name="ij" horiz-adv-x="2723" unicode="ĳ"/><glyph d="M282 0v119h297q142 0 244 104.5t102 251.5v1087h118v-1087q0 -196 -136.5 -335.5t-327.5 -139.5h-297zM722 1680l212 254h100l212 -254h-125l-137 163l-137 -163h-125z" glyph-name="Jcircumflex" unicode="Ĵ"/><glyph d="M282 0v119h297q142 0 244 104.5t102 251.5v1087h118v-1087q0 -196 -136.5 -335.5t-327.5 -139.5h-297zM722 1680l212 254h100l212 -254h-125l-137 163l-137 -163h-125z" glyph-name="jcircumflex" unicode="ĵ"/><glyph d="M196 0v1562h118v-794l666 794h153l-552 -663l633 -899h-148l-565 803l-187 -222v-581h-118zM591 -119h151l-69 -267h-82v267z" glyph-name="Kcommaaccent" unicode="Ķ"/><glyph d="M196 0v1562h118v-794l666 794h153l-552 -663l633 -899h-148l-565 803l-187 -222v-581h-118zM591 -119h151l-69 -267h-82v267z" glyph-name="kcommaaccent" unicode="ķ"/><glyph d="M196 0v1562h118v-794l666 794h153l-552 -663l633 -899h-148l-565 803l-187 -222v-581h-118z" glyph-name="kgreenlandic" unicode="ĸ"/><glyph d="M301 0v1562h119v-1443h681v-119h-800zM312 1647l157 265h122l-169 -265h-110z" glyph-name="Lacute" unicode="Ĺ"/><glyph d="M301 0v1562h119v-1443h681v-119h-800zM312 1647l157 265h122l-169 -265h-110z" glyph-name="lacute" unicode="ĺ"/><glyph d="M301 0v1562h119v-1443h681v-119h-800zM624 -119h151l-69 -267h-82v267z" glyph-name="Lcommaaccent" unicode="Ļ"/><glyph d="M301 0v1562h119v-1443h681v-119h-800zM624 -119h151l-69 -267h-82v267z" glyph-name="lcommaaccent" unicode="ļ"/><glyph d="M301 0v1562h119v-1443h681v-119h-800zM672 1161l141 519h109l-142 -519h-108z" glyph-name="Lcaron" unicode="Ľ"/><glyph d="M301 0v1562h119v-1443h681v-119h-800zM672 1161l141 519h109l-142 -519h-108z" glyph-name="lcaron" unicode="ľ"/><glyph d="M301 0v1562h119v-1443h681v-119h-800zM683 710v153h154v-153h-154z" glyph-name="Ldot" unicode="Ŀ"/><glyph d="M301 0v1562h119v-1443h681v-119h-800zM683 710v153h154v-153h-154z" glyph-name="ldot" unicode="ŀ"/><glyph d="M301 0v541l-204 -104v133l204 104v888h119v-828l492 252v-133l-492 -252v-482h681v-119h-800z" glyph-name="Lslash" unicode="Ł"/><glyph d="M301 0v541l-204 -104v133l204 104v888h119v-828l492 252v-133l-492 -252v-482h681v-119h-800z" glyph-name="lslash" unicode="ł"/><glyph d="M249 0v1562h119l577 -1209q9 -20 19 -43t15.5 -38.5t9.5 -28.5l5 -14v1333h119v-1562h-119l-577 1208q-9 20 -19 43.5t-15.5 39t-9.5 28.5l-5 13v-1332h-119zM595 1680l157 266h121l-168 -266h-110z" glyph-name="Nacute" unicode="Ń"/><glyph d="M249 0v1562h119l577 -1209q9 -20 19 -43t15.5 -38.5t9.5 -28.5l5 -14v1333h119v-1562h-119l-577 1208q-9 20 -19 43.5t-15.5 39t-9.5 28.5l-5 13v-1332h-119zM595 1680l157 266h121l-168 -266h-110z" glyph-name="nacute" unicode="ń"/><glyph d="M249 0v1562h119l577 -1209q9 -20 19 -43t15.5 -38.5t9.5 -28.5l5 -14v1333h119v-1562h-119l-577 1208q-9 20 -19 43.5t-15.5 39t-9.5 28.5l-5 13v-1332h-119zM604 -119h152l-70 -267h-82v267z" glyph-name="Ncommaaccent" unicode="Ņ"/><glyph d="M249 0v1562h119l577 -1209q9 -20 19 -43t15.5 -38.5t9.5 -28.5l5 -14v1333h119v-1562h-119l-577 1208q-9 20 -19 43.5t-15.5 39t-9.5 28.5l-5 13v-1332h-119zM604 -119h152l-70 -267h-82v267z" glyph-name="ncommaaccent" unicode="ņ"/><glyph d="M249 0v1562h119l577 -1209q9 -20 19 -43t15.5 -38.5t9.5 -28.5l5 -14v1333h119v-1562h-119l-577 1208q-9 20 -19 43.5t-15.5 39t-9.5 28.5l-5 13v-1332h-119zM631 1680l-212 254h125l137 -162l137 162h125l-212 -254h-100z" glyph-name="Ncaron" unicode="Ň"/><glyph d="M249 0v1562h119l577 -1209q9 -20 19 -43t15.5 -38.5t9.5 -28.5l5 -14v1333h119v-1562h-119l-577 1208q-9 20 -19 43.5t-15.5 39t-9.5 28.5l-5 13v-1332h-119zM631 1680l-212 254h125l137 -162l137 162h125l-212 -254h-100z" glyph-name="ncaron" unicode="ň"/><glyph d="M249 0v1562h119l577 -1203q9 -20 19 -43t15.5 -38.5t9.5 -28.5l5 -13v1326h119v-1646q0 -125 -88.5 -213.5t-213.5 -88.5h-106v119h106q76 0 129.5 53.5t53.5 129.5v84l-577 1202q-9 20 -19 43.5t-15.5 38.5t-9.5 29l-5 13v-1326h-119z" glyph-name="Eng" unicode="Ŋ"/><glyph d="M249 0v1562h119l577 -1203q9 -20 19 -43t15.5 -38.5t9.5 -28.5l5 -13v1326h119v-1646q0 -125 -88.5 -213.5t-213.5 -88.5h-106v119h106q76 0 129.5 53.5t53.5 129.5v84l-577 1202q-9 20 -19 43.5t-15.5 38.5t-9.5 29l-5 13v-1326h-119z" glyph-name="eng" unicode="ŋ"/><glyph d="M186 475v611q0 196 137 336t329 140h58q193 0 329.5 -140t136.5 -336v-611q0 -196 -137 -335.5t-329 -139.5h-58q-193 0 -329.5 139.5t-136.5 335.5zM305 475q0 -147 102 -251.5t245 -104.5h58q143 0 245 104.5t102 251.5v611q0 147 -102 252t-245 105h-58 q-143 0 -245 -104.5t-102 -252.5v-611zM394 1699v96h574v-96h-574z" glyph-name="Omacron" unicode="Ō"/><glyph d="M186 475v611q0 196 137 336t329 140h58q193 0 329.5 -140t136.5 -336v-611q0 -196 -137 -335.5t-329 -139.5h-58q-193 0 -329.5 139.5t-136.5 335.5zM305 475q0 -147 102 -251.5t245 -104.5h58q143 0 245 104.5t102 251.5v611q0 147 -102 252t-245 105h-58 q-143 0 -245 -104.5t-102 -252.5v-611zM394 1699v96h574v-96h-574z" glyph-name="omacron" unicode="ō"/><glyph d="M186 475v611q0 196 137 336t329 140h58q193 0 329.5 -140t136.5 -336v-611q0 -196 -137 -335.5t-329 -139.5h-58q-193 0 -329.5 139.5t-136.5 335.5zM305 475q0 -147 102 -251.5t245 -104.5h58q143 0 245 104.5t102 251.5v611q0 147 -102 252t-245 105h-58 q-143 0 -245 -104.5t-102 -252.5v-611zM861 1862h106q-30 -88 -109 -142t-177 -54t-177 54t-109 142h106q26 -46 76 -73t104 -27t104 27t76 73z" glyph-name="Obreve" unicode="Ŏ"/><glyph d="M186 475v611q0 196 137 336t329 140h58q193 0 329.5 -140t136.5 -336v-611q0 -196 -137 -335.5t-329 -139.5h-58q-193 0 -329.5 139.5t-136.5 335.5zM305 475q0 -147 102 -251.5t245 -104.5h58q143 0 245 104.5t102 251.5v611q0 147 -102 252t-245 105h-58 q-143 0 -245 -104.5t-102 -252.5v-611zM861 1862h106q-30 -88 -109 -142t-177 -54t-177 54t-109 142h106q26 -46 76 -73t104 -27t104 27t76 73z" glyph-name="obreve" unicode="ŏ"/><glyph d="M186 475v611q0 196 137 336t329 140h58q193 0 329.5 -140t136.5 -336v-611q0 -196 -137 -335.5t-329 -139.5h-58q-193 0 -329.5 139.5t-136.5 335.5zM305 475q0 -147 102 -251.5t245 -104.5h58q143 0 245 104.5t102 251.5v611q0 147 -102 252t-245 105h-58 q-143 0 -245 -104.5t-102 -252.5v-611zM732 1680l157 266h122l-169 -266h-110zM411 1680l156 266h122l-169 -266h-109z" glyph-name="Ohungarumlaut" unicode="Ő"/><glyph d="M186 475v611q0 196 137 336t329 140h58q193 0 329.5 -140t136.5 -336v-611q0 -196 -137 -335.5t-329 -139.5h-58q-193 0 -329.5 139.5t-136.5 335.5zM305 475q0 -147 102 -251.5t245 -104.5h58q143 0 245 104.5t102 251.5v611q0 147 -102 252t-245 105h-58 q-143 0 -245 -104.5t-102 -252.5v-611zM732 1680l157 266h122l-169 -266h-110zM411 1680l156 266h122l-169 -266h-109z" glyph-name="ohungarumlaut" unicode="ő"/><glyph d="M231 0v1562h503q115 0 212.5 -55.5t156 -153t58.5 -211.5q0 -151 -95.5 -264t-240.5 -144l360 -734h-132l-355 721h-348v-721h-119zM350 840h384q127 0 217.5 88.5t90.5 213.5q0 124 -90 212.5t-218 88.5h-384v-603zM542 1680l156 266h122l-169 -266h-109z" glyph-name="Racute" unicode="Ŕ"/><glyph d="M231 0v1562h503q115 0 212.5 -55.5t156 -153t58.5 -211.5q0 -151 -95.5 -264t-240.5 -144l360 -734h-132l-355 721h-348v-721h-119zM350 840h384q127 0 217.5 88.5t90.5 213.5q0 124 -90 212.5t-218 88.5h-384v-603zM542 1680l156 266h122l-169 -266h-109z" glyph-name="racute" unicode="ŕ"/><glyph d="M231 0v1562h503q115 0 212.5 -55.5t156 -153t58.5 -211.5q0 -151 -95.5 -264t-240.5 -144l360 -734h-132l-355 721h-348v-721h-119zM350 840h384q127 0 217.5 88.5t90.5 213.5q0 124 -90 212.5t-218 88.5h-384v-603zM590 -119h151l-69 -267h-82v267z" glyph-name="Rcommaaccent" unicode="Ŗ"/><glyph d="M231 0v1562h503q115 0 212.5 -55.5t156 -153t58.5 -211.5q0 -151 -95.5 -264t-240.5 -144l360 -734h-132l-355 721h-348v-721h-119zM350 840h384q127 0 217.5 88.5t90.5 213.5q0 124 -90 212.5t-218 88.5h-384v-603zM590 -119h151l-69 -267h-82v267z" glyph-name="rcommaaccent" unicode="ŗ"/><glyph d="M231 0v1562h503q115 0 212.5 -55.5t156 -153t58.5 -211.5q0 -151 -95.5 -264t-240.5 -144l360 -734h-132l-355 721h-348v-721h-119zM350 840h384q127 0 217.5 88.5t90.5 213.5q0 124 -90 212.5t-218 88.5h-384v-603zM601 1680l-212 254h125l137 -162l137 162h125 l-212 -254h-100z" glyph-name="Rcaron" unicode="Ř"/><glyph d="M231 0v1562h503q115 0 212.5 -55.5t156 -153t58.5 -211.5q0 -151 -95.5 -264t-240.5 -144l360 -734h-132l-355 721h-348v-721h-119zM350 840h384q127 0 217.5 88.5t90.5 213.5q0 124 -90 212.5t-218 88.5h-384v-603zM601 1680l-212 254h125l137 -162l137 162h125 l-212 -254h-100z" glyph-name="rcaron" unicode="ř"/><glyph d="M215 165l82 89q6 -5 18.5 -14.5t51.5 -33t80 -41t103 -32t124 -14.5q69 0 130 15.5t112.5 45.5t81.5 82.5t30 120.5q0 46 -15.5 87t-35.5 68t-56.5 56t-61.5 44t-68 39l-261 143q-147 81 -211.5 167.5t-64.5 194.5q0 164 123 272t313 108q73 0 142 -17.5t116 -42.5 t83 -50t53 -42l18 -17l-82 -84q-5 5 -14.5 14t-41 32t-67.5 41t-92.5 32.5t-117.5 14.5q-137 0 -225.5 -75.5t-88.5 -181.5q0 -84 55.5 -144.5t149.5 -112.5l262 -145q155 -85 231 -175t76 -226q0 -81 -28 -147t-75 -109t-109.5 -72t-128 -42t-133.5 -13q-75 0 -149 17 t-127.5 41.5t-96 48.5t-63.5 40zM571 1680l157 266h122l-169 -266h-110z" glyph-name="Sacute" unicode="Ś"/><glyph d="M215 165l82 89q6 -5 18.5 -14.5t51.5 -33t80 -41t103 -32t124 -14.5q69 0 130 15.5t112.5 45.5t81.5 82.5t30 120.5q0 46 -15.5 87t-35.5 68t-56.5 56t-61.5 44t-68 39l-261 143q-147 81 -211.5 167.5t-64.5 194.5q0 164 123 272t313 108q73 0 142 -17.5t116 -42.5 t83 -50t53 -42l18 -17l-82 -84q-5 5 -14.5 14t-41 32t-67.5 41t-92.5 32.5t-117.5 14.5q-137 0 -225.5 -75.5t-88.5 -181.5q0 -84 55.5 -144.5t149.5 -112.5l262 -145q155 -85 231 -175t76 -226q0 -81 -28 -147t-75 -109t-109.5 -72t-128 -42t-133.5 -13q-75 0 -149 17 t-127.5 41.5t-96 48.5t-63.5 40zM571 1680l157 266h122l-169 -266h-110z" glyph-name="sacute" unicode="ś"/><glyph d="M419 1680l212 254h100l212 -254h-125l-137 163l-137 -163h-125zM215 165l82 89q6 -5 18.5 -14.5t51.5 -33t80 -41t103 -32t124 -14.5q69 0 130 15.5t112.5 45.5t81.5 82.5t30 120.5q0 46 -15.5 87t-35.5 68t-56.5 56t-61.5 44t-68 39l-261 143q-147 81 -211.5 167.5 t-64.5 194.5q0 164 123 272t313 108q73 0 142 -17.5t116 -42.5t83 -50t53 -42l18 -17l-82 -84q-5 5 -14.5 14t-41 32t-67.5 41t-92.5 32.5t-117.5 14.5q-137 0 -225.5 -75.5t-88.5 -181.5q0 -84 55.5 -144.5t149.5 -112.5l262 -145q155 -85 231 -175t76 -226q0 -81 -28 -147 t-75 -109t-109.5 -72t-128 -42t-133.5 -13q-75 0 -149 17t-127.5 41.5t-96 48.5t-63.5 40z" glyph-name="Scircumflex" unicode="Ŝ"/><glyph d="M419 1680l212 254h100l212 -254h-125l-137 163l-137 -163h-125zM215 165l82 89q6 -5 18.5 -14.5t51.5 -33t80 -41t103 -32t124 -14.5q69 0 130 15.5t112.5 45.5t81.5 82.5t30 120.5q0 46 -15.5 87t-35.5 68t-56.5 56t-61.5 44t-68 39l-261 143q-147 81 -211.5 167.5 t-64.5 194.5q0 164 123 272t313 108q73 0 142 -17.5t116 -42.5t83 -50t53 -42l18 -17l-82 -84q-5 5 -14.5 14t-41 32t-67.5 41t-92.5 32.5t-117.5 14.5q-137 0 -225.5 -75.5t-88.5 -181.5q0 -84 55.5 -144.5t149.5 -112.5l262 -145q155 -85 231 -175t76 -226q0 -81 -28 -147 t-75 -109t-109.5 -72t-128 -42t-133.5 -13q-75 0 -149 17t-127.5 41.5t-96 48.5t-63.5 40z" glyph-name="scircumflex" unicode="ŝ"/><glyph d="M215 165l82 89q6 -5 18.5 -14.5t51.5 -33t80 -41t103 -32t124 -14.5q69 0 130 15.5t112.5 45.5t81.5 82.5t30 120.5q0 46 -15.5 87t-35.5 68t-56.5 56t-61.5 44t-68 39l-261 143q-147 81 -211.5 167.5t-64.5 194.5q0 164 123 272t313 108q73 0 142 -17.5t116 -42.5 t83 -50t53 -42l18 -17l-82 -84q-5 5 -14.5 14t-41 32t-67.5 41t-92.5 32.5t-117.5 14.5q-137 0 -225.5 -75.5t-88.5 -181.5q0 -84 55.5 -144.5t149.5 -112.5l262 -145q155 -85 231 -175t76 -226q0 -91 -35 -163t-95 -116t-130 -69t-150 -32l-29 -72h19q59 -1 101.5 -42 t42.5 -101v-31q0 -59 -42 -101t-102 -42h-237l39 96h198q20 0 34 13.5t14 33.5v31q0 20 -13.5 33.5t-34.5 13.5h-144l67 165q-71 3 -142 21t-121.5 41.5t-91 47t-59.5 40.5z" glyph-name="Scedilla" unicode="Ş"/><glyph d="M215 165l82 89q6 -5 18.5 -14.5t51.5 -33t80 -41t103 -32t124 -14.5q69 0 130 15.5t112.5 45.5t81.5 82.5t30 120.5q0 46 -15.5 87t-35.5 68t-56.5 56t-61.5 44t-68 39l-261 143q-147 81 -211.5 167.5t-64.5 194.5q0 164 123 272t313 108q73 0 142 -17.5t116 -42.5 t83 -50t53 -42l18 -17l-82 -84q-5 5 -14.5 14t-41 32t-67.5 41t-92.5 32.5t-117.5 14.5q-137 0 -225.5 -75.5t-88.5 -181.5q0 -84 55.5 -144.5t149.5 -112.5l262 -145q155 -85 231 -175t76 -226q0 -91 -35 -163t-95 -116t-130 -69t-150 -32l-29 -72h19q59 -1 101.5 -42 t42.5 -101v-31q0 -59 -42 -101t-102 -42h-237l39 96h198q20 0 34 13.5t14 33.5v31q0 20 -13.5 33.5t-34.5 13.5h-144l67 165q-71 3 -142 21t-121.5 41.5t-91 47t-59.5 40.5z" glyph-name="scedilla" unicode="ş"/><glyph d="M631 1680l-212 254h125l137 -162l137 162h125l-212 -254h-100zM215 165l82 89q6 -5 18.5 -14.5t51.5 -33t80 -41t103 -32t124 -14.5q69 0 130 15.5t112.5 45.5t81.5 82.5t30 120.5q0 46 -15.5 87t-35.5 68t-56.5 56t-61.5 44t-68 39l-261 143q-147 81 -211.5 167.5 t-64.5 194.5q0 164 123 272t313 108q73 0 142 -17.5t116 -42.5t83 -50t53 -42l18 -17l-82 -84q-5 5 -14.5 14t-41 32t-67.5 41t-92.5 32.5t-117.5 14.5q-137 0 -225.5 -75.5t-88.5 -181.5q0 -84 55.5 -144.5t149.5 -112.5l262 -145q155 -85 231 -175t76 -226q0 -81 -28 -147 t-75 -109t-109.5 -72t-128 -42t-133.5 -13q-75 0 -149 17t-127.5 41.5t-96 48.5t-63.5 40z" glyph-name="Scaron" unicode="Š"/><glyph d="M631 1680l-212 254h125l137 -162l137 162h125l-212 -254h-100zM215 165l82 89q6 -5 18.5 -14.5t51.5 -33t80 -41t103 -32t124 -14.5q69 0 130 15.5t112.5 45.5t81.5 82.5t30 120.5q0 46 -15.5 87t-35.5 68t-56.5 56t-61.5 44t-68 39l-261 143q-147 81 -211.5 167.5 t-64.5 194.5q0 164 123 272t313 108q73 0 142 -17.5t116 -42.5t83 -50t53 -42l18 -17l-82 -84q-5 5 -14.5 14t-41 32t-67.5 41t-92.5 32.5t-117.5 14.5q-137 0 -225.5 -75.5t-88.5 -181.5q0 -84 55.5 -144.5t149.5 -112.5l262 -145q155 -85 231 -175t76 -226q0 -81 -28 -147 t-75 -109t-109.5 -72t-128 -42t-133.5 -13q-75 0 -149 17t-127.5 41.5t-96 48.5t-63.5 40z" glyph-name="scaron" unicode="š"/><glyph d="M622 0v1443h-435v119h988v-119h-435v-1443h-118zM604 -119h152l-70 -267h-82v267z" glyph-name="Tcommaaccent" unicode="Ţ"/><glyph d="M622 0v1443h-435v119h988v-119h-435v-1443h-118zM604 -119h152l-70 -267h-82v267z" glyph-name="tcommaaccent" unicode="ţ"/><glyph d="M622 0v1443h-435v119h988v-119h-435v-1443h-118zM631 1680l-212 254h125l137 -162l137 162h125l-212 -254h-100z" glyph-name="Tcaron" unicode="Ť"/><glyph d="M622 0v1443h-435v119h988v-119h-435v-1443h-118zM631 1680l-212 254h125l137 -162l137 162h125l-212 -254h-100z" glyph-name="tcaron" unicode="ť"/><glyph d="M622 0v732h-294v96h294v615h-435v119h988v-119h-435v-615h294v-96h-294v-732h-118z" glyph-name="Tbar" unicode="Ŧ"/><glyph d="M622 0v732h-294v96h294v615h-435v119h988v-119h-435v-615h294v-96h-294v-732h-118z" glyph-name="tbar" unicode="ŧ"/><glyph d="M209 475v1087h119v-1086q0 -146 102 -251.5t245 -105.5h12q142 0 244.5 105.5t102.5 251.5v1086h119v-1087q0 -128 -62.5 -237.5t-170 -173.5t-233.5 -64h-12q-126 0 -233.5 64t-170 173.5t-62.5 237.5zM428 1691l-73 63l59 64q56 62 126 62q47 0 141 -43 q116 -52 138 -52q29 0 57 30l58 63l73 -63l-59 -64q-56 -62 -126 -62q-47 0 -141 43q-116 52 -138 52q-29 0 -57 -30z" glyph-name="Utilde" unicode="Ũ"/><glyph d="M209 475v1087h119v-1086q0 -146 102 -251.5t245 -105.5h12q142 0 244.5 105.5t102.5 251.5v1086h119v-1087q0 -128 -62.5 -237.5t-170 -173.5t-233.5 -64h-12q-126 0 -233.5 64t-170 173.5t-62.5 237.5zM428 1691l-73 63l59 64q56 62 126 62q47 0 141 -43 q116 -52 138 -52q29 0 57 30l58 63l73 -63l-59 -64q-56 -62 -126 -62q-47 0 -141 43q-116 52 -138 52q-29 0 -57 -30z" glyph-name="utilde" unicode="ũ"/><glyph d="M209 475v1087h119v-1086q0 -146 102 -251.5t245 -105.5h12q142 0 244.5 105.5t102.5 251.5v1086h119v-1087q0 -128 -62.5 -237.5t-170 -173.5t-233.5 -64h-12q-126 0 -233.5 64t-170 173.5t-62.5 237.5zM394 1699v96h574v-96h-574z" glyph-name="Umacron" unicode="Ū"/><glyph d="M209 475v1087h119v-1086q0 -146 102 -251.5t245 -105.5h12q142 0 244.5 105.5t102.5 251.5v1086h119v-1087q0 -128 -62.5 -237.5t-170 -173.5t-233.5 -64h-12q-126 0 -233.5 64t-170 173.5t-62.5 237.5zM394 1699v96h574v-96h-574z" glyph-name="umacron" unicode="ū"/><glyph d="M209 475v1087h119v-1086q0 -146 102 -251.5t245 -105.5h12q142 0 244.5 105.5t102.5 251.5v1086h119v-1087q0 -128 -62.5 -237.5t-170 -173.5t-233.5 -64h-12q-126 0 -233.5 64t-170 173.5t-62.5 237.5zM861 1862h106q-30 -88 -109 -142t-177 -54t-177 54t-109 142h106 q26 -46 76 -73t104 -27t104 27t76 73z" glyph-name="Ubreve" unicode="Ŭ"/><glyph d="M209 475v1087h119v-1086q0 -146 102 -251.5t245 -105.5h12q142 0 244.5 105.5t102.5 251.5v1086h119v-1087q0 -128 -62.5 -237.5t-170 -173.5t-233.5 -64h-12q-126 0 -233.5 64t-170 173.5t-62.5 237.5zM861 1862h106q-30 -88 -109 -142t-177 -54t-177 54t-109 142h106 q26 -46 76 -73t104 -27t104 27t76 73z" glyph-name="ubreve" unicode="ŭ"/><glyph d="M209 475v1087h119v-1086q0 -146 102 -251.5t245 -105.5h12q142 0 244.5 105.5t102.5 251.5v1086h119v-1087q0 -128 -62.5 -237.5t-170 -173.5t-233.5 -64h-12q-126 0 -233.5 64t-170 173.5t-62.5 237.5zM680.5 1618q-64.5 0 -109.5 45t-45 109.5t45 109.5t109.5 45 t110 -45t45.5 -109.5t-45.5 -109.5t-110 -45zM681 1706q29 0 48 19t19 47.5t-19 47.5t-48 19t-48 -19t-19 -47.5t19 -47.5t48 -19z" glyph-name="Uring" unicode="Ů"/><glyph d="M209 475v1087h119v-1086q0 -146 102 -251.5t245 -105.5h12q142 0 244.5 105.5t102.5 251.5v1086h119v-1087q0 -128 -62.5 -237.5t-170 -173.5t-233.5 -64h-12q-126 0 -233.5 64t-170 173.5t-62.5 237.5zM680.5 1618q-64.5 0 -109.5 45t-45 109.5t45 109.5t109.5 45 t110 -45t45.5 -109.5t-45.5 -109.5t-110 -45zM681 1706q29 0 48 19t19 47.5t-19 47.5t-48 19t-48 -19t-19 -47.5t19 -47.5t48 -19z" glyph-name="uring" unicode="ů"/><glyph d="M209 475v1087h119v-1086q0 -146 102 -251.5t245 -105.5h12q142 0 244.5 105.5t102.5 251.5v1086h119v-1087q0 -128 -62.5 -237.5t-170 -173.5t-233.5 -64h-12q-126 0 -233.5 64t-170 173.5t-62.5 237.5zM756 1680l156 266h122l-169 -266h-109zM434 1680l157 266h122 l-169 -266h-110z" glyph-name="Uhungarumlaut" unicode="Ű"/><glyph d="M209 475v1087h119v-1086q0 -146 102 -251.5t245 -105.5h12q142 0 244.5 105.5t102.5 251.5v1086h119v-1087q0 -128 -62.5 -237.5t-170 -173.5t-233.5 -64h-12q-126 0 -233.5 64t-170 173.5t-62.5 237.5zM756 1680l156 266h122l-169 -266h-109zM434 1680l157 266h122 l-169 -266h-110z" glyph-name="uhungarumlaut" unicode="ű"/><glyph d="M209 475v1087h119v-1086q0 -146 102 -251.5t245 -105.5h12q142 0 244.5 105.5t102.5 251.5v1086h119v-1087q0 -88 -33 -173.5t-91 -147.5l-351 -381v-16q0 -20 14 -33.5t34 -13.5h161v-96h-161q-60 0 -102 42t-42 101v48l66 73q30 33 71 71.5t66 60.5l26 22 q-51 -32 -136 -32q-126 0 -233.5 64t-170 173.5t-62.5 237.5z" glyph-name="Uogonek" unicode="Ų"/><glyph d="M209 475v1087h119v-1086q0 -146 102 -251.5t245 -105.5h12q142 0 244.5 105.5t102.5 251.5v1086h119v-1087q0 -88 -33 -173.5t-91 -147.5l-351 -381v-16q0 -20 14 -33.5t34 -13.5h161v-96h-161q-60 0 -102 42t-42 101v48l66 73q30 33 71 71.5t66 60.5l26 22 q-51 -32 -136 -32q-126 0 -233.5 64t-170 173.5t-62.5 237.5z" glyph-name="uogonek" unicode="ų"/><glyph d="M419 1680l212 254h100l212 -254h-125l-137 163l-137 -163h-125zM174 1562v-1562h159l348 667l348 -667h159v1562h-119v-1394l-335 640h-106l-335 -640v1394h-119z" glyph-name="Wcircumflex" unicode="Ŵ"/><glyph d="M419 1680l212 254h100l212 -254h-125l-137 163l-137 -163h-125zM174 1562v-1562h159l348 667l348 -667h159v1562h-119v-1394l-335 640h-106l-335 -640v1394h-119z" glyph-name="wcircumflex" unicode="ŵ"/><glyph d="M419 1680l212 254h100l212 -254h-125l-137 163l-137 -163h-125zM622 0v659l-500 903h135l424 -763l424 763h135l-500 -903v-659h-118z" glyph-name="Ycircumflex" unicode="Ŷ"/><glyph d="M419 1680l212 254h100l212 -254h-125l-137 163l-137 -163h-125zM622 0v659l-500 903h135l424 -763l424 763h135l-500 -903v-659h-118z" glyph-name="ycircumflex" unicode="ŷ"/><glyph d="M788 1680v146h146v-146h-146zM428 1680v146h145v-146h-145zM622 0v659l-500 903h135l424 -763l424 763h135l-500 -903v-659h-118z" glyph-name="Ydieresis" unicode="Ÿ"/><glyph d="M238 0v118l752 1325h-727v119h861v-118l-753 -1325h753v-119h-886zM571 1680l157 266h122l-169 -266h-110z" glyph-name="Zacute" unicode="Ź"/><glyph d="M238 0v118l752 1325h-727v119h861v-118l-753 -1325h753v-119h-886zM571 1680l157 266h122l-169 -266h-110z" glyph-name="zacute" unicode="ź"/><glyph d="M613 1680v146h146v-146h-146zM238 0v118l752 1325h-727v119h861v-118l-753 -1325h753v-119h-886z" glyph-name="Zdotaccent" unicode="Ż"/><glyph d="M613 1680v146h146v-146h-146zM238 0v118l752 1325h-727v119h861v-118l-753 -1325h753v-119h-886z" glyph-name="zdotaccent" unicode="ż"/><glyph d="M635 1680l-212 254h125l137 -162l137 162h125l-212 -254h-100zM238 0v118l752 1325h-727v119h861v-118l-753 -1325h753v-119h-886z" glyph-name="Zcaron" unicode="Ž"/><glyph d="M635 1680l-212 254h125l137 -162l137 162h125l-212 -254h-100zM238 0v118l752 1325h-727v119h861v-118l-753 -1325h753v-119h-886z" glyph-name="zcaron" unicode="ž"/><glyph d="M207 -294q55 -23 104 -22q91 0 118 113l282 1156h-210l27 119h211l86 343q24 93 85 137.5t138 44.5q31 0 65 -6.5t52 -13.5l20 -6l-30 -115q-55 23 -105 23q-89 0 -117 -114l-72 -293h244l-28 -119h-246l-294 -1206q-24 -93 -85 -137.5t-138 -44.5q-31 0 -65 6.5 t-52 12.5l-20 7z" glyph-name="florin" unicode="ƒ"/><glyph d="M628 1965l99 176h122l-112 -176h-109zM680.5 1618q-64.5 0 -109.5 45t-45 109.5t45 109.5t109.5 45t110 -45t45.5 -109.5t-45.5 -109.5t-110 -45zM681 1706q29 0 48 19t19 47.5t-19 47.5t-48 19t-48 -19t-19 -47.5t19 -47.5t48 -19zM128 0l481 1562h144l481 -1562h-122 l-141 461h-581l-140 -461h-122zM427 580h508l-254 831z" glyph-name="Aringacute" unicode="Ǻ"/><glyph d="M628 1965l99 176h122l-112 -176h-109zM680.5 1618q-64.5 0 -109.5 45t-45 109.5t45 109.5t109.5 45t110 -45t45.5 -109.5t-45.5 -109.5t-110 -45zM681 1706q29 0 48 19t19 47.5t-19 47.5t-48 19t-48 -19t-19 -47.5t19 -47.5t48 -19zM128 0l481 1562h144l481 -1562h-122 l-141 461h-581l-140 -461h-122zM427 580h508l-254 831z" glyph-name="aringacute" unicode="ǻ"/><glyph d="M595 1680l157 266h121l-168 -266h-110zM190 0l99 178q-102 130 -103 297v611q0 196 137 336t329 140h58q161 0 286 -102l57 102h118l-98 -180q102 -130 103 -296v-611q0 -196 -137 -335.5t-329 -139.5h-58q-161 0 -285 100l-56 -100h-121zM353 295l585 1059 q-99 89 -228 89h-58q-143 0 -245 -104.5t-102 -252.5v-611q0 -97 48 -180zM425 206q97 -87 227 -87h58q143 0 245 104.5t102 251.5v611q0 94 -48 180z" glyph-name="Oslashacute" unicode="Ǿ"/><glyph d="M595 1680l157 266h121l-168 -266h-110zM190 0l99 178q-102 130 -103 297v611q0 196 137 336t329 140h58q161 0 286 -102l57 102h118l-98 -180q102 -130 103 -296v-611q0 -196 -137 -335.5t-329 -139.5h-58q-161 0 -285 100l-56 -100h-121zM353 295l585 1059 q-99 89 -228 89h-58q-143 0 -245 -104.5t-102 -252.5v-611q0 -97 48 -180zM425 206q97 -87 227 -87h58q143 0 245 104.5t102 251.5v611q0 94 -48 180z" glyph-name="oslashacute" unicode="ǿ"/><glyph d="M215 165l82 89q6 -5 18.5 -14.5t51.5 -33t80 -41t103 -32t124 -14.5q69 0 130 15.5t112.5 45.5t81.5 82.5t30 120.5q0 46 -15.5 87t-35.5 68t-56.5 56t-61.5 44t-68 39l-261 143q-147 81 -211.5 167.5t-64.5 194.5q0 164 123 272t313 108q73 0 142 -17.5t116 -42.5 t83 -50t53 -42l18 -17l-82 -84q-5 5 -14.5 14t-41 32t-67.5 41t-92.5 32.5t-117.5 14.5q-137 0 -225.5 -75.5t-88.5 -181.5q0 -84 55.5 -144.5t149.5 -112.5l262 -145q155 -85 231 -175t76 -226q0 -81 -28 -147t-75 -109t-109.5 -72t-128 -42t-133.5 -13q-75 0 -149 17 t-127.5 41.5t-96 48.5t-63.5 40zM604 -119h152l-70 -267h-82v267z" glyph-name="Scommaaccent" unicode="Ș"/><glyph d="M215 165l82 89q6 -5 18.5 -14.5t51.5 -33t80 -41t103 -32t124 -14.5q69 0 130 15.5t112.5 45.5t81.5 82.5t30 120.5q0 46 -15.5 87t-35.5 68t-56.5 56t-61.5 44t-68 39l-261 143q-147 81 -211.5 167.5t-64.5 194.5q0 164 123 272t313 108q73 0 142 -17.5t116 -42.5 t83 -50t53 -42l18 -17l-82 -84q-5 5 -14.5 14t-41 32t-67.5 41t-92.5 32.5t-117.5 14.5q-137 0 -225.5 -75.5t-88.5 -181.5q0 -84 55.5 -144.5t149.5 -112.5l262 -145q155 -85 231 -175t76 -226q0 -81 -28 -147t-75 -109t-109.5 -72t-128 -42t-133.5 -13q-75 0 -149 17 t-127.5 41.5t-96 48.5t-63.5 40zM604 -119h152l-70 -267h-82v267z" glyph-name="scommaaccent" unicode="ș"/><glyph d="M622 0v1443h-435v119h988v-119h-435v-1443h-118zM604 -119h152l-70 -267h-82v267z" glyph-name="uni021A" unicode="Ț"/><glyph d="M622 0v1443h-435v119h988v-119h-435v-1443h-118zM604 -119h152l-70 -267h-82v267z" glyph-name="uni021B" unicode="ț"/><glyph d="M282 0v119h297q142 0 244 104.5t102 251.5v1087h118v-1087q0 -196 -136.5 -335.5t-327.5 -139.5h-297z" glyph-name="uni0237" unicode="ȷ"/><glyph d="M419 1680l212 254h100l212 -254h-125l-137 163l-137 -163h-125z" glyph-name="circumflex" unicode="ˆ"/><glyph d="M631 1680l-212 254h125l137 -162l137 162h125l-212 -254h-100z" glyph-name="caron" unicode="ˇ"/><glyph d="M394 1699v96h574v-96h-574z" glyph-name="uni02C9" unicode="ˉ"/><glyph d="M861 1862h106q-30 -88 -109 -142t-177 -54t-177 54t-109 142h106q26 -46 76 -73t104 -27t104 27t76 73z" glyph-name="breve" unicode="˘"/><glyph d="M608 1680v146h146v-146h-146z" glyph-name="dotaccent" unicode="˙"/><glyph d="M680.5 1618q-64.5 0 -109.5 45t-45 109.5t45 109.5t109.5 45t110 -45t45.5 -109.5t-45.5 -109.5t-110 -45zM681 1706q29 0 48 19t19 47.5t-19 47.5t-48 19t-48 -19t-19 -47.5t19 -47.5t48 -19z" glyph-name="ring" unicode="˚"/><glyph d="M528 -195l180 195h126l-209 -227v-16q0 -20 13.5 -33.5t34.5 -13.5h161v-96h-161q-60 0 -102.5 42t-42.5 101v48z" glyph-name="ogonek" unicode="˛"/><glyph d="M428 1691l-73 63l59 64q56 62 126 62q47 0 141 -43q116 -52 138 -52q29 0 57 30l58 63l73 -63l-59 -64q-56 -62 -126 -62q-47 0 -141 43q-116 52 -138 52q-29 0 -57 -30z" glyph-name="tilde" unicode="˜"/><glyph d="M709 1680l156 266h122l-169 -266h-109zM387 1680l157 266h122l-169 -266h-110z" glyph-name="hungarumlaut" unicode="˝"/><glyph d="M604 703v154h154v-154h-154z" glyph-name="anoteleia" unicode="·"/><glyph d="M128 0l481 1562h144l481 -1562h-1106zM286 119h789l-394 1292z" glyph-name="Delta" unicode="Δ"/><glyph d="M128 0l481 1562h144l481 -1562h-1106zM286 119h789l-394 1292z" glyph-name="Delta" unicode="∆"/><glyph d="M125 0v119h259q-91 49 -144.5 143t-53.5 213v611q0 196 137 336t329 140h58q193 0 329.5 -140t136.5 -336v-611q0 -119 -53.5 -213t-144.5 -143h259v-119h-424v135q108 34 176 127.5t68 212.5v611q0 147 -102 252t-245 105h-58q-143 0 -245 -104.5t-102 -252.5v-611 q0 -119 68 -212.5t176 -127.5v-135h-424z" glyph-name="Omega" unicode="Ω"/><glyph d="M397 0v889h-233v119h1034v-119h-233v-672q0 -41 28.5 -69.5t70.5 -28.5h90v-119h-90q-90 0 -154 64t-64 153v672h-330v-889h-119z" glyph-name="pi" unicode="π"/><glyph d="M645 1680l-169 266h122l157 -266h-110zM174 1562v-1562h159l348 667l348 -667h159v1562h-119v-1394l-335 640h-106l-335 -640v1394h-119z" glyph-name="Wgrave" unicode="Ẁ"/><glyph d="M645 1680l-169 266h122l157 -266h-110zM174 1562v-1562h159l348 667l348 -667h159v1562h-119v-1394l-335 640h-106l-335 -640v1394h-119z" glyph-name="wgrave" unicode="ẁ"/><glyph d="M607 1680l157 266h122l-169 -266h-110zM174 1562v-1562h159l348 667l348 -667h159v1562h-119v-1394l-335 640h-106l-335 -640v1394h-119z" glyph-name="Wacute" unicode="Ẃ"/><glyph d="M607 1680l157 266h122l-169 -266h-110zM174 1562v-1562h159l348 667l348 -667h159v1562h-119v-1394l-335 640h-106l-335 -640v1394h-119z" glyph-name="wacute" unicode="ẃ"/><glyph d="M788 1680v146h146v-146h-146zM428 1680v146h145v-146h-145zM174 1562v-1562h159l348 667l348 -667h159v1562h-119v-1394l-335 640h-106l-335 -640v1394h-119z" glyph-name="Wdieresis" unicode="Ẅ"/><glyph d="M788 1680v146h146v-146h-146zM428 1680v146h145v-146h-145zM174 1562v-1562h159l348 667l348 -667h159v1562h-119v-1394l-335 640h-106l-335 -640v1394h-119z" glyph-name="wdieresis" unicode="ẅ"/><glyph d="M622 0v659l-500 903h135l424 -763l424 763h135l-500 -903v-659h-118zM645 1680l-169 266h122l157 -266h-110z" glyph-name="Ygrave" unicode="Ỳ"/><glyph d="M622 0v659l-500 903h135l424 -763l424 763h135l-500 -903v-659h-118zM645 1680l-169 266h122l157 -266h-110z" glyph-name="ygrave" unicode="ỳ"/><glyph d="M389 721v119h584v-119h-584z" glyph-name="uni2011" unicode="‑"/><glyph d="M234 721v119h893v-119h-893z" glyph-name="figuredash" unicode="‒"/><glyph d="M234 721v119h893v-119h-893z" glyph-name="endash" unicode="–"/><glyph d="M93 721v119h1176v-119h-1176z" glyph-name="emdash" unicode="—"/><glyph d="M93 721v119h1176v-119h-1176z" glyph-name="afii00208" unicode="―"/><glyph d="M556 1042l141 520h109l-141 -520h-109z" glyph-name="quoteleft" unicode="‘"/><glyph d="M556 1042l141 520h109l-141 -520h-109z" glyph-name="quoteright" unicode="’"/><glyph d="M556 0l141 519h109l-141 -519h-109z" glyph-name="quotesinglbase" unicode="‚"/><glyph d="M769 1042l142 520h108l-141 -520h-109zM343 1042l141 520h109l-141 -520h-109z" glyph-name="quotedblleft" unicode="“"/><glyph d="M769 1042l142 520h108l-141 -520h-109zM343 1042l141 520h109l-141 -520h-109z" glyph-name="quotedblright" unicode="”"/><glyph d="M769 0l142 519h108l-141 -519h-109zM343 0l141 519h109l-141 -519h-109z" glyph-name="quotedblbase" unicode="„"/><glyph d="M622 -267v1446h-419v118h419v531h118v-531h419v-118h-419v-1446h-118z" glyph-name="dagger" unicode="†"/><glyph d="M203 263v119h419v797h-419v118h419v531h118v-531h419v-118h-419v-797h419v-119h-419v-530h-118v530h-419z" glyph-name="daggerdbl" unicode="‡"/><glyph d="M681 643q-56 0 -96.5 40t-40.5 97.5t40.5 97.5t96.5 40t96.5 -40t40.5 -97.5t-40.5 -97.5t-96.5 -40z" glyph-name="bullet" unicode="•"/><glyph d="M1053 0v154h153v-154h-153zM604 0v154h154v-154h-154zM156 0v154h153v-154h-153z" glyph-name="ellipsis" unicode="…"/><glyph d="M279.5 978q-120.5 0 -206 85.5t-85.5 206.5t85.5 206.5t206 85.5t206 -85.5t85.5 -206.5t-85.5 -206.5t-206 -85.5zM279.5 1090q74.5 0 127.5 52.5t53 127.5t-53 127.5t-127.5 52.5t-127.5 -52.5t-53 -127.5t53 -127.5t127.5 -52.5zM-15 593v104l1066 420v-104zM794 292 q0 121 85.5 206.5t206 85.5t206 -85.5t85.5 -206.5t-85.5 -206.5t-206 -85.5t-206 85.5t-85.5 206.5zM79 292q0 121 85.5 206.5t206.5 85.5t206.5 -85.5t85.5 -206.5t-85.5 -206.5t-206.5 -85.5t-206.5 85.5t-85.5 206.5zM905 292q0 -75 53 -127.5t127.5 -52.5t127.5 52.5 t53 127.5t-53 127.5t-127.5 52.5t-127.5 -52.5t-53 -127.5zM190 292q0 -75 53 -127.5t127.5 -52.5t127.5 52.5t53 127.5t-53 127.5t-127.5 52.5t-127.5 -52.5t-53 -127.5z" glyph-name="perthousand" unicode="‰"/><glyph d="M498 780l316 318l79 -79l-239 -239l239 -238l-79 -79z" glyph-name="guilsinglleft" unicode="‹"/><glyph d="M548 1098l316 -318l-316 -317l-79 79l239 238l-239 239z" glyph-name="guilsinglright" unicode="›"/><glyph d="M-184 0h-116l865 1562h116z" glyph-name="fraction" horiz-adv-x="380" unicode="⁄"/><glyph d="M425 0q-106 0 -182 77t-76 186v318q0 110 75.5 186.5t182.5 76.5h29q106 0 182 -77t76 -186v-318q0 -110 -76 -186.5t-182 -76.5h-29zM425 93h29q67 0 115.5 50t48.5 120v318q0 71 -49 120.5t-115 49.5h-29q-68 0 -116.5 -50t-48.5 -120v-318q0 -71 48.5 -120.5 t116.5 -49.5z" glyph-name="uni2080" horiz-adv-x="878" unicode="₀"/><glyph d="M204 0v93h192v621l-75 -77l-65 64l140 143h93v-751h194v-93h-479z" glyph-name="uni2081" horiz-adv-x="878" unicode="₁"/><glyph d="M199 0v109l316 389q48 60 48 123q0 56 -38.5 93t-98.5 37q-65 0 -99.5 -41.5t-34.5 -102.5h-93q0 108 64.5 172.5t161.5 64.5t164 -64t67 -158q0 -88 -72 -179l-285 -350h381v-93h-481z" glyph-name="uni2082" horiz-adv-x="878" unicode="₂"/><glyph d="M407 0q-87 0 -154 54.5t-84 136.5h95q17 -44 55.5 -71t87.5 -27h60q62 0 106 43t44 106v19q0 62 -44.5 106t-106.5 44h-65v92h60q48 0 82 33.5t34 81.5v17q0 48 -34 82t-82 34h-44q-37 0 -65 -20.5t-42 -54.5h-95q14 73 70.5 120.5t131.5 47.5h44q87 0 148 -61.5 t61 -147.5v-17q0 -30 -10 -56t-23.5 -43t-27 -30.5t-23.5 -19.5l-9 -5q5 -2 14 -6t32 -20.5t40.5 -37.5t32 -58t14.5 -81v-19q0 -100 -71.5 -171t-171.5 -71h-60z" glyph-name="uni2083" horiz-adv-x="878" unicode="₃"/><glyph d="M512 0v241h-367v101l359 502h100v-510h93v-93h-93v-241h-92zM244 334h268v375z" glyph-name="uni2084" horiz-adv-x="878" unicode="₄"/><glyph d="M423 0q-86 0 -153.5 54.5t-85.5 136.5h98q16 -44 54.5 -71t86.5 -27h36q62 0 105.5 44t43.5 106v67q0 65 -44 107.5t-105 42.5h-239l36 384h381v-93h-301l-19 -198h142q100 0 171 -71t71 -172v-67q0 -100 -71 -171.5t-171 -71.5h-36z" glyph-name="uni2085" horiz-adv-x="878" unicode="₅"/><glyph d="M420 0q-97 0 -167.5 68.5t-70.5 165.5v232q0 165 111 271.5t299 106.5h26v-93h-26q-65 0 -116.5 -14t-84 -34t-56 -49t-34.5 -53t-17 -54.5t-7.5 -44.5t-1.5 -29q23 36 64 56.5t82 20.5h39q97 0 167 -69t70 -166v-81q0 -98 -69.5 -166t-167.5 -68h-40zM421 93h38 q60 0 103 42t43 99v82q0 57 -43 99t-103 42h-38q-60 0 -103 -41.5t-43 -99.5v-82q0 -57 43 -99t103 -42z" glyph-name="uni2086" horiz-adv-x="878" unicode="₆"/><glyph d="M275 0l313 751h-386v93h488v-93l-312 -751h-103z" glyph-name="uni2087" horiz-adv-x="878" unicode="₇"/><glyph d="M411 0q-100 0 -171.5 70.5t-71.5 171.5v19q0 44 14 81t33 58.5t38.5 37t33.5 21.5l14 5q-4 2 -10 6t-22 18.5t-28.5 31t-22.5 43t-10 55.5v17q0 86 61 147.5t148 61.5h45q87 0 148 -61.5t61 -147.5v-17q0 -30 -10 -56t-23 -43t-27 -30.5t-23 -19.5l-10 -5q5 -2 14 -6 t32 -20.5t40.5 -37.5t32 -58t14.5 -81v-19q0 -100 -71.5 -171t-171.5 -71h-57zM417 503h45q48 0 82 33.5t34 81.5v17q0 48 -34 82t-82 34h-45q-48 0 -82 -34t-34 -82v-17q0 -48 34 -81.5t82 -33.5zM411 93h57q62 0 106 43t44 106v19q0 62 -44.5 106t-106.5 44h-55 q-62 0 -107 -43.5t-45 -106.5v-19q0 -62 44.5 -105.5t106.5 -43.5z" glyph-name="uni2088" horiz-adv-x="878" unicode="₈"/><glyph d="M459 844q97 0 167 -68.5t70 -166.5v-231q0 -165 -111 -271.5t-298 -106.5h-27v93h27q65 0 116.5 14t83.5 34t55.5 49t35 53t17.5 54.5t7 44t1 29.5q-23 -36 -63.5 -56.5t-81.5 -20.5h-39q-97 0 -167.5 69t-70.5 165v81q0 98 70 166.5t168 68.5h40zM458 751h-38 q-60 0 -103.5 -42t-43.5 -100v-82q0 -57 43 -98.5t104 -41.5h38q60 0 102.5 41.5t42.5 98.5v82q0 57 -42.5 99.5t-102.5 42.5z" glyph-name="uni2089" horiz-adv-x="878" unicode="₉"/><glyph d="M239 475v62h-164v118h164v250h-164v119h164v62q0 128 62.5 238t170 174t233.5 64h416v-119h-416q-142 0 -245 -105t-103 -253v-61h547v-119h-547v-250h547v-118h-547v-61q0 -147 102.5 -252t245.5 -105h416v-119h-416q-126 0 -233.5 64t-170 173.5t-62.5 237.5z" glyph-name="Euro" unicode="€"/><glyph d="M186 780q0 214 105.5 395t286.5 286.5t395 105.5t394.5 -105.5t286 -286.5t105.5 -395t-105.5 -394.5t-286 -286t-394.5 -105.5t-395 105.5t-286.5 286t-105.5 394.5zM283 780.5q0 -140.5 54.5 -268.5t147 -220t220.5 -147t268 -55t268 55t220 147t147 220t55 268.5 t-55 268.5t-147 220t-220 146.5t-268 54.5t-268 -54.5t-220.5 -146.5t-147 -220t-54.5 -268.5zM751 325v911h297q108 0 185 -76t77 -182.5t-77.5 -182t-184.5 -75.5h-202v-395h-95zM846 815h190q75 0 126 46t51 117t-51 117t-126 46h-190v-326z" glyph-name="uni2117" horiz-adv-x="1945" unicode="℗"/><glyph d="M666 1034v528h92l144 -262l145 262h92v-528h-85v369l-115 -206h-74l-114 206v-369h-85zM302 1034v443h-172v85h429v-85h-172v-443h-85z" glyph-name="trademark" unicode="™"/><glyph d="M125 0v119h259q-91 49 -144.5 143t-53.5 213v611q0 196 137 336t329 140h58q193 0 329.5 -140t136.5 -336v-611q0 -119 -53.5 -213t-144.5 -143h259v-119h-424v135q108 34 176 127.5t68 212.5v611q0 147 -102 252t-245 105h-58q-143 0 -245 -104.5t-102 -252.5v-611 q0 -119 68 -212.5t176 -127.5v-135h-424z" glyph-name="uni2126" unicode="Ω"/><glyph d="M1153 823v-402q0 -175 -126 -298t-301 -123h-100q-175 0 -301 123t-126 298v156q0 174 126 297t301 123h99q59 0 113 -16t88.5 -39t60 -46.5t36.5 -39.5l11 -16q0 87 -19 168.5t-65.5 161.5t-117 139.5t-183 96.5t-254.5 37h-49v119h49q166 0 306 -52t239.5 -146 t156 -233.5t56.5 -307.5zM1034 421v156q0 126 -91 214t-218 88h-98q-127 0 -218.5 -88.5t-91.5 -213.5v-156q0 -124 91.5 -213t218.5 -89h98q127 0 218 89t91 213z" glyph-name="partialdiff" unicode="∂"/><glyph d="M383 0v1443h-233v119h1062v-119h-233v-1443h-119v1443h-358v-1443h-119z" glyph-name="product" unicode="∏"/><glyph d="M274 0v118l378 662l-378 664v118h813v-119h-678l378 -663l-378 -661h678v-119h-813z" glyph-name="summation" unicode="∑"/><glyph d="M266 721v119h830v-119h-830z" glyph-name="minus" unicode="−"/><glyph d="M583 0l-196 670h-199v118h277l186 -637l458 1411h114l-507 -1562h-133z" glyph-name="radical" unicode="√"/><glyph d="M681 707l-112 -112q-78 -78 -186.5 -78t-185.5 77.5t-77 186t77 185.5t186 77t186 -77l112 -112l112 112q78 78 186 77.5t185.5 -77.5t77.5 -185.5t-77.5 -186t-186 -77.5t-185.5 78zM755 780l111 -111q47 -47 112.5 -47t112.5 46.5t47 112t-47 112t-112.5 46.5 t-112.5 -47zM607 780l-111 112q-47 47 -113 47t-112.5 -46.5t-46.5 -112t46.5 -112t112.5 -46.5t113 47z" glyph-name="infinity" unicode="∞"/><glyph d="M207 -294q55 -23 104 -22q91 0 118 113l396 1618q24 93 85 137.5t138 44.5q31 0 65 -6.5t52 -13.5l20 -6l-30 -115q-55 23 -105 23q-89 0 -117 -114l-396 -1618q-24 -93 -85 -137.5t-138 -44.5q-31 0 -65 6.5t-52 12.5l-20 7z" glyph-name="integral" unicode="∫"/><glyph d="M345 857l-111 41q3 7 8.5 18.5t27 40.5t48 51.5t72 41t97.5 18.5q65 0 136.5 -28t136.5 -56.5t114 -28.5q30 0 55 10t40.5 24.5t27 28t15.5 22.5l5 11l110 -41q-3 -7 -8 -18.5t-26.5 -40.5t-48 -51.5t-72 -41t-98.5 -18.5q-65 0 -136 28t-136 56t-115 28 q-30 0 -54.5 -9.5t-40 -23.5t-27 -28t-15.5 -25zM234 552q3 7 8.5 18.5t27 40.5t48 51.5t72 41t97.5 18.5q65 0 136.5 -28t136.5 -56.5t114 -28.5q30 0 55 10t40.5 24t27 28t15.5 23l5 11l110 -41q-3 -7 -8 -18.5t-26.5 -41t-48 -52t-72 -40.5t-98.5 -18q-65 0 -136 28 t-136 56t-115 28q-30 0 -54.5 -9.5t-40 -23.5t-27 -28.5t-15.5 -24.5l-5 -9z" glyph-name="approxequal" unicode="≈"/><glyph d="M374 340l108 197h-216v118h282l138 250h-420v119h486l109 197h128l-109 -197h216v-119h-282l-138 -250h420v-118h-486l-108 -197h-128z" glyph-name="notequal" unicode="≠"/><glyph d="M162 721v119l1038 363v-126l-854 -297l854 -297v-126zM198 0v119h1002v-119h-1002z" glyph-name="lessequal" unicode="≤"/><glyph d="M1200 840v-119l-1038 -364v126l854 297l-854 297v126zM1164 119v-119h-1002v119h1002z" glyph-name="greaterequal" unicode="≥"/><glyph d="M604 703v154h154v-154h-154z" glyph-name="dotmath" unicode="⋅"/><glyph d="M637 0l-385 780l385 782h88l385 -782l-385 -780h-88zM681 151l310 629l-310 631l-310 -631z" glyph-name="lozenge" unicode="◊"/><glyph d="M186 475v611q0 196 137 336t329 140h58q193 0 329.5 -140t136.5 -336v-611q0 -196 -137 -335.5t-329 -139.5h-58q-193 0 -329.5 139.5t-136.5 335.5zM353 295l585 1059q-99 89 -228 89h-58q-143 0 -245 -104.5t-102 -252.5v-611q0 -98 48 -180zM425 206q97 -87 227 -87 h58q143 0 245 104.5t102 251.5v611q0 97 -48 181z" glyph-name="uniF638" unicode=""/><glyph d="M1149 393v-2q-40 -6 -121.5 9t-155.5 55q-58 -42 -146 -58.5t-204 2.5q-48 11 -70.5 35.5t-19.5 48.5q8 48 107 27q141 -34 247 0q-54 45 -97.5 121t-43.5 162q0 203 207 348q195 131 451 131q76 -1 131.5 -18t83 -38t43.5 -49t19 -43.5t3 -29.5q-2 -78 -115 -179 q-10 -8 -47 -36t-55.5 -44t-49 -46.5t-45.5 -54.5t-24 -57t-4 -65q9 -69 62 -105t137 -36q87 0 166 49l2 -4q-4 -5 -15 -16t-36 -29.5t-53.5 -35t-71 -28.5t-86.5 -12q-137 0 -201 88q-54 81 -8 189q36 69 112 135q24 20 53 44.5t49.5 42.5t41.5 42q39 45 39 102 q0 55 -31 97q-25 -17 -50 -41t-44.5 -45t-43.5 -53t-38 -51t-36 -55.5t-29 -48.5t-27.5 -46t-20.5 -35q-73 -127 -115 -181q-35 -44 -75 -83q69 -68 225 -103zM870 549q47 34 84.5 97.5t84 159.5t89.5 163q90 143 234 200q-19 10 -60 17t-113.5 0.5t-141.5 -33.5 q-97 -33 -168.5 -114.5t-85.5 -211.5q-8 -87 14.5 -159t62.5 -119z" glyph-name="glyph403" horiz-adv-x="2082"/><glyph d="M186 475v611q0 196 137 336t329 140h58q193 0 329.5 -140t136.5 -336v-611q0 -196 -137 -335.5t-329 -139.5h-58q-193 0 -329.5 139.5t-136.5 335.5zM353 295l585 1059q-99 89 -228 89h-58q-143 0 -245 -104.5t-102 -252.5v-611q0 -98 48 -180zM425 206q97 -87 227 -87 h58q143 0 245 104.5t102 251.5v611q0 97 -48 181z" glyph-name="O.aalt"/><glyph d="M186 475v611q0 196 137 336t329 140h58q193 0 329.5 -140t136.5 -336v-611q0 -196 -137 -335.5t-329 -139.5h-58q-193 0 -329.5 139.5t-136.5 335.5zM353 295l585 1059q-99 89 -228 89h-58q-143 0 -245 -104.5t-102 -252.5v-611q0 -98 48 -180zM425 206q97 -87 227 -87 h58q143 0 245 104.5t102 251.5v611q0 97 -48 181z" glyph-name="o.aalt"/><glyph d="M595 1680l157 266h121l-168 -266h-110zM186 475v611q0 196 137 336t329 140h58q193 0 329.5 -140t136.5 -336v-611q0 -196 -137 -335.5t-329 -139.5h-58q-193 0 -329.5 139.5t-136.5 335.5zM353 295l585 1059q-99 89 -228 89h-58q-143 0 -245 -104.5t-102 -252.5v-611 q0 -98 48 -180zM425 206q97 -87 227 -87h58q143 0 245 104.5t102 251.5v611q0 97 -48 181z" glyph-name="Oacute.aalt"/><glyph d="M595 1680l157 266h121l-168 -266h-110zM186 475v611q0 196 137 336t329 140h58q193 0 329.5 -140t136.5 -336v-611q0 -196 -137 -335.5t-329 -139.5h-58q-193 0 -329.5 139.5t-136.5 335.5zM353 295l585 1059q-99 89 -228 89h-58q-143 0 -245 -104.5t-102 -252.5v-611 q0 -98 48 -180zM425 206q97 -87 227 -87h58q143 0 245 104.5t102 251.5v611q0 97 -48 181z" glyph-name="oacute.aalt"/><glyph d="M657 1680l-169 266h122l157 -266h-110zM186 475v611q0 196 137 336t329 140h58q193 0 329.5 -140t136.5 -336v-611q0 -196 -137 -335.5t-329 -139.5h-58q-193 0 -329.5 139.5t-136.5 335.5zM353 295l585 1059q-99 89 -228 89h-58q-143 0 -245 -104.5t-102 -252.5v-611 q0 -98 48 -180zM425 206q97 -87 227 -87h58q143 0 245 104.5t102 251.5v611q0 97 -48 181z" glyph-name="Ograve.aalt"/><glyph d="M657 1680l-169 266h122l157 -266h-110zM186 475v611q0 196 137 336t329 140h58q193 0 329.5 -140t136.5 -336v-611q0 -196 -137 -335.5t-329 -139.5h-58q-193 0 -329.5 139.5t-136.5 335.5zM353 295l585 1059q-99 89 -228 89h-58q-143 0 -245 -104.5t-102 -252.5v-611 q0 -98 48 -180zM425 206q97 -87 227 -87h58q143 0 245 104.5t102 251.5v611q0 97 -48 181z" glyph-name="ograve.aalt"/><glyph d="M419 1680l212 254h100l212 -254h-125l-137 163l-137 -163h-125zM186 475v611q0 196 137 336t329 140h58q193 0 329.5 -140t136.5 -336v-611q0 -196 -137 -335.5t-329 -139.5h-58q-193 0 -329.5 139.5t-136.5 335.5zM353 295l585 1059q-99 89 -228 89h-58 q-143 0 -245 -104.5t-102 -252.5v-611q0 -98 48 -180zM425 206q97 -87 227 -87h58q143 0 245 104.5t102 251.5v611q0 97 -48 181z" glyph-name="Ocircumflex.aalt"/><glyph d="M419 1680l212 254h100l212 -254h-125l-137 163l-137 -163h-125zM186 475v611q0 196 137 336t329 140h58q193 0 329.5 -140t136.5 -336v-611q0 -196 -137 -335.5t-329 -139.5h-58q-193 0 -329.5 139.5t-136.5 335.5zM353 295l585 1059q-99 89 -228 89h-58 q-143 0 -245 -104.5t-102 -252.5v-611q0 -98 48 -180zM425 206q97 -87 227 -87h58q143 0 245 104.5t102 251.5v611q0 97 -48 181z" glyph-name="ocircumflex.aalt"/><glyph d="M788 1680v146h146v-146h-146zM428 1680v146h145v-146h-145zM186 475v611q0 196 137 336t329 140h58q193 0 329.5 -140t136.5 -336v-611q0 -196 -137 -335.5t-329 -139.5h-58q-193 0 -329.5 139.5t-136.5 335.5zM353 295l585 1059q-99 89 -228 89h-58q-143 0 -245 -104.5 t-102 -252.5v-611q0 -98 48 -180zM425 206q97 -87 227 -87h58q143 0 245 104.5t102 251.5v611q0 97 -48 181z" glyph-name="Odieresis.aalt"/><glyph d="M788 1680v146h146v-146h-146zM428 1680v146h145v-146h-145zM186 475v611q0 196 137 336t329 140h58q193 0 329.5 -140t136.5 -336v-611q0 -196 -137 -335.5t-329 -139.5h-58q-193 0 -329.5 139.5t-136.5 335.5zM353 295l585 1059q-99 89 -228 89h-58q-143 0 -245 -104.5 t-102 -252.5v-611q0 -98 48 -180zM425 206q97 -87 227 -87h58q143 0 245 104.5t102 251.5v611q0 97 -48 181z" glyph-name="odieresis.aalt"/><glyph d="M428 1691l-73 63l59 64q56 62 126 62q47 0 141 -43q116 -52 138 -52q29 0 57 30l58 63l73 -63l-59 -64q-56 -62 -126 -62q-47 0 -141 43q-116 52 -138 52q-29 0 -57 -30zM186 475v611q0 196 137 336t329 140h58q193 0 329.5 -140t136.5 -336v-611q0 -196 -137 -335.5 t-329 -139.5h-58q-193 0 -329.5 139.5t-136.5 335.5zM353 295l585 1059q-99 89 -228 89h-58q-143 0 -245 -104.5t-102 -252.5v-611q0 -98 48 -180zM425 206q97 -87 227 -87h58q143 0 245 104.5t102 251.5v611q0 97 -48 181z" glyph-name="Otilde.aalt"/><glyph d="M428 1691l-73 63l59 64q56 62 126 62q47 0 141 -43q116 -52 138 -52q29 0 57 30l58 63l73 -63l-59 -64q-56 -62 -126 -62q-47 0 -141 43q-116 52 -138 52q-29 0 -57 -30zM186 475v611q0 196 137 336t329 140h58q193 0 329.5 -140t136.5 -336v-611q0 -196 -137 -335.5 t-329 -139.5h-58q-193 0 -329.5 139.5t-136.5 335.5zM353 295l585 1059q-99 89 -228 89h-58q-143 0 -245 -104.5t-102 -252.5v-611q0 -98 48 -180zM425 206q97 -87 227 -87h58q143 0 245 104.5t102 251.5v611q0 97 -48 181z" glyph-name="otilde.aalt"/><glyph d="M234 -148v118h893v-118h-893z" glyph-name="underscore.ss07"/><glyph d="M186 475v611q0 196 137 336t329 140h58q66 0 125.5 -18t98 -43.5t67.5 -51t42 -42.5l14 -18v173h810v-119h-691v-603h524v-119h-524v-602h691v-119h-810v173q-5 -7 -14 -19t-41 -41.5t-69 -52t-97.5 -41.5t-125.5 -19h-58q-193 0 -329.5 139.5t-136.5 335.5zM353 295 l585 1059q-99 89 -228 89h-58q-143 0 -245 -104.5t-102 -252.5v-611q0 -98 48 -180zM425 206q97 -87 227 -87h58q143 0 245 104.5t102 251.5v611q0 97 -48 181z" glyph-name="OE.aalt" horiz-adv-x="2126"/><glyph d="M186 475v611q0 196 137 336t329 140h58q66 0 125.5 -18t98 -43.5t67.5 -51t42 -42.5l14 -18v173h810v-119h-691v-603h524v-119h-524v-602h691v-119h-810v173q-5 -7 -14 -19t-41 -41.5t-69 -52t-97.5 -41.5t-125.5 -19h-58q-193 0 -329.5 139.5t-136.5 335.5zM353 295 l585 1059q-99 89 -228 89h-58q-143 0 -245 -104.5t-102 -252.5v-611q0 -98 48 -180zM425 206q97 -87 227 -87h58q143 0 245 104.5t102 251.5v611q0 97 -48 181z" glyph-name="oe.aalt" horiz-adv-x="2126"/><glyph d="M231 0v1562h503q115 0 212.5 -55.5t156 -153t58.5 -212t-58.5 -211.5t-156 -153t-212.5 -56l463 -721h-144l-464 721h-239v-721h-119zM350 840h384q128 0 218 89t90 213t-90 212.5t-218 88.5h-384v-603z" glyph-name="R.ss05"/><glyph d="M231 0v1562h503q115 0 212.5 -55.5t156 -153t58.5 -212t-58.5 -211.5t-156 -153t-212.5 -56l463 -721h-144l-464 721h-239v-721h-119zM350 840h384q128 0 218 89t90 213t-90 212.5t-218 88.5h-384v-603z" glyph-name="r.ss05"/><glyph d="M190 0l99 178q-102 130 -103 297v611q0 196 137 336t329 140h58q161 0 286 -102l57 102h118l-98 -180q102 -130 103 -296v-611q0 -196 -137 -335.5t-329 -139.5h-58q-161 0 -285 100l-56 -100h-121zM305 475q0 -147 102 -251.5t245 -104.5h58q143 0 245 104.5t102 251.5 v611q0 147 -102 252t-245 105h-58q-143 0 -245 -104.5t-102 -252.5v-611z" glyph-name="Oslash.aalt"/><glyph d="M190 0l99 178q-102 130 -103 297v611q0 196 137 336t329 140h58q161 0 286 -102l57 102h118l-98 -180q102 -130 103 -296v-611q0 -196 -137 -335.5t-329 -139.5h-58q-161 0 -285 100l-56 -100h-121zM305 475q0 -147 102 -251.5t245 -104.5h58q143 0 245 104.5t102 251.5 v611q0 147 -102 252t-245 105h-58q-143 0 -245 -104.5t-102 -252.5v-611z" glyph-name="oslash.aalt"/><glyph d="M341 0v370h-247v118h247v585h-247v119h247v370h119v-370h442v370h119v-370h247v-119h-247v-585h247v-118h-247v-370h-119v370h-442v-370h-119zM460 488h442v585h-442v-585z" glyph-name="numbersign.ss07"/><glyph d="M293 0v119h512q82 0 139.5 57.5t57.5 139.5v156q0 67 -21.5 98.5t-101.5 66.5l-442 193q-118 52 -157 113t-39 164v138q0 131 92.5 224t223.5 93h512v-119h-512q-82 0 -140 -58t-58 -140v-139q0 -67 21.5 -98.5t102.5 -66.5l442 -193q118 -52 157 -113t39 -164v-155 q0 -130 -92.5 -223t-223.5 -93h-512z" glyph-name="S.ss03"/><glyph d="M293 0v119h512q82 0 139.5 57.5t57.5 139.5v156q0 67 -21.5 98.5t-101.5 66.5l-442 193q-118 52 -157 113t-39 164v138q0 131 92.5 224t223.5 93h512v-119h-512q-82 0 -140 -58t-58 -140v-139q0 -67 21.5 -98.5t102.5 -66.5l442 -193q118 -52 157 -113t39 -164v-155 q0 -130 -92.5 -223t-223.5 -93h-512z" glyph-name="s.ss03"/><glyph d="M631 1680l-212 254h125l137 -162l137 162h125l-212 -254h-100zM293 0v119h512q82 0 139.5 57.5t57.5 139.5v156q0 67 -21.5 98.5t-101.5 66.5l-442 193q-118 52 -157 113t-39 164v138q0 131 92.5 224t223.5 93h512v-119h-512q-82 0 -140 -58t-58 -140v-139 q0 -67 21.5 -98.5t102.5 -66.5l442 -193q118 -52 157 -113t39 -164v-155q0 -130 -92.5 -223t-223.5 -93h-512z" glyph-name="Scaron.ss03"/><glyph d="M631 1680l-212 254h125l137 -162l137 162h125l-212 -254h-100zM293 0v119h512q82 0 139.5 57.5t57.5 139.5v156q0 67 -21.5 98.5t-101.5 66.5l-442 193q-118 52 -157 113t-39 164v138q0 131 92.5 224t223.5 93h512v-119h-512q-82 0 -140 -58t-58 -140v-139 q0 -67 21.5 -98.5t102.5 -66.5l442 -193q118 -52 157 -113t39 -164v-155q0 -130 -92.5 -223t-223.5 -93h-512z" glyph-name="scaron.ss03"/><glyph d="M293 0v119h512q82 0 139.5 57.5t57.5 139.5v156q0 67 -21.5 98.5t-101.5 66.5l-442 193q-118 52 -157 113t-39 164v138q0 131 92.5 224t223.5 93h64v220h118v-220h330v-119h-512q-82 0 -140 -58t-58 -140v-139q0 -67 21.5 -98.5t102.5 -66.5l442 -193q118 -52 157 -113 t39 -164v-155q0 -130 -92.5 -223t-223.5 -93h-66v-220h-118v220h-328z" glyph-name="dollar.ss03"/><glyph d="M622 0v1562h118v-1562h-118z" glyph-name="I.titl"/><glyph d="M622 0v1562h118v-1562h-118z" glyph-name="i.titl"/><glyph d="M571 1680l157 266h122l-169 -266h-110zM622 0v1562h118v-1562h-118z" glyph-name="Iacute.titl"/><glyph d="M571 1680l157 266h122l-169 -266h-110zM622 0v1562h118v-1562h-118z" glyph-name="iacute.titl"/><glyph d="M681 1680l-169 266h122l157 -266h-110zM622 0v1562h118v-1562h-118z" glyph-name="Igrave.titl"/><glyph d="M681 1680l-169 266h122l157 -266h-110zM622 0v1562h118v-1562h-118z" glyph-name="igrave.titl"/><glyph d="M419 1680l212 254h100l212 -254h-125l-137 163l-137 -163h-125zM622 0v1562h118v-1562h-118z" glyph-name="Icircumflex.titl"/><glyph d="M419 1680l212 254h100l212 -254h-125l-137 163l-137 -163h-125zM622 0v1562h118v-1562h-118z" glyph-name="icircumflex.titl"/><glyph d="M788 1680v146h146v-146h-146zM428 1680v146h145v-146h-145zM622 0v1562h118v-1562h-118z" glyph-name="Idieresis.titl"/><glyph d="M788 1680v146h146v-146h-146zM428 1680v146h145v-146h-145zM622 0v1562h118v-1562h-118z" glyph-name="idieresis.titl"/><glyph d="M292 0v1562h1288v-1562h-119v1443h-1050v-603h524v-119h-524v-721h-119z" glyph-name="F_I.liga.titl" horiz-adv-x="2201"/><glyph d="M292 0v1562h1288v-1562h-119v1443h-1050v-603h524v-119h-524v-721h-119z" glyph-name="uniFB01.titl" horiz-adv-x="2201"/><glyph d="M215 165l82 89q6 -5 18.5 -14.5t51.5 -33t80 -41t103 -32t124 -14.5q69 0 130 15.5t112.5 45.5t81.5 82.5t30 120.5q0 46 -15.5 87t-35.5 68t-56.5 56t-61.5 44t-68 39l-261 143q-147 81 -211.5 167.5t-64.5 194.5q0 110 58.5 198t160.5 136v266h119v-229q49 8 98 9 q36 0 79 -6v226h119v-255q61 -22 114.5 -55.5t76.5 -56.5l23 -22l-82 -84q-5 5 -14.5 14t-41 32t-67.5 41t-92.5 32.5t-117.5 14.5q-137 0 -225.5 -75.5t-88.5 -181.5q0 -84 55.5 -144.5t149.5 -112.5l262 -145q155 -85 231 -175t76 -226q0 -134 -71 -220.5t-188 -127.5 v-255h-119v226q-49 -6 -96 -6q-38 0 -81 5v-225h-119v251q-70 20 -134.5 54t-93.5 56z" glyph-name="dollar.ss07"/><glyph d="M293 0v119h512q82 0 139.5 57.5t57.5 139.5v156q0 67 -21.5 98.5t-101.5 66.5l-442 193q-118 52 -157 113t-39 164v138q0 131 92.5 224t223.5 93h1709v-119h-434v-1443h-119v1443h-1156q-82 0 -140 -58t-58 -140v-139q0 -67 21.5 -98.5t102.5 -66.5l442 -193 q118 -52 157 -113t39 -164v-155q0 -130 -92.5 -223t-223.5 -93h-512z" glyph-name="S_T.liga.ss03" horiz-adv-x="2453"/><glyph d="M293 0v119h512q82 0 139.5 57.5t57.5 139.5v156q0 67 -21.5 98.5t-101.5 66.5l-442 193q-118 52 -157 113t-39 164v138q0 131 92.5 224t223.5 93h1709v-119h-434v-1443h-119v1443h-1156q-82 0 -140 -58t-58 -140v-139q0 -67 21.5 -98.5t102.5 -66.5l442 -193 q118 -52 157 -113t39 -164v-155q0 -130 -92.5 -223t-223.5 -93h-512z" glyph-name="uniFB06.ss03" horiz-adv-x="2453"/><glyph d="M681 519q-109 0 -185 76.5t-76 185t76 184.5t185 76t185 -76t76 -184.5t-76 -185t-185 -76.5z" glyph-name="bullet.ss07"/><glyph d="M186 780q0 214 105.5 395t286.5 286.5t395 105.5t394.5 -105.5t286 -286.5t105.5 -395t-105.5 -394.5t-286 -286t-394.5 -105.5t-395 105.5t-286.5 286t-105.5 394.5zM283 780.5q0 -140.5 54.5 -268.5t147 -220t220.5 -147t268 -55t268 55t220 147t147 220t55 268.5 t-55 268.5t-147 220t-220 146.5t-268 54.5t-268 -54.5t-220.5 -146.5t-147 -220t-54.5 -268.5zM1290 554l78 -56q-67 -90 -168 -142.5t-217 -52.5q-129 0 -239 64t-174 174t-64 239t64 239t174 174t239 64q116 0 217.5 -52t167.5 -142l-78 -56q-53 72 -133.5 113t-173.5 41 q-158 0 -269.5 -111.5t-111.5 -269t111.5 -269.5t269.5 -112q93 0 173.5 41.5t133.5 113.5z" glyph-name="copyright.ss07" horiz-adv-x="1945"/><glyph d="M190 0l866 1562h115l-865 -1562h-116zM390 978q-121 0 -206.5 85.5t-85.5 206.5t85.5 206.5t206.5 85.5t206.5 -85.5t85.5 -206.5t-85.5 -206.5t-206.5 -85.5zM390 1090q75 0 127.5 52.5t52.5 127.5t-52.5 127.5t-127.5 52.5t-127.5 -52.5t-52.5 -127.5t52.5 -127.5 t127.5 -52.5zM1400 292q0 121 85.5 206.5t206 85.5t206 -85.5t85.5 -206.5t-85.5 -206.5t-206 -85.5t-206 85.5t-85.5 206.5zM680 292q0 121 85.5 206.5t206.5 85.5t206.5 -85.5t85.5 -206.5t-85.5 -206.5t-206.5 -85.5t-206.5 85.5t-85.5 206.5zM1511 292q0 -75 53 -127.5 t127.5 -52.5t127.5 52.5t53 127.5t-53 127.5t-127.5 52.5t-127.5 -52.5t-53 -127.5zM792 292q0 -75 52.5 -127.5t127.5 -52.5t127.5 52.5t52.5 127.5t-52.5 127.5t-127.5 52.5t-127.5 -52.5t-52.5 -127.5z" glyph-name="perthousand.ss07" horiz-adv-x="2081"/><glyph d="M209 475v611q0 128 62.5 238t170 174t233.5 64h425v-119h-425q-143 0 -245 -104.5t-102 -252.5v-611q0 -147 101.5 -251.5t245.5 -104.5h359v602h-244v119h363v-840h-478q-193 0 -329.5 139.5t-136.5 335.5z" glyph-name="G.ss04"/><glyph d="M209 475v611q0 128 62.5 238t170 174t233.5 64h425v-119h-425q-143 0 -245 -104.5t-102 -252.5v-611q0 -147 101.5 -251.5t245.5 -104.5h359v602h-244v119h363v-840h-478q-193 0 -329.5 139.5t-136.5 335.5z" glyph-name="g.ss04"/><glyph d="M604 -119h152l-70 -267h-82v267z" glyph-name="glyph465"/><glyph d="M425 0q-106 0 -182 77t-76 186v318q0 110 75.5 186.5t182.5 76.5h29q106 0 182 -77t76 -186v-318q0 -110 -76 -186.5t-182 -76.5h-29zM425 93h29q67 0 115.5 50t48.5 120v318q0 71 -49 120.5t-115 49.5h-29q-68 0 -116.5 -50t-48.5 -120v-318q0 -71 48.5 -120.5 t116.5 -49.5z" glyph-name="zero.dnom" horiz-adv-x="878"/><glyph d="M204 0v93h192v621l-75 -77l-65 64l140 143h93v-751h194v-93h-479z" glyph-name="one.dnom" horiz-adv-x="878"/><glyph d="M199 0v109l316 389q48 60 48 123q0 56 -38.5 93t-98.5 37q-65 0 -99.5 -41.5t-34.5 -102.5h-93q0 108 64.5 172.5t161.5 64.5t164 -64t67 -158q0 -88 -72 -179l-285 -350h381v-93h-481z" glyph-name="two.dnom" horiz-adv-x="878"/><glyph d="M407 0q-87 0 -154 54.5t-84 136.5h95q17 -44 55.5 -71t87.5 -27h60q62 0 106 43t44 106v19q0 62 -44.5 106t-106.5 44h-65v92h60q48 0 82 33.5t34 81.5v17q0 48 -34 82t-82 34h-44q-37 0 -65 -20.5t-42 -54.5h-95q14 73 70.5 120.5t131.5 47.5h44q87 0 148 -61.5 t61 -147.5v-17q0 -30 -10 -56t-23.5 -43t-27 -30.5t-23.5 -19.5l-9 -5q5 -2 14 -6t32 -20.5t40.5 -37.5t32 -58t14.5 -81v-19q0 -100 -71.5 -171t-171.5 -71h-60z" glyph-name="three.dnom" horiz-adv-x="878"/><glyph d="M512 0v241h-367v101l359 502h100v-510h93v-93h-93v-241h-92zM244 334h268v375z" glyph-name="four.dnom" horiz-adv-x="878"/><glyph d="M423 0q-86 0 -153.5 54.5t-85.5 136.5h98q16 -44 54.5 -71t86.5 -27h36q62 0 105.5 44t43.5 106v67q0 65 -44 107.5t-105 42.5h-239l36 384h381v-93h-301l-19 -198h142q100 0 171 -71t71 -172v-67q0 -100 -71 -171.5t-171 -71.5h-36z" glyph-name="five.dnom" horiz-adv-x="878"/><glyph d="M420 0q-97 0 -167.5 68.5t-70.5 165.5v232q0 165 111 271.5t299 106.5h26v-93h-26q-65 0 -116.5 -14t-84 -34t-56 -49t-34.5 -53t-17 -54.5t-7.5 -44.5t-1.5 -29q23 36 64 56.5t82 20.5h39q97 0 167 -69t70 -166v-81q0 -98 -69.5 -166t-167.5 -68h-40zM421 93h38 q60 0 103 42t43 99v82q0 57 -43 99t-103 42h-38q-60 0 -103 -41.5t-43 -99.5v-82q0 -57 43 -99t103 -42z" glyph-name="six.dnom" horiz-adv-x="878"/><glyph d="M275 0l313 751h-386v93h488v-93l-312 -751h-103z" glyph-name="seven.dnom" horiz-adv-x="878"/><glyph d="M411 0q-100 0 -171.5 70.5t-71.5 171.5v19q0 44 14 81t33 58.5t38.5 37t33.5 21.5l14 5q-4 2 -10 6t-22 18.5t-28.5 31t-22.5 43t-10 55.5v17q0 86 61 147.5t148 61.5h45q87 0 148 -61.5t61 -147.5v-17q0 -30 -10 -56t-23 -43t-27 -30.5t-23 -19.5l-10 -5q5 -2 14 -6 t32 -20.5t40.5 -37.5t32 -58t14.5 -81v-19q0 -100 -71.5 -171t-171.5 -71h-57zM417 503h45q48 0 82 33.5t34 81.5v17q0 48 -34 82t-82 34h-45q-48 0 -82 -34t-34 -82v-17q0 -48 34 -81.5t82 -33.5zM411 93h57q62 0 106 43t44 106v19q0 62 -44.5 106t-106.5 44h-55 q-62 0 -107 -43.5t-45 -106.5v-19q0 -62 44.5 -105.5t106.5 -43.5z" glyph-name="eight.dnom" horiz-adv-x="878"/><glyph d="M459 844q97 0 167 -68.5t70 -166.5v-231q0 -165 -111 -271.5t-298 -106.5h-27v93h27q65 0 116.5 14t83.5 34t55.5 49t35 53t17.5 54.5t7 44t1 29.5q-23 -36 -63.5 -56.5t-81.5 -20.5h-39q-97 0 -167.5 69t-70.5 165v81q0 98 70 166.5t168 68.5h40zM458 751h-38 q-60 0 -103.5 -42t-43.5 -100v-82q0 -57 43 -98.5t104 -41.5h38q60 0 102.5 41.5t42.5 98.5v82q0 57 -42.5 99.5t-102.5 42.5z" glyph-name="nine.dnom" horiz-adv-x="878"/><glyph d="M425 718q-106 0 -182 76.5t-76 186.5v317q0 110 75.5 187t182.5 77h29q106 0 182 -77t76 -187v-317q0 -110 -76 -186.5t-182 -76.5h-29zM425 811h29q67 0 115.5 49.5t48.5 120.5v317q0 71 -49 120.5t-115 49.5h-29q-68 0 -116.5 -49.5t-48.5 -120.5v-317 q0 -71 48.5 -120.5t116.5 -49.5z" glyph-name="zero.numr" horiz-adv-x="878"/><glyph d="M204 718v93h192v621l-75 -77l-65 64l140 143h93v-751h194v-93h-479z" glyph-name="one.numr" horiz-adv-x="878"/><glyph d="M199 718v108l316 389q48 60 48 123q0 56 -38.5 93t-98.5 37q-65 0 -99.5 -41.5t-34.5 -101.5h-93q0 108 64.5 172.5t161.5 64.5t164 -64t67 -159q0 -88 -72 -178l-285 -350h381v-93h-481z" glyph-name="two.numr" horiz-adv-x="878"/><glyph d="M407 718q-87 0 -154 54t-84 137h95q17 -44 55.5 -71t87.5 -27h60q62 0 106 43t44 105v20q0 62 -44.5 105.5t-106.5 43.5h-65v93h60q48 0 82 33.5t34 81.5v17q0 48 -34 81.5t-82 33.5h-44q-37 0 -65 -20.5t-42 -53.5h-95q14 73 70.5 120.5t131.5 47.5h44q87 0 148 -61.5 t61 -147.5v-17q0 -30 -10 -56.5t-23.5 -43t-27 -30t-23.5 -18.5l-9 -6q5 -2 14 -6.5t32 -20.5t40.5 -37t32 -58t14.5 -81v-20q0 -100 -71.5 -170.5t-171.5 -70.5h-60z" glyph-name="three.numr" horiz-adv-x="878"/><glyph d="M512 718v240h-367v102l359 502h100v-510h93v-94h-93v-240h-92zM244 1052h268v374z" glyph-name="four.numr" horiz-adv-x="878"/><glyph d="M423 718q-86 0 -153.5 54t-85.5 137h98q16 -44 54.5 -71t86.5 -27h36q62 0 105.5 44t43.5 106v67q0 65 -44 107.5t-105 42.5h-239l36 384h381v-94h-301l-19 -197h142q100 0 171 -71.5t71 -171.5v-67q0 -100 -71 -171.5t-171 -71.5h-36z" glyph-name="five.numr" horiz-adv-x="878"/><glyph d="M420 718q-97 0 -167.5 68.5t-70.5 165.5v232q0 165 111 271.5t299 106.5h26v-94h-26q-65 0 -116.5 -13.5t-84 -33.5t-56 -49.5t-34.5 -53.5t-17 -54t-7.5 -44t-1.5 -29q23 36 64 56.5t82 20.5h39q97 0 167 -69.5t70 -165.5v-81q0 -98 -69.5 -166t-167.5 -68h-40zM421 811 h38q60 0 103 42t43 99v82q0 57 -43 99t-103 42h-38q-60 0 -103 -41.5t-43 -99.5v-82q0 -57 43 -99t103 -42z" glyph-name="six.numr" horiz-adv-x="878"/><glyph d="M275 718l313 750h-386v94h488v-94l-312 -750h-103z" glyph-name="seven.numr" horiz-adv-x="878"/><glyph d="M411 718q-100 0 -171.5 70.5t-71.5 170.5v20q0 44 14 81t33 58.5t38.5 36.5t33.5 21l14 6q-4 2 -10 6t-22 18.5t-28.5 30.5t-22.5 43t-10 56v17q0 86 61 147.5t148 61.5h45q87 0 148 -61.5t61 -147.5v-17q0 -30 -10 -56.5t-23 -43t-27 -30t-23 -18.5l-10 -6q5 -2 14 -6.5 t32 -20.5t40.5 -37t32 -58t14.5 -81v-20q0 -100 -71.5 -170.5t-171.5 -70.5h-57zM417 1221h45q48 0 82 33.5t34 81.5v17q0 48 -34 81.5t-82 33.5h-45q-48 0 -82 -33.5t-34 -81.5v-17q0 -48 34 -81.5t82 -33.5zM411 811h57q62 0 106 43t44 105v20q0 62 -44.5 105.5 t-106.5 43.5h-55q-62 0 -107 -43.5t-45 -105.5v-20q0 -62 44.5 -105t106.5 -43z" glyph-name="eight.numr" horiz-adv-x="878"/><glyph d="M459 1562q97 0 167 -69t70 -166v-231q0 -165 -111 -271.5t-298 -106.5h-27v93h27q65 0 116.5 14t83.5 34t55.5 49t35 53t17.5 54.5t7 44t1 29.5q-23 -36 -63.5 -56.5t-81.5 -20.5h-39q-97 0 -167.5 69t-70.5 165v81q0 98 70 166.5t168 68.5h40zM458 1468h-38 q-60 0 -103.5 -42t-43.5 -99v-82q0 -57 43 -98.5t104 -41.5h38q60 0 102.5 41.5t42.5 98.5v82q0 57 -42.5 99t-102.5 42z" glyph-name="nine.numr" horiz-adv-x="878"/><glyph glyph-name="glyph486"/><glyph d="M673 -267v988h-111q-174 0 -300 123.5t-126 297.5q0 175 125 297.5t301 122.5h595v-1829h-119v988h-246v-988h-119zM792 840h246v603h-246v-603z" glyph-name="glyph487"/><glyph d="M186 475v611q0 196 137 336t329 140h58q193 0 329.5 -140t136.5 -336v-611q0 -196 -137 -335.5t-329 -139.5h-58q-193 0 -329.5 139.5t-136.5 335.5zM353 295l585 1059q-99 89 -228 89h-58q-143 0 -245 -104.5t-102 -252.5v-611q0 -98 48 -180zM425 206q97 -87 227 -87 h58q143 0 245 104.5t102 251.5v611q0 97 -48 181z" glyph-name="zero.zero"/><glyph d="M657.5 874q-143.5 0 -245 101.5t-101.5 245t101.5 245t245 101.5t245 -101.5t101.5 -245t-101.5 -245t-245 -101.5zM657.5 928q120.5 0 206.5 86t86 206.5t-86 206.5t-206.5 86t-206.5 -86t-86 -206.5t86 -206.5t206.5 -86zM545 1020v401h131q47 0 81 -33t34 -80 q0 -37 -23.5 -67.5t-57.5 -40.5l93 -180h-60l-90 174h-56v-174h-52zM597 1246h77q25 0 44 18.5t19 43.5q0 29 -21 45t-51 16h-68v-123z" glyph-name="glyph489" horiz-adv-x="1945"/><glyph d="M186 475v611q0 128 62.5 238t170 174t233.5 64h58q126 0 233.5 -64t170 -174t62.5 -238v-611q0 -147 -83 -269l206 -206h-169l-116 116q-132 -116 -304 -116h-58q-193 0 -329.5 139.5t-136.5 335.5zM305 475q0 -147 102 -251.5t245 -104.5h58q123 0 220 81l-87 87l79 89 l85 -85q50 86 50 184v589q0 158 -98 268.5t-249 110.5h-58q-152 0 -249.5 -110.5t-97.5 -268.5v-589z" glyph-name="Q.ss06"/><glyph d="M186 475v611q0 128 62.5 238t170 174t233.5 64h58q126 0 233.5 -64t170 -174t62.5 -238v-611q0 -147 -83 -269l206 -206h-169l-116 116q-132 -116 -304 -116h-58q-193 0 -329.5 139.5t-136.5 335.5zM305 475q0 -147 102 -251.5t245 -104.5h58q123 0 220 81l-87 87l79 89 l85 -85q50 86 50 184v589q0 158 -98 268.5t-249 110.5h-58q-152 0 -249.5 -110.5t-97.5 -268.5v-589z" glyph-name="q.ss06"/><glyph d="M622 0v1562h118v-1562h-118z" glyph-name="glyph492"/><glyph d="M186 475v611q0 196 137 336t329 140h58q193 0 329.5 -140t136.5 -336v-611q0 -196 -137 -335.5t-329 -139.5h-58q-193 0 -329.5 139.5t-136.5 335.5zM353 295l585 1059q-99 89 -228 89h-58q-143 0 -245 -104.5t-102 -252.5v-611q0 -98 48 -180zM425 206q97 -87 227 -87 h58q143 0 245 104.5t102 251.5v611q0 97 -48 181zM394 1699v96h574v-96h-574z" glyph-name="Omacron.aalt"/><glyph d="M186 475v611q0 196 137 336t329 140h58q193 0 329.5 -140t136.5 -336v-611q0 -196 -137 -335.5t-329 -139.5h-58q-193 0 -329.5 139.5t-136.5 335.5zM353 295l585 1059q-99 89 -228 89h-58q-143 0 -245 -104.5t-102 -252.5v-611q0 -98 48 -180zM425 206q97 -87 227 -87 h58q143 0 245 104.5t102 251.5v611q0 97 -48 181zM394 1699v96h574v-96h-574z" glyph-name="omacron.aalt"/><glyph d="M186 475v611q0 196 137 336t329 140h58q193 0 329.5 -140t136.5 -336v-611q0 -196 -137 -335.5t-329 -139.5h-58q-193 0 -329.5 139.5t-136.5 335.5zM353 295l585 1059q-99 89 -228 89h-58q-143 0 -245 -104.5t-102 -252.5v-611q0 -98 48 -180zM425 206q97 -87 227 -87 h58q143 0 245 104.5t102 251.5v611q0 97 -48 181zM732 1680l157 266h122l-169 -266h-110zM411 1680l156 266h122l-169 -266h-109z" glyph-name="Ohungarumlaut.aalt"/><glyph d="M186 475v611q0 196 137 336t329 140h58q193 0 329.5 -140t136.5 -336v-611q0 -196 -137 -335.5t-329 -139.5h-58q-193 0 -329.5 139.5t-136.5 335.5zM353 295l585 1059q-99 89 -228 89h-58q-143 0 -245 -104.5t-102 -252.5v-611q0 -98 48 -180zM425 206q97 -87 227 -87 h58q143 0 245 104.5t102 251.5v611q0 97 -48 181zM732 1680l157 266h122l-169 -266h-110zM411 1680l156 266h122l-169 -266h-109z" glyph-name="ohungarumlaut.aalt"/><glyph d="M186 475v611q0 196 137 336t329 140h58q193 0 329.5 -140t136.5 -336v-611q0 -196 -137 -335.5t-329 -139.5h-58q-193 0 -329.5 139.5t-136.5 335.5zM353 295l585 1059q-99 89 -228 89h-58q-143 0 -245 -104.5t-102 -252.5v-611q0 -98 48 -180zM425 206q97 -87 227 -87 h58q143 0 245 104.5t102 251.5v611q0 97 -48 181zM861 1862h106q-30 -88 -109 -142t-177 -54t-177 54t-109 142h106q26 -46 76 -73t104 -27t104 27t76 73z" glyph-name="Obreve.aalt"/><glyph d="M186 475v611q0 196 137 336t329 140h58q193 0 329.5 -140t136.5 -336v-611q0 -196 -137 -335.5t-329 -139.5h-58q-193 0 -329.5 139.5t-136.5 335.5zM353 295l585 1059q-99 89 -228 89h-58q-143 0 -245 -104.5t-102 -252.5v-611q0 -98 48 -180zM425 206q97 -87 227 -87 h58q143 0 245 104.5t102 251.5v611q0 97 -48 181zM861 1862h106q-30 -88 -109 -142t-177 -54t-177 54t-109 142h106q26 -46 76 -73t104 -27t104 27t76 73z" glyph-name="obreve.aalt"/><glyph d="M595 1680l157 266h121l-168 -266h-110zM190 0l99 178q-102 130 -103 297v611q0 196 137 336t329 140h58q161 0 286 -102l57 102h118l-98 -180q102 -130 103 -296v-611q0 -196 -137 -335.5t-329 -139.5h-58q-161 0 -285 100l-56 -100h-121zM305 475q0 -147 102 -251.5 t245 -104.5h58q143 0 245 104.5t102 251.5v611q0 147 -102 252t-245 105h-58q-143 0 -245 -104.5t-102 -252.5v-611z" glyph-name="Oslashacute.aalt"/><glyph d="M595 1680l157 266h121l-168 -266h-110zM190 0l99 178q-102 130 -103 297v611q0 196 137 336t329 140h58q161 0 286 -102l57 102h118l-98 -180q102 -130 103 -296v-611q0 -196 -137 -335.5t-329 -139.5h-58q-161 0 -285 100l-56 -100h-121zM305 475q0 -147 102 -251.5 t245 -104.5h58q143 0 245 104.5t102 251.5v611q0 147 -102 252t-245 105h-58q-143 0 -245 -104.5t-102 -252.5v-611z" glyph-name="oslashacute.aalt"/><glyph d="M394 1699v96h574v-96h-574zM622 0v1562h118v-1562h-118z" glyph-name="Imacron.titl"/><glyph d="M394 1699v96h574v-96h-574zM622 0v1562h118v-1562h-118z" glyph-name="imacron.titl"/><glyph d="M435 -195l187 202v1555h118v-1562l-209 -227v-16q0 -20 14 -33.5t35 -13.5h160v-96h-160q-60 0 -102.5 42t-42.5 101v48z" glyph-name="Iogonek.titl"/><glyph d="M435 -195l187 202v1555h118v-1562l-209 -227v-16q0 -20 14 -33.5t35 -13.5h160v-96h-160q-60 0 -102.5 42t-42.5 101v48z" glyph-name="iogonek.titl"/><glyph d="M622 0v1562h118v-1562h-118zM428 1691l-73 63l59 64q56 62 126 62q47 0 141 -43q116 -52 138 -52q29 0 57 30l58 63l73 -63l-59 -64q-56 -62 -126 -62q-47 0 -141 43q-116 52 -138 52q-29 0 -57 -30z" glyph-name="Itilde.titl"/><glyph d="M622 0v1562h118v-1562h-118zM428 1691l-73 63l59 64q56 62 126 62q47 0 141 -43q116 -52 138 -52q29 0 57 30l58 63l73 -63l-59 -64q-56 -62 -126 -62q-47 0 -141 43q-116 52 -138 52q-29 0 -57 -30z" glyph-name="glyph506"/><glyph d="M622 0v1562h118v-1562h-118zM608 1680v146h146v-146h-146z" glyph-name="Idotaccent.titl"/><glyph d="M622 0v1562h118v-1562h-118zM1644 0v119h296q142 0 244.5 104.5t102.5 251.5v1087h118v-1087q0 -196 -136.5 -335.5t-328.5 -139.5h-296z" glyph-name="IJ.titl" horiz-adv-x="2723"/><glyph d="M622 0v1562h118v-1562h-118zM1644 0v119h296q142 0 244.5 104.5t102.5 251.5v1087h118v-1087q0 -196 -136.5 -335.5t-328.5 -139.5h-296z" glyph-name="ij.titl" horiz-adv-x="2723"/><glyph d="M231 0v1562h503q115 0 212.5 -55.5t156 -153t58.5 -212t-58.5 -211.5t-156 -153t-212.5 -56l463 -721h-144l-464 721h-239v-721h-119zM350 840h384q128 0 218 89t90 213t-90 212.5t-218 88.5h-384v-603zM542 1680l156 266h122l-169 -266h-109z" glyph-name="Racute.ss05"/><glyph d="M231 0v1562h503q115 0 212.5 -55.5t156 -153t58.5 -212t-58.5 -211.5t-156 -153t-212.5 -56l463 -721h-144l-464 721h-239v-721h-119zM350 840h384q128 0 218 89t90 213t-90 212.5t-218 88.5h-384v-603zM542 1680l156 266h122l-169 -266h-109z" glyph-name="racute.ss05"/><glyph d="M231 0v1562h503q115 0 212.5 -55.5t156 -153t58.5 -212t-58.5 -211.5t-156 -153t-212.5 -56l463 -721h-144l-464 721h-239v-721h-119zM350 840h384q128 0 218 89t90 213t-90 212.5t-218 88.5h-384v-603zM590 -119h151l-69 -267h-82v267z" glyph-name="Rcommaaccent.ss05"/><glyph d="M231 0v1562h503q115 0 212.5 -55.5t156 -153t58.5 -212t-58.5 -211.5t-156 -153t-212.5 -56l463 -721h-144l-464 721h-239v-721h-119zM350 840h384q128 0 218 89t90 213t-90 212.5t-218 88.5h-384v-603zM590 -119h151l-69 -267h-82v267z" glyph-name="rcommaaccent.ss05"/><glyph d="M231 0v1562h503q115 0 212.5 -55.5t156 -153t58.5 -212t-58.5 -211.5t-156 -153t-212.5 -56l463 -721h-144l-464 721h-239v-721h-119zM350 840h384q128 0 218 89t90 213t-90 212.5t-218 88.5h-384v-603zM601 1680l-212 254h125l137 -162l137 162h125l-212 -254h-100z" glyph-name="Rcaron.ss05"/><glyph d="M231 0v1562h503q115 0 212.5 -55.5t156 -153t58.5 -212t-58.5 -211.5t-156 -153t-212.5 -56l463 -721h-144l-464 721h-239v-721h-119zM350 840h384q128 0 218 89t90 213t-90 212.5t-218 88.5h-384v-603zM601 1680l-212 254h125l137 -162l137 162h125l-212 -254h-100z" glyph-name="rcaron.ss05"/><glyph d="M293 0v119h512q82 0 139.5 57.5t57.5 139.5v156q0 67 -21.5 98.5t-101.5 66.5l-442 193q-118 52 -157 113t-39 164v138q0 131 92.5 224t223.5 93h512v-119h-512q-82 0 -140 -58t-58 -140v-139q0 -67 21.5 -98.5t102.5 -66.5l442 -193q118 -52 157 -113t39 -164v-155 q0 -130 -92.5 -223t-223.5 -93h-512zM580 1680l156 266h122l-169 -266h-109z" glyph-name="Sacute.ss03"/><glyph d="M293 0v119h512q82 0 139.5 57.5t57.5 139.5v156q0 67 -21.5 98.5t-101.5 66.5l-442 193q-118 52 -157 113t-39 164v138q0 131 92.5 224t223.5 93h512v-119h-512q-82 0 -140 -58t-58 -140v-139q0 -67 21.5 -98.5t102.5 -66.5l442 -193q118 -52 157 -113t39 -164v-155 q0 -130 -92.5 -223t-223.5 -93h-512zM580 1680l156 266h122l-169 -266h-109z" glyph-name="sacute.ss03"/><glyph d="M293 0v119h512q82 0 139.5 57.5t57.5 139.5v156q0 67 -21.5 98.5t-101.5 66.5l-442 193q-118 52 -157 113t-39 164v138q0 131 92.5 224t223.5 93h512v-119h-512q-82 0 -140 -58t-58 -140v-139q0 -67 21.5 -98.5t102.5 -66.5l442 -193q118 -52 157 -113t39 -164v-155 q0 -130 -92.5 -223t-223.5 -93h-80l-29 -69h20q59 -1 101.5 -42t42.5 -101v-31q0 -59 -42 -101t-102 -42h-237l39 96h198q20 0 34 13.5t14 33.5v31q0 20 -14 33.5t-34 13.5h-145l68 165h-346z" glyph-name="Scedilla.ss03"/><glyph d="M293 0v119h512q82 0 139.5 57.5t57.5 139.5v156q0 67 -21.5 98.5t-101.5 66.5l-442 193q-118 52 -157 113t-39 164v138q0 131 92.5 224t223.5 93h512v-119h-512q-82 0 -140 -58t-58 -140v-139q0 -67 21.5 -98.5t102.5 -66.5l442 -193q118 -52 157 -113t39 -164v-155 q0 -130 -92.5 -223t-223.5 -93h-80l-29 -69h20q59 -1 101.5 -42t42.5 -101v-31q0 -59 -42 -101t-102 -42h-237l39 96h198q20 0 34 13.5t14 33.5v31q0 20 -14 33.5t-34 13.5h-145l68 165h-346z" glyph-name="scedilla.ss03"/><glyph d="M293 0v119h512q82 0 139.5 57.5t57.5 139.5v156q0 67 -21.5 98.5t-101.5 66.5l-442 193q-118 52 -157 113t-39 164v138q0 131 92.5 224t223.5 93h512v-119h-512q-82 0 -140 -58t-58 -140v-139q0 -67 21.5 -98.5t102.5 -66.5l442 -193q118 -52 157 -113t39 -164v-155 q0 -130 -92.5 -223t-223.5 -93h-512zM604 -119h152l-70 -267h-82v267z" glyph-name="Scommaaccent.ss03"/><glyph d="M293 0v119h512q82 0 139.5 57.5t57.5 139.5v156q0 67 -21.5 98.5t-101.5 66.5l-442 193q-118 52 -157 113t-39 164v138q0 131 92.5 224t223.5 93h512v-119h-512q-82 0 -140 -58t-58 -140v-139q0 -67 21.5 -98.5t102.5 -66.5l442 -193q118 -52 157 -113t39 -164v-155 q0 -130 -92.5 -223t-223.5 -93h-512zM604 -119h152l-70 -267h-82v267z" glyph-name="scommaaccent.ss03"/><glyph d="M419 1680l212 254h100l212 -254h-125l-137 163l-137 -163h-125zM293 0v119h512q82 0 139.5 57.5t57.5 139.5v156q0 67 -21.5 98.5t-101.5 66.5l-442 193q-118 52 -157 113t-39 164v138q0 131 92.5 224t223.5 93h512v-119h-512q-82 0 -140 -58t-58 -140v-139 q0 -67 21.5 -98.5t102.5 -66.5l442 -193q118 -52 157 -113t39 -164v-155q0 -130 -92.5 -223t-223.5 -93h-512z" glyph-name="Scircumflex.ss03"/><glyph d="M419 1680l212 254h100l212 -254h-125l-137 163l-137 -163h-125zM293 0v119h512q82 0 139.5 57.5t57.5 139.5v156q0 67 -21.5 98.5t-101.5 66.5l-442 193q-118 52 -157 113t-39 164v138q0 131 92.5 224t223.5 93h512v-119h-512q-82 0 -140 -58t-58 -140v-139 q0 -67 21.5 -98.5t102.5 -66.5l442 -193q118 -52 157 -113t39 -164v-155q0 -130 -92.5 -223t-223.5 -93h-512z" glyph-name="scircumflex.ss03"/><glyph d="M209 475v611q0 128 62.5 238t170 174t233.5 64h425v-119h-425q-143 0 -245 -104.5t-102 -252.5v-611q0 -147 101.5 -251.5t245.5 -104.5h359v602h-244v119h363v-840h-478q-193 0 -329.5 139.5t-136.5 335.5zM893 1862h105q-30 -88 -108.5 -142t-177 -54t-177 54 t-108.5 142h105q26 -46 76 -73t104.5 -27t104.5 27t76 73z" glyph-name="Gbreve.ss04"/><glyph d="M209 475v611q0 128 62.5 238t170 174t233.5 64h425v-119h-425q-143 0 -245 -104.5t-102 -252.5v-611q0 -147 101.5 -251.5t245.5 -104.5h359v602h-244v119h363v-840h-478q-193 0 -329.5 139.5t-136.5 335.5zM893 1862h105q-30 -88 -108.5 -142t-177 -54t-177 54 t-108.5 142h105q26 -46 76 -73t104.5 -27t104.5 27t76 73z" glyph-name="gbreve.ss04"/><glyph d="M209 475v611q0 128 62.5 238t170 174t233.5 64h425v-119h-425q-143 0 -245 -104.5t-102 -252.5v-611q0 -147 101.5 -251.5t245.5 -104.5h359v602h-244v119h363v-840h-478q-193 0 -329.5 139.5t-136.5 335.5zM636 -119h151l-69 -267h-82v267z" glyph-name="Gcommaaccent.ss04"/><glyph d="M209 475v611q0 128 62.5 238t170 174t233.5 64h425v-119h-425q-143 0 -245 -104.5t-102 -252.5v-611q0 -147 101.5 -251.5t245.5 -104.5h359v602h-244v119h363v-840h-478q-193 0 -329.5 139.5t-136.5 335.5zM636 -119h151l-69 -267h-82v267z" glyph-name="gcommaaccent.ss04"/><glyph d="M209 475v611q0 128 62.5 238t170 174t233.5 64h425v-119h-425q-143 0 -245 -104.5t-102 -252.5v-611q0 -147 101.5 -251.5t245.5 -104.5h359v602h-244v119h363v-840h-478q-193 0 -329.5 139.5t-136.5 335.5zM451 1680l212 254h100l212 -254h-125l-137 163l-138 -163h-124 z" glyph-name="Gcircumflex.ss04"/><glyph d="M209 475v611q0 128 62.5 238t170 174t233.5 64h425v-119h-425q-143 0 -245 -104.5t-102 -252.5v-611q0 -147 101.5 -251.5t245.5 -104.5h359v602h-244v119h363v-840h-478q-193 0 -329.5 139.5t-136.5 335.5zM451 1680l212 254h100l212 -254h-125l-137 163l-138 -163h-124 z" glyph-name="gcircumflex.ss04"/><glyph d="M209 475v611q0 128 62.5 238t170 174t233.5 64h425v-119h-425q-143 0 -245 -104.5t-102 -252.5v-611q0 -147 101.5 -251.5t245.5 -104.5h359v602h-244v119h363v-840h-478q-193 0 -329.5 139.5t-136.5 335.5zM640 1680v146h145v-146h-145z" glyph-name="Gdotaccent.ss04"/><glyph d="M209 475v611q0 128 62.5 238t170 174t233.5 64h425v-119h-425q-143 0 -245 -104.5t-102 -252.5v-611q0 -147 101.5 -251.5t245.5 -104.5h359v602h-244v119h363v-840h-478q-193 0 -329.5 139.5t-136.5 335.5zM640 1680v146h145v-146h-145z" glyph-name="gdotaccent.ss04"/></font>
</defs>
</svg>
